<svg width="98" height="110" viewBox="0 0 98 110" fill="none" xmlns="http://www.w3.org/2000/svg">
<path d="M52.4966 70.6246L52.1431 70.271L47.9034 66.0314C47.9033 66.0313 47.9033 66.0313 47.9033 66.0312C46.8296 64.9584 45.0901 64.9584 44.0164 66.0312C44.0164 66.0313 44.0163 66.0313 44.0163 66.0314M52.4966 70.6246L44.0163 66.0314M52.4966 70.6246L52.8502 70.271L62.1489 60.9723C63.2217 59.8995 64.9621 59.8995 66.0349 60.9723C67.1086 62.046 67.1086 63.7855 66.0349 64.8592L54.4392 76.4549C53.9238 76.9703 53.2252 77.2593 52.4966 77.2593C51.7674 77.2593 51.0686 76.9696 50.553 76.4546L44.0165 69.9182C44.0165 69.9182 44.0164 69.9181 44.0164 69.9181M52.4966 70.6246L44.0164 69.9181M44.0163 66.0314C42.9437 67.1041 42.9435 68.8444 44.0164 69.9181M44.0163 66.0314L44.0164 69.9181" fill="#EDF2F4" fill-opacity="0.5" stroke="white"/>
<path d="M80.3097 68.7131C80.3097 82.6544 68.9672 93.9977 55.0259 93.9977C41.0846 93.9977 29.7413 82.6544 29.7413 68.7131C29.7413 54.7718 41.0838 43.4293 55.0259 43.4293C68.9673 43.4293 80.3097 54.7718 80.3097 68.7131ZM74.814 68.7131C74.814 57.8013 65.9377 48.925 55.0259 48.925C44.1142 48.925 35.237 57.8013 35.237 68.7131C35.237 79.6248 44.1142 88.502 55.0259 88.502C65.9377 88.502 74.814 79.6248 74.814 68.7131Z" fill="#EDF2F4" fill-opacity="0.5" stroke="white"/>
<path d="M91.8333 6.91612V7.41612H92.3333H98.2574C103.773 7.41612 108.261 11.9045 108.261 17.4208V99.4962C108.261 105.012 103.774 109.5 98.2574 109.5H11.7929C6.2775 109.5 1.78906 105.012 1.78906 99.4962V17.4208C1.78906 11.9045 6.27753 7.41612 11.7929 7.41612H17.7179H18.2179V6.91612V3.24783C18.2179 1.73053 19.4484 0.5 20.9657 0.5C22.484 0.5 23.7144 1.73062 23.7144 3.24783V6.91612V7.41612H24.2144H30.5968H31.0968V6.91612V3.24783C31.0968 1.73053 32.3273 0.5 33.8446 0.5C35.3628 0.5 36.5933 1.73062 36.5933 3.24783V6.91612V7.41612H37.0933H72.9588H73.4588V6.91612V3.24783C73.4588 1.73053 74.6893 0.5 76.2066 0.5C77.7248 0.5 78.9553 1.73062 78.9553 3.24783V6.91612V7.41612H79.4553H85.8376H86.3376V6.91612V3.24783C86.3376 1.73053 87.5682 0.5 89.0855 0.5C90.6028 0.5 91.8333 1.73053 91.8333 3.24783V6.91612ZM7.78473 33.4235H7.28473V33.9235V99.4962C7.28473 101.982 9.30706 104.004 11.7929 104.004H98.2574C100.743 104.004 102.765 101.982 102.765 99.4962V33.9235V33.4235H102.265H7.78473ZM18.2179 13.4126V12.9126H17.7179H11.7929C9.30713 12.9126 7.28473 14.9341 7.28473 17.4208V27.427V27.927H7.78473H102.266H102.766V27.427V17.4208C102.766 14.9341 100.743 12.9126 98.2574 12.9126H92.3341H91.8341V13.4126V17.0809C91.8341 18.5981 90.6037 19.8288 89.0855 19.8288C87.5682 19.8288 86.3376 18.5982 86.3376 17.0809V13.4126V12.9126H85.8376H79.4553H78.9553V13.4126V17.0809C78.9553 18.5982 77.7247 19.8288 76.2074 19.8288C74.6892 19.8288 73.4588 18.5981 73.4588 17.0809V13.4126V12.9126H72.9588H37.0933H36.5933V13.4126V17.0809C36.5933 18.5982 35.3627 19.8288 33.8454 19.8288C32.3272 19.8288 31.0968 18.5981 31.0968 17.0809V13.4126V12.9126H30.5968H24.2144H23.7144V13.4126V17.0809C23.7144 18.5982 22.4839 19.8288 20.9666 19.8288C19.4483 19.8288 18.2179 18.5981 18.2179 17.0809V13.4126Z" fill="#EDF2F4" fill-opacity="0.5" stroke="white"/>
</svg>
