<svg width="115" height="160" viewBox="0 0 115 160" fill="none" xmlns="http://www.w3.org/2000/svg">
<path d="M110.867 122.615L114.577 120.472C114.701 120.43 114.808 120.351 114.883 120.245C114.959 120.139 115 120.012 115 119.882C115 119.752 114.959 119.625 114.883 119.519C114.808 119.413 114.701 119.334 114.577 119.292L76.344 97.2252C76.0272 97.0647 75.6771 96.9811 75.3221 96.9811C74.967 96.9811 74.6169 97.0647 74.3001 97.2252L70.5901 99.3682C70.4668 99.41 70.3597 99.4894 70.2839 99.5952C70.208 99.701 70.1672 99.828 70.1672 99.9582C70.1672 100.088 70.208 100.215 70.2839 100.321C70.3597 100.427 70.4668 100.506 70.5901 100.548L108.823 122.615C109.14 122.775 109.49 122.859 109.845 122.859C110.2 122.859 110.55 122.775 110.867 122.615Z" fill="#A1A4AC" fill-opacity="0.3"/>
<path d="M35.7977 124.352C55.5682 124.352 71.5953 115.1 71.5953 103.687C71.5953 92.2744 55.5682 83.0224 35.7977 83.0224C16.0272 83.0224 0 92.2744 0 103.687C0 115.1 16.0272 124.352 35.7977 124.352Z" fill="#A1A4AC" fill-opacity="0.3"/>
<path d="M69.3485 147.151C80.0601 147.151 88.7436 142.138 88.7436 135.954C88.7436 129.771 80.0601 124.758 69.3485 124.758C58.6369 124.758 49.9534 129.771 49.9534 135.954C49.9534 142.138 58.6369 147.151 69.3485 147.151Z" fill="#A1A4AC" fill-opacity="0.3"/>
<path d="M20.5842 146.565C16.8081 144.38 10.6719 144.38 6.86742 146.565C5.37113 147.434 4.47429 148.51 4.16276 149.629C0.542402 151.824 0.594329 155.293 4.32325 157.445C8.05218 159.598 14.2356 159.631 18.0353 157.445C19.5363 156.581 20.4284 155.505 20.7447 154.382C24.3603 152.187 24.3131 148.722 20.5842 146.565Z" fill="#A1A4AC" fill-opacity="0.3"/>
<path d="M50.1849 151.588L46.7958 149.633L42.1276 146.938C41.1265 146.43 40.0195 146.164 38.8966 146.164C37.7737 146.164 36.6667 146.43 35.6657 146.938C33.8862 147.967 33.8956 149.638 35.6657 150.667L40.3434 153.358L43.7277 155.316C44.7288 155.825 45.8358 156.09 46.9586 156.09C48.0815 156.09 49.1885 155.825 50.1896 155.316C51.9833 154.283 51.9738 152.612 50.1849 151.588Z" fill="#A1A4AC" fill-opacity="0.3"/>
<path d="M92.2975 138.999L95.6913 137.045L100.36 134.345C101.361 133.839 102.468 133.575 103.59 133.575C104.713 133.575 105.82 133.839 106.821 134.345C108.601 135.379 108.591 137.05 106.821 138.079L102.144 140.769L98.7453 142.747C97.7442 143.256 96.6372 143.521 95.5143 143.521C94.3914 143.521 93.2844 143.256 92.2834 142.747C90.5039 141.694 90.5086 140.023 92.2975 138.999Z" fill="#A1A4AC" fill-opacity="0.3"/>
<path d="M113.766 117.258V46.8573C113.703 45.7228 113.374 44.6188 112.806 43.6348C112.238 42.6508 111.446 41.8144 110.495 41.1932L77.1372 21.9113C75.3294 20.8682 73.8615 21.7131 73.8615 23.7994V94.2383C73.9242 95.3733 74.2534 96.4777 74.8226 97.4618C75.3917 98.4459 76.1847 99.282 77.1372 99.9025L110.495 119.147C112.302 120.209 113.766 119.364 113.766 117.258Z" fill="#E0E0E0"/>
<path d="M112.248 118.165V47.7448C112.187 46.6098 111.858 45.5054 111.29 44.5211C110.722 43.5369 109.929 42.7007 108.977 42.0806L75.6192 22.8176C73.8114 21.7745 72.3434 22.6194 72.3434 24.7057V95.1257C72.4061 96.2608 72.7354 97.3651 73.3045 98.3492C73.8736 99.3333 74.6666 100.169 75.6192 100.79L108.943 120.053C110.77 121.096 112.248 120.251 112.248 118.165Z" fill="#F5F5F5"/>
<path d="M108.943 42.0804L78.8615 24.7103C87.7967 30.483 105.766 40.8768 108.013 42.6469C110.26 44.4169 111.421 45.5734 111.421 51.2847C111.421 56.9961 112.247 114.285 112.247 114.285V47.7305C112.18 46.595 111.846 45.4915 111.272 44.5097C110.698 43.5278 109.9 42.6955 108.943 42.0804Z" fill="#FAFAFA"/>
<path d="M91.1302 35.1558C91.2483 35.2356 91.3458 35.3422 91.4147 35.4669C91.4836 35.5916 91.522 35.7309 91.5267 35.8733V106.067C91.5267 106.336 91.352 106.449 91.1302 106.326C91.0135 106.246 90.9173 106.139 90.8493 106.014C90.7813 105.889 90.7433 105.751 90.7384 105.609V35.4155C90.7384 35.1275 90.9131 35.0331 91.1302 35.1558Z" fill="#E0E0E0"/>
<g style="mix-blend-mode:hard-light" opacity="0.7">
<path d="M87.7017 93.7241C87.7021 93.501 87.6831 93.2783 87.6451 93.0585C87.6451 93.0066 87.6121 92.8414 87.6026 92.8084C87.184 90.9412 86.0415 89.3166 84.426 88.2912L78.6957 84.9871L78.6438 84.9634C78.0259 84.5678 77.3128 84.3457 76.5795 84.3206C75.8462 84.2954 75.1196 84.4681 74.4761 84.8206C73.8325 85.173 73.2956 85.6922 72.9219 86.3236C72.5481 86.955 72.3512 87.6754 72.3518 88.4092C72.3531 88.6324 72.3736 88.855 72.4132 89.0747C72.4246 89.1589 72.4403 89.2424 72.4604 89.3249C72.8751 91.1898 74.0124 92.8143 75.6229 93.8421L81.3579 97.1462L81.4051 97.1698C82.0231 97.5667 82.7366 97.7898 83.4706 97.8156C84.2046 97.8414 84.9321 97.6689 85.5764 97.3163C86.2207 96.9637 86.7581 96.444 87.1321 95.8119C87.5061 95.1798 87.7029 94.4586 87.7017 93.7241Z" fill="#FAFAFA"/>
</g>
<path d="M75.3973 86.6342C75.3973 88.5931 76.8653 91.024 78.6731 92.0671L84.4034 95.3712C86.2112 96.4144 87.6792 95.6733 87.6792 93.7145C87.6792 91.7556 86.2112 89.3247 84.4034 88.2815L78.6731 84.9774C76.8464 83.939 75.3973 84.6895 75.3973 86.6342Z" fill="#E0E0E0"/>
<path d="M76.2511 84.3213C75.1967 84.3639 74.1996 84.8127 73.4685 85.5737C72.7374 86.3347 72.329 87.3489 72.3286 88.4042C72.3299 88.6274 72.3504 88.8501 72.39 89.0698C72.4014 89.1539 72.4172 89.2374 72.4372 89.3199C72.8022 90.9198 73.689 92.3528 74.9577 93.3934C73.3765 91.2033 72.4844 89.8061 72.8667 87.6348C73.0247 86.8029 73.4338 86.0394 74.0389 85.4469C74.644 84.8545 75.416 84.4617 76.2511 84.3213Z" fill="white"/>
<path d="M78.9748 94.5307C78.7317 94.3566 78.5389 94.1212 78.4163 93.8484C78.2936 93.5757 78.2452 93.2753 78.2762 92.9778C78.321 92.1475 78.5611 91.3395 78.977 90.6194C79.3928 89.8993 79.9726 89.2874 80.6693 88.8335C80.9112 88.6572 81.1957 88.5486 81.4935 88.5187C81.7914 88.4889 82.0918 88.5389 82.3639 88.6636L85.4414 90.4478C86.22 90.8991 86.7875 91.6412 87.019 92.5109C87.2505 93.3807 87.127 94.3067 86.6757 95.0854C86.2244 95.864 85.4823 96.4315 84.6126 96.663C83.7429 96.8945 82.8168 96.771 82.0382 96.3197L78.9748 94.5307Z" fill="#F5F5F5"/>
<path d="M74.7305 92.0763C73.9707 91.6166 73.4213 90.8773 73.2003 90.0171C72.9793 89.157 73.1042 88.2444 73.5484 87.4754C73.9925 86.7063 74.7205 86.1419 75.576 85.9035C76.4315 85.665 77.3464 85.7713 78.1243 86.1997L82.3725 88.6637C82.1004 88.5389 81.8 88.4889 81.5022 88.5188C81.2043 88.5487 80.9198 88.6573 80.6779 88.8336C79.9812 89.2875 79.4014 89.8993 78.9856 90.6194C78.5698 91.3395 78.3297 92.1476 78.2848 92.9779C78.2539 93.2753 78.3022 93.5757 78.4249 93.8485C78.5476 94.1212 78.7403 94.3566 78.9834 94.5308L74.7305 92.0763Z" fill="#BD120A"/>
<path opacity="0.4" d="M75.497 87.1016C75.3255 87.3991 75.279 87.7524 75.3674 88.0841C75.4559 88.4158 75.6722 88.699 75.969 88.8716L81.0951 91.8454C81.5272 91.1316 81.7693 90.3191 81.7983 89.4853C81.7983 89.4003 81.7983 89.3248 81.7983 89.2493L77.2764 86.6249C77.1286 86.5381 76.965 86.4815 76.7951 86.4585C76.6253 86.4355 76.4525 86.4465 76.2869 86.4909C76.1214 86.5353 75.9663 86.6121 75.8306 86.7169C75.695 86.8218 75.5816 86.9525 75.497 87.1016Z" fill="white"/>
<path d="M78.9748 94.5307C78.7317 94.3566 78.5389 94.1212 78.4163 93.8484C78.2936 93.5757 78.2452 93.2753 78.2762 92.9778C78.321 92.1475 78.5611 91.3395 78.977 90.6194C79.3928 89.8993 79.9726 89.2874 80.6693 88.8335C80.9112 88.6572 81.1957 88.5486 81.4935 88.5187C81.7914 88.4889 82.0918 88.5389 82.3639 88.6636L85.4414 90.4478C86.22 90.8991 86.7875 91.6412 87.019 92.5109C87.2505 93.3807 87.127 94.3067 86.6757 95.0854C86.2244 95.864 85.4823 96.4315 84.6126 96.663C83.7429 96.8945 82.8168 96.771 82.0382 96.3197L78.9748 94.5307Z" fill="#F5F5F5"/>
<path opacity="0.1" d="M80.6697 88.8338C79.973 89.2877 79.3932 89.8996 78.9774 90.6197C78.5615 91.3398 78.3215 92.1478 78.2766 92.9781C78.2456 93.2756 78.294 93.576 78.4167 93.8487C78.5394 94.1215 78.7321 94.3569 78.9752 94.5311L78.7345 94.3895L78.5504 94.2856C78.3065 94.1121 78.1133 93.8768 77.9905 93.6039C77.8677 93.331 77.8198 93.0303 77.8518 92.7327C77.8966 91.9024 78.1367 91.0943 78.5526 90.3742C78.9684 89.6541 79.5482 89.0423 80.2449 88.5884C80.4868 88.4121 80.7713 88.3035 81.0691 88.2736C81.3669 88.2437 81.6674 88.2937 81.9394 88.4185L82.3643 88.6639C82.0922 88.5392 81.7918 88.4892 81.4939 88.5191C81.1961 88.5489 80.9116 88.6576 80.6697 88.8338Z" fill="black"/>
<path d="M87.1123 93.0254C87.1825 93.6487 87.0781 94.2792 86.8108 94.8466C86.5434 95.414 86.1237 95.8959 85.5984 96.2386C85.0731 96.5813 84.4629 96.7713 83.8359 96.7873C83.2089 96.8034 82.5898 96.6449 82.0476 96.3296L78.9748 94.5406C78.7317 94.3664 78.5389 94.131 78.4163 93.8583C78.2936 93.5855 78.2452 93.2852 78.2762 92.9877C78.2795 92.6382 78.3287 92.2907 78.4225 91.954L83.5628 94.9277C85.2526 95.8906 87.0934 94.13 87.1123 93.0254Z" fill="#E0E0E0"/>
<path d="M85.9415 93.1529C85.8564 93.3003 85.7432 93.4295 85.6081 93.5331C85.473 93.6366 85.3189 93.7125 85.1544 93.7563C84.99 93.8002 84.8185 93.8112 84.6498 93.7886C84.4811 93.7661 84.3186 93.7104 84.1714 93.6249L78.9792 90.6182C79.3831 89.8878 79.9663 89.2721 80.6738 88.8293C80.741 88.7894 80.8104 88.7532 80.8815 88.7207L85.4742 91.3782C85.7714 91.5516 85.9877 91.836 86.0753 92.1688C86.1629 92.5016 86.1148 92.8556 85.9415 93.1529Z" fill="white"/>
<path opacity="0.1" d="M73.7312 87.0871C73.769 87.0351 73.8115 86.988 73.8539 86.936L73.9436 86.8322C73.9767 86.7944 74.0144 86.7614 74.0522 86.7236L74.1655 86.6103L74.2316 86.5584C74.4101 86.4056 74.6048 86.2726 74.8121 86.1619L75.0434 86.0486C74.0994 86.6245 73.4905 89.0931 75.1803 90.0702C75.7562 90.4053 76.62 90.9198 78.4089 91.9583C78.315 92.2949 78.2658 92.6425 78.2626 92.992C78.2316 93.2895 78.2799 93.5898 78.4026 93.8626C78.5253 94.1353 78.718 94.3708 78.9612 94.5449L74.713 92.0904C73.9348 91.6394 73.3672 90.8982 73.1345 90.0294C72.9018 89.1605 73.023 88.2349 73.4716 87.4552C73.5283 87.3656 73.5849 87.2759 73.6463 87.1909L73.7312 87.0871Z" fill="black"/>
<g style="mix-blend-mode:hard-light" opacity="0.7">
<path d="M109.16 106.015C109.16 105.792 109.142 105.57 109.108 105.349C109.108 105.297 109.07 105.132 109.061 105.099C108.644 103.232 107.504 101.608 105.889 100.582L100.154 97.2779L100.102 97.2543C99.4842 96.8586 98.7712 96.6365 98.0379 96.6114C97.3046 96.5863 96.578 96.759 95.9344 97.1114C95.2909 97.4639 94.754 97.983 94.3803 98.6144C94.0065 99.2459 93.8096 99.9663 93.8102 100.7C93.8115 100.923 93.832 101.146 93.8715 101.366C93.8715 101.413 93.9046 101.54 93.9188 101.616C94.3325 103.481 95.47 105.106 97.0812 106.133L102.816 109.437H102.863C103.481 109.834 104.195 110.057 104.929 110.083C105.663 110.109 106.39 109.936 107.035 109.584C107.679 109.231 108.216 108.711 108.59 108.079C108.964 107.447 109.161 106.726 109.16 105.991V106.015Z" fill="#FAFAFA"/>
</g>
<path d="M96.8829 98.9256C96.8829 100.884 98.3462 103.32 100.154 104.363L105.889 107.667C107.692 108.71 109.16 107.969 109.16 106.011C109.16 104.052 107.692 101.621 105.889 100.578L100.154 97.2735C98.3462 96.2304 96.8829 96.962 96.8829 98.9256Z" fill="#E0E0E0"/>
<path d="M97.7326 96.6121C96.6786 96.6559 95.6822 97.1051 94.9514 97.8658C94.2205 98.6265 93.8117 99.6401 93.8102 100.695C93.8115 100.918 93.832 101.141 93.8715 101.361C93.8715 101.408 93.9046 101.535 93.9187 101.611C94.2838 103.211 95.1705 104.644 96.4393 105.684C94.8628 103.494 93.9659 102.097 94.3483 99.9304C94.5067 99.0982 94.9158 98.3343 95.5207 97.7412C96.1256 97.148 96.8974 96.7541 97.7326 96.6121Z" fill="white"/>
<path d="M100.448 106.822C100.205 106.649 100.012 106.414 99.8897 106.142C99.767 105.87 99.7184 105.571 99.749 105.274C99.7939 104.443 100.034 103.634 100.45 102.913C100.866 102.192 101.445 101.58 102.142 101.125C102.384 100.949 102.669 100.84 102.966 100.81C103.264 100.78 103.565 100.83 103.837 100.955L106.914 102.739C107.3 102.962 107.638 103.259 107.909 103.612C108.18 103.965 108.378 104.369 108.493 104.799C108.608 105.229 108.637 105.678 108.579 106.119C108.521 106.561 108.376 106.986 108.153 107.372C107.93 107.758 107.634 108.095 107.28 108.366C106.927 108.637 106.524 108.836 106.093 108.951C105.663 109.066 105.215 109.095 104.773 109.037C104.332 108.979 103.906 108.834 103.52 108.611L100.448 106.822Z" fill="#F5F5F5"/>
<path d="M96.1996 104.368C95.421 103.918 94.853 103.177 94.6206 102.308C94.3883 101.439 94.5106 100.514 94.9606 99.7349C95.4107 98.9562 96.1516 98.3882 97.0204 98.1559C97.8892 97.9235 98.8148 98.0458 99.5934 98.4958L103.842 100.955C103.569 100.83 103.269 100.78 102.971 100.81C102.673 100.84 102.389 100.949 102.147 101.125C101.45 101.58 100.87 102.193 100.455 102.913C100.039 103.634 99.7988 104.443 99.7539 105.274C99.7233 105.571 99.7719 105.87 99.8946 106.142C100.017 106.414 100.21 106.649 100.453 106.822L96.1996 104.368Z" fill="#BD120A"/>
<path opacity="0.4" d="M96.9771 99.3926C96.8916 99.5397 96.836 99.7023 96.8134 99.871C96.7909 100.04 96.8018 100.211 96.8457 100.376C96.8895 100.54 96.9654 100.694 97.0689 100.829C97.1725 100.964 97.3017 101.078 97.4491 101.163L102.575 104.141C103.006 103.427 103.248 102.615 103.278 101.781C103.278 101.701 103.278 101.62 103.278 101.545L98.7566 98.9205C98.609 98.8336 98.4457 98.7767 98.276 98.7534C98.1063 98.7301 97.9337 98.7407 97.7682 98.7846C97.6026 98.8285 97.4474 98.9048 97.3116 99.0092C97.1758 99.1136 97.0621 99.2439 96.9771 99.3926Z" fill="white"/>
<path d="M100.448 106.822C100.205 106.649 100.012 106.414 99.8897 106.142C99.767 105.87 99.7184 105.571 99.749 105.274C99.7939 104.443 100.034 103.634 100.45 102.913C100.866 102.192 101.445 101.58 102.142 101.125C102.384 100.949 102.669 100.84 102.966 100.81C103.264 100.78 103.565 100.83 103.837 100.955L106.914 102.739C107.3 102.962 107.638 103.259 107.909 103.612C108.18 103.965 108.378 104.369 108.493 104.799C108.608 105.229 108.637 105.678 108.579 106.119C108.521 106.561 108.376 106.986 108.153 107.372C107.93 107.758 107.634 108.095 107.28 108.366C106.927 108.637 106.524 108.836 106.093 108.951C105.663 109.066 105.215 109.095 104.773 109.037C104.332 108.979 103.906 108.834 103.52 108.611L100.448 106.822Z" fill="#F5F5F5"/>
<path opacity="0.1" d="M102.151 101.125C101.454 101.58 100.874 102.193 100.459 102.914C100.043 103.635 99.8027 104.443 99.7578 105.274C99.7273 105.571 99.7758 105.87 99.8985 106.142C100.021 106.414 100.214 106.649 100.456 106.822L100.216 106.686L100.032 106.577C99.7881 106.404 99.5951 106.17 99.4723 105.898C99.3495 105.625 99.3015 105.326 99.333 105.029C99.3779 104.198 99.618 103.389 100.034 102.668C100.45 101.947 101.029 101.335 101.726 100.88C101.968 100.703 102.253 100.595 102.55 100.565C102.848 100.535 103.149 100.585 103.421 100.71L103.846 100.955C103.573 100.831 103.273 100.781 102.975 100.81C102.677 100.84 102.393 100.949 102.151 101.125Z" fill="black"/>
<path d="M108.595 105.316C108.665 105.94 108.56 106.57 108.293 107.137C108.026 107.705 107.606 108.187 107.081 108.529C106.555 108.872 105.945 109.062 105.318 109.078C104.691 109.094 104.072 108.936 103.53 108.62L100.448 106.822C100.205 106.649 100.012 106.414 99.8897 106.142C99.767 105.87 99.7184 105.571 99.749 105.274C99.7523 104.923 99.8015 104.574 99.8953 104.235C101.694 105.269 103.889 106.544 105.036 107.209C106.735 108.186 108.576 106.426 108.595 105.316Z" fill="#E0E0E0"/>
<path d="M107.423 105.458C107.338 105.605 107.225 105.735 107.09 105.838C106.955 105.942 106.8 106.018 106.636 106.061C106.472 106.105 106.3 106.116 106.131 106.094C105.963 106.071 105.8 106.016 105.653 105.93L100.461 102.923C100.865 102.193 101.448 101.577 102.155 101.134C102.226 101.092 102.297 101.059 102.363 101.026L106.956 103.683C107.252 103.858 107.467 104.142 107.555 104.474C107.642 104.807 107.595 105.16 107.423 105.458Z" fill="white"/>
<path opacity="0.1" d="M95.2119 99.3832C95.2502 99.3308 95.2912 99.2803 95.3346 99.2321C95.362 99.1954 95.3919 99.1607 95.4243 99.1283L95.5329 99.015C95.5699 98.9764 95.6093 98.9401 95.6509 98.9064C95.6732 98.884 95.6986 98.8649 95.7264 98.8498C95.9049 98.6955 96.0995 98.5609 96.307 98.4486C96.3778 98.4108 96.4533 98.3731 96.5336 98.34C95.5895 98.9112 94.9806 101.385 96.6704 102.357C97.2463 102.692 98.1148 103.206 99.899 104.245C99.8051 104.583 99.7559 104.932 99.7527 105.283C99.7221 105.58 99.7706 105.88 99.8933 106.152C100.016 106.424 100.209 106.658 100.451 106.832L96.2031 104.377C95.4248 103.926 94.8573 103.185 94.6255 102.315C94.3936 101.446 94.5162 100.521 94.9665 99.7419C95.0187 99.651 95.0754 99.5628 95.1364 99.4776L95.2119 99.3832Z" fill="black"/>
<g style="mix-blend-mode:hard-light" opacity="0.7">
<path d="M87.7017 76.004C87.7021 75.7794 87.6831 75.5551 87.6451 75.3338C87.6451 75.2865 87.6121 75.1166 87.6026 75.0883C87.3961 74.1629 87.0093 73.2872 86.4642 72.5113C85.9192 71.7354 85.2266 71.0745 84.426 70.5664L78.6957 67.2623H78.6438C78.0259 66.8666 77.3128 66.6445 76.5795 66.6194C75.8462 66.5943 75.1196 66.767 74.4761 67.1194C73.8325 67.4719 73.2956 67.991 72.9219 68.6225C72.5481 69.2539 72.3512 69.9743 72.3518 70.708C72.3531 70.9312 72.3736 71.1539 72.4132 71.3735C72.4237 71.4578 72.4395 71.5414 72.4604 71.6237C72.8749 73.49 74.0121 75.116 75.6229 76.1456L81.3579 79.4497H81.4051C82.0231 79.8467 82.7366 80.0697 83.4706 80.0955C84.2046 80.1213 84.9321 79.9488 85.5764 79.5963C86.2207 79.2437 86.7581 78.724 87.1321 78.0918C87.5061 77.4597 87.7029 76.7385 87.7017 76.004Z" fill="#FAFAFA"/>
</g>
<path d="M75.3973 68.9142C75.3973 70.8684 76.8653 73.304 78.6731 74.3471L84.4034 77.6512C86.2112 78.6944 87.6792 77.9533 87.6792 75.9992C87.6792 74.045 86.2112 71.6094 84.4034 70.5616L78.6731 67.2574C76.8464 66.2143 75.3973 66.9554 75.3973 68.9142Z" fill="#E0E0E0"/>
<path d="M76.2511 66.597C75.197 66.6408 74.2007 67.0899 73.4698 67.8507C72.739 68.6114 72.3301 69.625 72.3286 70.6799C72.3299 70.9031 72.3504 71.1258 72.39 71.3455C72.4006 71.4297 72.4163 71.5133 72.4372 71.5956C72.8022 73.1955 73.689 74.6285 74.9577 75.6691C73.3765 73.479 72.4844 72.0818 72.8667 69.9153C73.0251 69.083 73.4342 68.3191 74.0392 67.726C74.6441 67.1329 75.4159 66.739 76.2511 66.597Z" fill="white"/>
<path d="M78.9753 76.8063C78.7281 76.6341 78.5316 76.3988 78.4062 76.1248C78.2809 75.8509 78.2312 75.5483 78.2625 75.2487C78.3074 74.4177 78.5475 73.609 78.9633 72.8882C79.379 72.1673 79.9588 71.5546 80.6557 71.0997C80.8978 70.9237 81.1825 70.8156 81.4804 70.7866C81.7784 70.7575 82.0786 70.8086 82.3502 70.9344L85.4277 72.714C85.8142 72.9365 86.1531 73.233 86.425 73.5864C86.6969 73.9399 86.8965 74.3435 87.0124 74.7741C87.1284 75.2048 87.1583 75.654 87.1006 76.0963C87.043 76.5385 86.8987 76.965 86.6762 77.3515C86.4537 77.738 86.1572 78.0768 85.8037 78.3488C85.4502 78.6207 85.0466 78.8203 84.616 78.9362C84.1854 79.0521 83.7361 79.0821 83.2939 79.0244C82.8517 78.9667 82.4251 78.8225 82.0387 78.6L78.9753 76.8063Z" fill="#F5F5F5"/>
<path d="M74.7308 74.3521C74.3452 74.1292 74.0073 73.8326 73.7364 73.4792C73.4655 73.1258 73.2668 72.7225 73.1518 72.2923C73.0367 71.8621 73.0075 71.4134 73.0658 70.9719C73.1242 70.5305 73.2689 70.1048 73.4917 69.7192C73.7146 69.3337 74.0112 68.9958 74.3646 68.7249C74.718 68.4539 75.1213 68.2553 75.5515 68.1402C75.9817 68.0252 76.4304 67.996 76.8719 68.0543C77.3133 68.1126 77.739 68.2574 78.1246 68.4802L82.3727 70.9441C82.1011 70.8182 81.8009 70.7672 81.503 70.7962C81.205 70.8253 80.9203 70.9334 80.6782 71.1093C79.9782 71.5607 79.3946 72.1708 78.9747 72.89C78.5548 73.6093 78.3104 74.4175 78.2614 75.2489C78.2304 75.5457 78.2787 75.8454 78.4014 76.1175C78.5241 76.3895 78.7169 76.624 78.96 76.7971L74.7308 74.3521Z" fill="#BD120A"/>
<path opacity="0.4" d="M75.4973 69.3771C75.3256 69.6753 75.2789 70.0293 75.3674 70.3618C75.4558 70.6943 75.6722 70.9783 75.9693 71.1518L81.0954 74.1255C81.5269 73.4116 81.769 72.5992 81.7987 71.7655C81.7987 71.6852 81.7987 71.6097 81.7987 71.5342L77.2768 68.9098C77.1295 68.8226 76.9664 68.7655 76.7969 68.7418C76.6275 68.7181 76.4549 68.7283 76.2894 68.7718C76.1239 68.8152 75.9687 68.8911 75.8327 68.995C75.6967 69.0989 75.5827 69.2288 75.4973 69.3771Z" fill="white"/>
<path d="M78.9753 76.8063C78.7281 76.6341 78.5316 76.3988 78.4062 76.1248C78.2809 75.8509 78.2312 75.5483 78.2625 75.2487C78.3074 74.4177 78.5475 73.609 78.9633 72.8882C79.379 72.1673 79.9588 71.5546 80.6557 71.0997C80.8978 70.9237 81.1825 70.8156 81.4804 70.7866C81.7784 70.7575 82.0786 70.8086 82.3502 70.9344L85.4277 72.714C85.8142 72.9365 86.1531 73.233 86.425 73.5864C86.6969 73.9399 86.8965 74.3435 87.0124 74.7741C87.1284 75.2048 87.1583 75.654 87.1006 76.0963C87.043 76.5385 86.8987 76.965 86.6762 77.3515C86.4537 77.738 86.1572 78.0768 85.8037 78.3488C85.4502 78.6207 85.0466 78.8203 84.616 78.9362C84.1854 79.0521 83.7361 79.0821 83.2939 79.0244C82.8517 78.9667 82.4251 78.8225 82.0387 78.6L78.9753 76.8063Z" fill="#F5F5F5"/>
<path opacity="0.1" d="M80.6698 71.11C79.9716 71.5624 79.3898 72.1729 78.9716 72.8921C78.5533 73.6113 78.3104 74.4189 78.2625 75.2495C78.2314 75.5463 78.2797 75.8461 78.4025 76.1181C78.5252 76.3901 78.718 76.6247 78.9611 76.7977L78.7345 76.6656L78.5504 76.557C78.3066 76.3846 78.1133 76.1502 77.9904 75.878C77.8676 75.6058 77.8198 75.3057 77.8519 75.0088C77.8967 74.1778 78.1368 73.3692 78.5526 72.6483C78.9684 71.9275 79.5482 71.3147 80.245 70.8598C80.4871 70.6838 80.7719 70.5757 81.0698 70.5467C81.3677 70.5176 81.6679 70.5687 81.9395 70.6946L82.3643 70.94C82.0924 70.8148 81.7919 70.7646 81.4939 70.7944C81.196 70.8243 80.9115 70.9332 80.6698 71.11Z" fill="black"/>
<path d="M87.1123 75.301C87.1825 75.9243 87.0781 76.5548 86.8107 77.1222C86.5434 77.6896 86.1237 78.1715 85.5984 78.5142C85.0731 78.8569 84.4629 79.0469 83.8359 79.0629C83.2089 79.079 82.5897 78.9205 82.0476 78.6052L78.9748 76.8115C78.7268 76.6389 78.5298 76.4028 78.4044 76.1279C78.279 75.8531 78.2299 75.5495 78.262 75.2491C78.2656 74.8981 78.3148 74.549 78.4083 74.2107L83.5486 77.1844C85.2526 78.1709 87.0934 76.415 87.1123 75.301Z" fill="#E0E0E0"/>
<path d="M85.9415 75.4328C85.7688 75.7296 85.4857 75.9459 85.1539 76.0343C84.8222 76.1228 84.4689 76.0762 84.1714 75.9048L78.9792 72.8981C79.3817 72.1653 79.965 71.5478 80.6738 71.1044L80.8815 70.9958L85.4742 73.6533C85.7718 73.8276 85.9881 74.1129 86.0757 74.4464C86.1633 74.78 86.115 75.1347 85.9415 75.4328Z" fill="white"/>
<path opacity="0.1" d="M73.7309 69.368C73.7692 69.3156 73.8102 69.2652 73.8536 69.217C73.881 69.1802 73.9109 69.1455 73.9433 69.1131C73.9771 69.0746 74.0134 69.0384 74.0519 69.0046L74.1652 68.8913L74.2312 68.8394C74.4097 68.685 74.6044 68.5505 74.8118 68.4382L75.0431 68.3296C74.0991 68.9007 73.4902 71.3741 75.18 72.3512C75.7559 72.6816 76.6196 73.1961 78.4086 74.2392C78.3174 74.5684 78.2682 74.9078 78.2623 75.2493C78.2312 75.5461 78.2795 75.8459 78.4022 76.1179C78.525 76.3899 78.7177 76.6245 78.9608 76.7976L74.7127 74.3431C73.9348 73.8929 73.3673 73.1526 73.1346 72.2845C72.9018 71.4164 73.0229 70.4915 73.4713 69.7126C73.5279 69.6182 73.5846 69.5332 73.6459 69.4483C73.6717 69.4189 73.7002 69.3921 73.7309 69.368Z" fill="black"/>
<g style="mix-blend-mode:hard-light" opacity="0.7">
<path d="M109.16 88.2956C109.16 88.0712 109.142 87.8472 109.108 87.6254C109.108 87.5782 109.07 87.413 109.061 87.3799C108.855 86.4554 108.469 85.5805 107.925 84.8054C107.381 84.0303 106.689 83.3701 105.889 82.8627L100.154 79.5586L100.102 79.535C99.4836 79.1407 98.7704 78.92 98.0373 78.8958C97.3041 78.8717 96.578 79.045 95.9348 79.3978C95.2916 79.7505 94.7551 80.2696 94.3813 80.9007C94.0075 81.5319 93.8103 82.2519 93.8102 82.9854C93.8114 83.2071 93.832 83.4282 93.8715 83.6463C93.8715 83.6982 93.9046 83.8256 93.9187 83.8964C94.3323 85.7631 95.4697 87.3894 97.0812 88.4183L102.816 91.7224L102.863 91.7461C103.481 92.143 104.195 92.3661 104.929 92.3919C105.663 92.4176 106.39 92.2452 107.035 91.8926C107.679 91.54 108.216 91.0203 108.59 90.3882C108.964 89.756 109.161 89.0348 109.16 88.3003V88.2956Z" fill="#FAFAFA"/>
</g>
<path d="M96.8829 81.2061C96.8829 83.165 98.3462 85.5959 100.154 86.639L105.889 89.9431C107.692 90.9863 109.16 90.2452 109.16 88.2911C109.16 86.3369 107.692 83.9013 105.889 82.8582L100.154 79.5541C98.3462 78.5062 96.8829 79.2472 96.8829 81.2061Z" fill="#E0E0E0"/>
<path d="M97.7326 78.8931C96.6782 78.9357 95.6812 79.3845 94.9501 80.1455C94.219 80.9065 93.8105 81.9207 93.8102 82.976C93.8114 83.1976 93.832 83.4187 93.8715 83.6368C93.8715 83.6887 93.9046 83.8162 93.9187 83.887C94.2825 85.4874 95.1694 86.9208 96.4393 87.9605C94.8628 85.7703 93.9659 84.3779 94.3483 82.2066C94.5063 81.3747 94.9154 80.6111 95.5204 80.0187C96.1255 79.4263 96.8976 79.0335 97.7326 78.8931Z" fill="white"/>
<path d="M100.448 89.1025C100.205 88.9283 100.012 88.6929 99.8893 88.4201C99.7666 88.1474 99.7183 87.847 99.7492 87.5495C99.7945 86.7186 100.035 85.9101 100.45 85.1893C100.866 84.4685 101.446 83.8557 102.142 83.4005C102.384 83.2245 102.669 83.1164 102.967 83.0874C103.265 83.0584 103.565 83.1094 103.837 83.2353L106.914 85.0148C107.31 85.2326 107.658 85.5271 107.938 85.8811C108.218 86.2351 108.425 86.6414 108.547 87.0763C108.668 87.5113 108.701 87.966 108.644 88.4139C108.588 88.8618 108.442 89.2939 108.216 89.6849C107.991 90.0759 107.689 90.4179 107.329 90.6909C106.97 90.9639 106.559 91.1623 106.122 91.2747C105.685 91.387 105.229 91.411 104.783 91.3452C104.336 91.2794 103.907 91.1251 103.521 90.8914L100.448 89.1025Z" fill="#F5F5F5"/>
<path d="M96.1996 86.6434C95.421 86.1934 94.853 85.4524 94.6206 84.5836C94.3883 83.7148 94.5106 82.7892 94.9606 82.0106C95.4107 81.2319 96.1516 80.6639 97.0204 80.4315C97.8892 80.1992 98.8148 80.3215 99.5934 80.7715L103.842 83.2355C103.57 83.1096 103.27 83.0585 102.972 83.0875C102.674 83.1166 102.389 83.2247 102.147 83.4006C101.45 83.8558 100.871 84.4686 100.455 85.1894C100.039 85.9102 99.7992 86.7188 99.7539 87.5497C99.723 87.8471 99.7713 88.1475 99.894 88.4203C100.017 88.693 100.209 88.9284 100.453 89.1026L96.1996 86.6434Z" fill="#BD120A"/>
<path opacity="0.4" d="M96.9777 81.6682C96.8061 81.9664 96.7594 82.3204 96.8478 82.6529C96.9363 82.9854 97.1527 83.2694 97.4498 83.443L102.576 86.4167C103.007 85.7027 103.249 84.8903 103.279 84.0566C103.279 83.9764 103.279 83.9008 103.279 83.8253L98.7572 81.2009C98.6098 81.1144 98.4467 81.0578 98.2774 81.0344C98.108 81.0111 97.9357 81.0214 97.7704 81.0648C97.6051 81.1083 97.4499 81.1839 97.3139 81.2875C97.1779 81.391 97.0636 81.5204 96.9777 81.6682Z" fill="white"/>
<path d="M100.448 89.1025C100.205 88.9283 100.012 88.6929 99.8893 88.4201C99.7666 88.1474 99.7183 87.847 99.7492 87.5495C99.7945 86.7186 100.035 85.9101 100.45 85.1893C100.866 84.4685 101.446 83.8557 102.142 83.4005C102.384 83.2245 102.669 83.1164 102.967 83.0874C103.265 83.0584 103.565 83.1094 103.837 83.2353L106.914 85.0148C107.31 85.2326 107.658 85.5271 107.938 85.8811C108.218 86.2351 108.425 86.6414 108.547 87.0763C108.668 87.5113 108.701 87.966 108.644 88.4139C108.588 88.8618 108.442 89.2939 108.216 89.6849C107.991 90.0759 107.689 90.4179 107.329 90.6909C106.97 90.9639 106.559 91.1623 106.122 91.2747C105.685 91.387 105.229 91.411 104.783 91.3452C104.336 91.2794 103.907 91.1251 103.521 90.8914L100.448 89.1025Z" fill="#F5F5F5"/>
<path opacity="0.1" d="M102.15 83.4003C101.454 83.8555 100.874 84.4683 100.459 85.1891C100.043 85.9099 99.8025 86.7184 99.7573 87.5493C99.7263 87.8468 99.7747 88.1471 99.8973 88.4199C100.02 88.6926 100.213 88.9281 100.456 89.1022L100.215 88.9606L100.031 88.8521C99.7868 88.68 99.5932 88.4456 99.4704 88.1733C99.3475 87.901 99.2999 87.6008 99.3325 87.3039C99.3777 86.473 99.6179 85.6644 100.034 84.9436C100.449 84.2228 101.029 83.61 101.726 83.1548C101.968 82.9789 102.252 82.8708 102.55 82.8417C102.848 82.8127 103.149 82.8637 103.42 82.9896L103.845 83.2351C103.573 83.1092 103.273 83.0581 102.975 83.0872C102.677 83.1162 102.393 83.2243 102.15 83.4003Z" fill="black"/>
<path d="M108.595 87.5972C108.674 88.3099 108.524 89.0294 108.165 89.6505C107.715 90.4296 106.974 90.998 106.105 91.2308C105.235 91.4636 104.309 91.3417 103.53 90.8919L100.448 89.1029C100.205 88.9287 100.012 88.6933 99.8893 88.4206C99.7666 88.1478 99.7183 87.8474 99.7492 87.55C99.7528 87.199 99.802 86.8499 99.8955 86.5115L105.036 89.4852C106.735 90.4623 108.576 88.7064 108.595 87.5972Z" fill="#E0E0E0"/>
<path d="M107.423 87.7241C107.338 87.8716 107.225 88.0008 107.09 88.1043C106.955 88.2079 106.8 88.2837 106.636 88.3276C106.472 88.3714 106.3 88.3824 106.131 88.3598C105.963 88.3373 105.8 88.2817 105.653 88.1962L100.461 85.1894C100.865 84.4576 101.448 83.8404 102.155 83.3958L102.363 83.2919L106.956 85.9494C107.103 86.0348 107.233 86.1486 107.336 86.2842C107.44 86.4198 107.515 86.5745 107.559 86.7395C107.602 86.9045 107.613 87.0764 107.589 87.2454C107.566 87.4144 107.509 87.5771 107.423 87.7241Z" fill="white"/>
<path opacity="0.1" d="M95.2127 81.6588C95.251 81.6064 95.292 81.556 95.3354 81.5078C95.3638 81.4748 95.3921 81.437 95.4251 81.404L95.5337 81.2954L95.6517 81.1821L95.713 81.1302C95.8916 80.9773 96.0863 80.8444 96.2936 80.7337C96.3662 80.6903 96.4419 80.6525 96.5202 80.6204C95.5762 81.1916 94.9673 83.6649 96.6571 84.642C97.2329 84.9771 98.1014 85.4916 99.8857 86.5301C99.7921 86.8684 99.7429 87.2175 99.7393 87.5685C99.7084 87.866 99.7567 88.1663 99.8794 88.4391C100.002 88.7118 100.195 88.9473 100.438 89.1214L96.1898 86.6622C95.8041 86.4398 95.4661 86.1435 95.1951 85.7903C94.9241 85.437 94.7255 85.0337 94.6106 84.6036C94.4957 84.1735 94.4668 83.7249 94.5256 83.2835C94.5844 82.8422 94.7296 82.4168 94.9531 82.0317C95.0053 81.9409 95.062 81.8526 95.123 81.7674L95.2127 81.6588Z" fill="black"/>
<g style="mix-blend-mode:hard-light" opacity="0.7">
<path d="M87.7017 58.2807C87.7021 58.0576 87.6831 57.835 87.6451 57.6152C87.6451 57.5632 87.6121 57.398 87.6026 57.365C87.184 55.4979 86.0415 53.8732 84.426 52.8478L78.6957 49.5437L78.6438 49.5201C78.0259 49.1244 77.3128 48.9024 76.5795 48.8772C75.8462 48.8521 75.1196 49.0248 74.4761 49.3772C73.8325 49.7297 73.2956 50.2488 72.9219 50.8803C72.5481 51.5117 72.3512 52.2321 72.3518 52.9658C72.3531 53.189 72.3736 53.4117 72.4132 53.6314C72.4246 53.7155 72.4403 53.799 72.4604 53.8815C72.8751 55.7465 74.0124 57.3709 75.6229 58.3987L81.3579 61.7028H81.4051C82.0231 62.0997 82.7366 62.3228 83.4706 62.3486C84.2046 62.3744 84.9321 62.2019 85.5764 61.8493C86.2207 61.4968 86.7581 60.9771 87.1321 60.3449C87.5061 59.7128 87.7029 58.9916 87.7017 58.2571V58.2807Z" fill="#FAFAFA"/>
</g>
<path d="M75.3973 51.1763C75.3973 53.1352 76.8653 55.566 78.6731 56.6092L84.4034 59.9133C86.2112 60.9565 87.6792 60.2154 87.6792 58.2565C87.6792 56.2977 86.2112 53.8668 84.4034 52.8236L78.6731 49.5195C76.8464 48.4952 75.3973 49.2363 75.3973 51.1763Z" fill="#E0E0E0"/>
<path d="M76.2511 48.8779C75.1967 48.9206 74.1996 49.3693 73.4685 50.1303C72.7374 50.8913 72.329 51.9056 72.3286 52.9609C72.3299 53.1841 72.3504 53.4067 72.39 53.6264C72.4014 53.7105 72.4172 53.794 72.4372 53.8766C72.8022 55.4764 73.689 56.9094 74.9577 57.9501C73.3765 55.7599 72.4844 54.3627 72.8667 52.1915C73.0247 51.3596 73.4338 50.596 74.0389 50.0036C74.644 49.4112 75.416 49.0183 76.2511 48.8779Z" fill="white"/>
<path d="M78.9748 59.0874C78.7317 58.9132 78.5389 58.6778 78.4163 58.405C78.2936 58.1323 78.2452 57.8319 78.2762 57.5344C78.321 56.7041 78.5611 55.8961 78.977 55.176C79.3928 54.4559 79.9726 53.8441 80.6693 53.3902C80.9112 53.2139 81.1957 53.1052 81.4935 53.0754C81.7913 53.0455 82.0918 53.0955 82.3639 53.2202L85.4414 55.0044C85.8269 55.2279 86.1647 55.5251 86.4354 55.8791C86.7061 56.2331 86.9044 56.6369 87.019 57.0676C87.1336 57.4982 87.1623 57.9472 87.1034 58.3889C87.0445 58.8307 86.8992 59.2564 86.6757 59.642C86.4523 60.0275 86.155 60.3653 85.801 60.636C85.4471 60.9067 85.0432 61.105 84.6126 61.2196C84.1819 61.3342 83.7329 61.3629 83.2912 61.304C82.8495 61.2451 82.4237 61.0998 82.0382 60.8763L78.9748 59.0874Z" fill="#F5F5F5"/>
<path d="M74.7305 56.633C73.9707 56.1732 73.4213 55.434 73.2003 54.5738C72.9793 53.7136 73.1042 52.8011 73.5484 52.032C73.9925 51.2629 74.7205 50.6986 75.576 50.4601C76.4315 50.2216 77.3464 50.328 78.1243 50.7564L82.3725 53.2203C82.1004 53.0956 81.8 53.0456 81.5022 53.0754C81.2043 53.1053 80.9198 53.214 80.6779 53.3902C79.9812 53.8441 79.4014 54.456 78.9856 55.1761C78.5698 55.8962 78.3297 56.7042 78.2848 57.5345C78.2539 57.832 78.3022 58.1324 78.4249 58.4051C78.5476 58.6779 78.7403 58.9133 78.9834 59.0875L74.7305 56.633Z" fill="#BD120A"/>
<path opacity="0.4" d="M75.497 51.6484C75.3255 51.9459 75.279 52.2992 75.3674 52.6309C75.4559 52.9627 75.6722 53.2458 75.969 53.4185L81.0951 56.3922C81.5272 55.6785 81.7693 54.8659 81.7983 54.0321C81.7983 53.9471 81.7983 53.8716 81.7983 53.7961L77.267 51.1764C77.1199 51.0909 76.9573 51.0353 76.7886 51.0127C76.6199 50.9902 76.4484 51.0012 76.284 51.045C76.1196 51.0889 75.9654 51.1647 75.8303 51.2683C75.6953 51.3718 75.582 51.501 75.497 51.6484Z" fill="white"/>
<path d="M78.9748 59.0874C78.7317 58.9132 78.5389 58.6778 78.4163 58.405C78.2936 58.1323 78.2452 57.8319 78.2762 57.5344C78.321 56.7041 78.5611 55.8961 78.977 55.176C79.3928 54.4559 79.9726 53.8441 80.6693 53.3902C80.9112 53.2139 81.1957 53.1052 81.4935 53.0754C81.7913 53.0455 82.0918 53.0955 82.3639 53.2202L85.4414 55.0044C85.8269 55.2279 86.1647 55.5251 86.4354 55.8791C86.7061 56.2331 86.9044 56.6369 87.019 57.0676C87.1336 57.4982 87.1623 57.9472 87.1034 58.3889C87.0445 58.8307 86.8992 59.2564 86.6757 59.642C86.4523 60.0275 86.155 60.3653 85.801 60.636C85.4471 60.9067 85.0432 61.105 84.6126 61.2196C84.1819 61.3342 83.7329 61.3629 83.2912 61.304C82.8495 61.2451 82.4237 61.0998 82.0382 60.8763L78.9748 59.0874Z" fill="#F5F5F5"/>
<path opacity="0.1" d="M80.6697 53.3899C79.973 53.8438 79.3932 54.4557 78.9774 55.1758C78.5615 55.8959 78.3215 56.7039 78.2766 57.5342C78.2456 57.8317 78.294 58.1321 78.4167 58.4048C78.5394 58.6776 78.7321 58.913 78.9752 59.0872L78.7345 58.9456L78.5504 58.8417C78.3065 58.6682 78.1133 58.4329 77.9905 58.16C77.8677 57.8871 77.8198 57.5863 77.8518 57.2888C77.8966 56.4585 78.1367 55.6504 78.5526 54.9303C78.9684 54.2102 79.5482 53.5984 80.2449 53.1445C80.4868 52.9682 80.7713 52.8596 81.0691 52.8297C81.3669 52.7998 81.6674 52.8498 81.9394 52.9746L82.3643 53.22C82.0922 53.0953 81.7918 53.0453 81.4939 53.0751C81.1961 53.105 80.9116 53.2137 80.6697 53.3899Z" fill="black"/>
<path d="M87.1123 57.5821C87.1825 58.2054 87.0781 58.8359 86.8108 59.4032C86.5434 59.9706 86.1237 60.4526 85.5984 60.7952C85.0731 61.1379 84.4629 61.3279 83.8359 61.344C83.2089 61.36 82.5898 61.2016 82.0476 60.8862L78.9748 59.0973C78.7317 58.9231 78.5389 58.6877 78.4163 58.4149C78.2936 58.1422 78.2452 57.8418 78.2762 57.5443C78.2795 57.1948 78.3287 56.8473 78.4225 56.5106L83.5628 59.4843C85.2526 60.4472 87.0934 58.6913 87.1123 57.5821Z" fill="#E0E0E0"/>
<path d="M85.9415 57.709C85.8564 57.8564 85.7432 57.9856 85.6081 58.0892C85.473 58.1927 85.3189 58.2686 85.1544 58.3124C84.99 58.3563 84.8185 58.3673 84.6498 58.3447C84.4811 58.3222 84.3186 58.2665 84.1714 58.181L78.9792 55.1743C79.3831 54.4439 79.9663 53.8282 80.6738 53.3854C80.741 53.3455 80.8104 53.3092 80.8815 53.2768L85.4742 55.9342C85.7714 56.1077 85.9877 56.3921 86.0753 56.7249C86.1629 57.0577 86.1148 57.4117 85.9415 57.709Z" fill="white"/>
<path opacity="0.1" d="M73.7312 51.6485L73.8539 51.4974L73.9436 51.3936L74.0522 51.285L74.1655 51.1717L74.2316 51.1198C74.4113 50.9685 74.6058 50.8357 74.8121 50.7233L75.0434 50.61C74.0994 51.1859 73.4905 53.6545 75.1803 54.6316C75.7562 54.9668 76.62 55.4812 78.4089 56.5197C78.315 56.8564 78.2658 57.2039 78.2626 57.5534C78.2316 57.8509 78.2799 58.1512 78.4026 58.424C78.5253 58.6967 78.718 58.9322 78.9612 59.1063L74.713 56.6518C73.9348 56.2008 73.3672 55.4596 73.1345 54.5908C72.9018 53.7219 73.023 52.7963 73.4716 52.0167C73.5283 51.927 73.5849 51.8373 73.6463 51.7523L73.7312 51.6485Z" fill="black"/>
<g style="mix-blend-mode:hard-light" opacity="0.7">
<path d="M109.16 70.5716C109.16 70.3487 109.142 70.1262 109.108 69.906C109.108 69.8541 109.07 69.6889 109.061 69.6558C108.644 67.7891 107.504 66.1642 105.889 65.1387L100.154 61.8346H100.102C99.4842 61.4389 98.7712 61.2168 98.0379 61.1917C97.3046 61.1665 96.578 61.3392 95.9344 61.6917C95.2909 62.0441 94.754 62.5633 94.3803 63.1947C94.0065 63.8261 93.8096 64.5465 93.8102 65.2803C93.8115 65.5035 93.832 65.7261 93.8715 65.9458C93.8715 65.993 93.9046 66.1205 93.9188 66.196C94.3325 68.0614 95.47 69.6861 97.0812 70.7132L102.816 74.0173H102.863C103.481 74.4142 104.195 74.6373 104.929 74.6631C105.663 74.6888 106.39 74.5164 107.035 74.1638C107.679 73.8112 108.216 73.2915 108.59 72.6594C108.964 72.0273 109.161 71.306 109.16 70.5716Z" fill="#FAFAFA"/>
</g>
<path d="M96.8829 63.4865C96.8829 65.4406 98.3462 67.8762 100.154 68.9194L105.889 72.2235C107.692 73.2666 109.16 72.5256 109.16 70.5667C109.16 68.6078 107.692 66.177 105.889 65.1338L100.154 61.8297C98.3462 60.7866 96.8829 61.5276 96.8829 63.4865Z" fill="#E0E0E0"/>
<path d="M97.7326 61.1688C96.6786 61.2126 95.6822 61.6617 94.9514 62.4224C94.2205 63.1832 93.8117 64.1968 93.8102 65.2517C93.8115 65.4749 93.832 65.6976 93.8715 65.9172C93.8715 65.9644 93.9046 66.0919 93.9187 66.1674C94.2838 67.7672 95.1705 69.2003 96.4393 70.2409C94.8628 68.0507 93.9659 66.6536 94.3483 64.487C94.5067 63.6548 94.9158 62.8909 95.5207 62.2978C96.1256 61.7047 96.8974 61.3107 97.7326 61.1688Z" fill="white"/>
<path d="M100.448 71.3782C100.205 71.2048 100.012 70.9702 99.8897 70.6983C99.767 70.4263 99.7184 70.1268 99.749 69.83C99.7939 68.999 100.034 68.1903 100.45 67.4695C100.866 66.7486 101.445 66.1359 102.142 65.681C102.384 65.5047 102.669 65.3961 102.966 65.3662C103.264 65.3363 103.565 65.3863 103.837 65.5111L106.914 67.2953C107.693 67.7453 108.261 68.4862 108.493 69.3551C108.726 70.2239 108.603 71.1494 108.153 71.9281C107.703 72.7068 106.962 73.2747 106.093 73.5071C105.225 73.7395 104.299 73.6172 103.52 73.1671L100.448 71.3782Z" fill="#F5F5F5"/>
<path d="M96.1996 68.9243C95.421 68.4743 94.853 67.7334 94.6206 66.8645C94.3883 65.9957 94.5106 65.0702 94.9606 64.2915C95.4107 63.5129 96.1516 62.9449 97.0204 62.7125C97.8892 62.4801 98.8148 62.6024 99.5934 63.0525L103.842 65.5117C103.569 65.3869 103.269 65.3369 102.971 65.3668C102.673 65.3967 102.389 65.5053 102.147 65.6816C101.45 66.1365 100.87 66.7492 100.455 67.4701C100.039 68.191 99.7988 68.9997 99.7539 69.8306C99.7228 70.1269 99.7706 70.4262 99.8925 70.6981C100.014 70.97 100.206 71.2048 100.448 71.3788L96.1996 68.9243Z" fill="#BD120A"/>
<path opacity="0.4" d="M96.9777 63.9492C96.8061 64.2474 96.7594 64.6014 96.8478 64.9339C96.9363 65.2664 97.1527 65.5504 97.4498 65.724L102.576 68.6977C103.007 67.9833 103.249 67.1712 103.279 66.3376C103.279 66.2573 103.279 66.1771 103.279 66.1016L98.7572 63.4772C98.6097 63.3902 98.4463 63.3334 98.2767 63.31C98.107 63.2867 97.9344 63.2973 97.7688 63.3412C97.6033 63.3851 97.4481 63.4615 97.3123 63.5658C97.1765 63.6702 97.0628 63.8005 96.9777 63.9492Z" fill="white"/>
<path d="M100.448 71.3782C100.205 71.2048 100.012 70.9702 99.8897 70.6983C99.767 70.4263 99.7184 70.1268 99.749 69.83C99.7939 68.999 100.034 68.1903 100.45 67.4695C100.866 66.7486 101.445 66.1359 102.142 65.681C102.384 65.5047 102.669 65.3961 102.966 65.3662C103.264 65.3363 103.565 65.3863 103.837 65.5111L106.914 67.2953C107.693 67.7453 108.261 68.4862 108.493 69.3551C108.726 70.2239 108.603 71.1494 108.153 71.9281C107.703 72.7068 106.962 73.2747 106.093 73.5071C105.225 73.7395 104.299 73.6172 103.52 73.1671L100.448 71.3782Z" fill="#F5F5F5"/>
<path opacity="0.1" d="M102.151 65.6818C101.454 66.1367 100.874 66.7495 100.458 67.4703C100.043 68.1912 99.8026 68.9999 99.7578 69.8308C99.7262 70.1267 99.7732 70.4257 99.8942 70.6976C100.015 70.9694 100.206 71.2045 100.447 71.379L100.206 71.2421L100.022 71.1336C99.7786 70.9608 99.5856 70.7263 99.4628 70.4542C99.34 70.1821 99.2919 69.8822 99.3235 69.5854C99.3684 68.7544 99.6085 67.9457 100.024 67.2249C100.44 66.504 101.02 65.8913 101.717 65.4364C101.959 65.2601 102.243 65.1514 102.541 65.1216C102.839 65.0917 103.139 65.1417 103.411 65.2664L103.836 65.5119C103.565 65.3889 103.267 65.3399 102.971 65.3698C102.675 65.3996 102.392 65.5073 102.151 65.6818Z" fill="black"/>
<path d="M108.595 69.8729C108.665 70.4962 108.56 71.1267 108.293 71.694C108.026 72.2614 107.606 72.7434 107.081 73.0861C106.555 73.4288 105.945 73.6187 105.318 73.6348C104.691 73.6508 104.072 73.4924 103.53 73.177L100.448 71.3786C100.205 71.2052 100.012 70.9706 99.8897 70.6987C99.767 70.4267 99.7184 70.1272 99.749 69.8304C99.7523 69.4794 99.8015 69.1303 99.8953 68.792C101.694 69.8257 103.889 71.1049 105.036 71.7657C106.735 72.7428 108.576 71.001 108.595 69.8729Z" fill="#E0E0E0"/>
<path d="M107.423 70.0046C107.338 70.152 107.225 70.2812 107.09 70.3848C106.955 70.4883 106.8 70.5642 106.636 70.608C106.472 70.6519 106.3 70.6628 106.131 70.6403C105.963 70.6177 105.8 70.5621 105.653 70.4766L100.461 67.4699C100.865 66.7395 101.448 66.1238 102.155 65.6809C102.226 65.6385 102.297 65.6054 102.363 65.5724L106.956 68.2298C107.252 68.4042 107.467 68.6885 107.555 69.021C107.642 69.3534 107.595 69.707 107.423 70.0046Z" fill="white"/>
<path opacity="0.1" d="M95.2122 63.9209C95.2504 63.8685 95.2914 63.818 95.3349 63.7698C95.3622 63.7331 95.3922 63.6984 95.4246 63.666L95.5331 63.5527C95.5702 63.5141 95.6096 63.4778 95.6511 63.4441C95.6694 63.4244 95.69 63.4069 95.7125 63.3922C95.8909 63.2379 96.0856 63.1034 96.2931 62.991C96.3639 62.9532 96.4394 62.9155 96.5196 62.8824C95.5756 63.4536 94.9667 65.9269 96.6565 66.8993C97.2324 67.2344 98.1009 67.7489 99.8851 68.7874C99.7912 69.1256 99.742 69.4747 99.7388 69.8258C99.7084 70.1242 99.7579 70.4253 99.8823 70.6982C100.007 70.9711 100.202 71.206 100.447 71.3787L96.1987 68.9242C95.4207 68.4742 94.8533 67.7335 94.6214 66.8651C94.3894 65.9968 94.512 65.0718 94.962 64.2938C95.0131 64.2007 95.0698 64.1108 95.1319 64.0247L95.2122 63.9209Z" fill="black"/>
<g style="mix-blend-mode:hard-light" opacity="0.7">
<path d="M87.7027 40.5604C87.703 40.3358 87.6841 40.1115 87.6461 39.8901C87.6461 39.8429 87.613 39.673 87.6036 39.6447C87.3932 38.7178 87.0017 37.8416 86.4517 37.0664C85.9017 36.2912 85.204 35.6323 84.3986 35.1275L78.6683 31.8234H78.6164C77.9982 31.4293 77.2855 31.2086 76.5527 31.1843C75.82 31.1599 75.0942 31.3329 74.4512 31.685C73.8081 32.0371 73.2715 32.5556 72.8974 33.1861C72.5233 33.8166 72.3254 34.536 72.3245 35.2691C72.3257 35.4923 72.3463 35.715 72.3858 35.9347C72.3964 36.0189 72.4122 36.1025 72.433 36.1848C72.8476 38.0511 73.9847 39.6771 75.5955 40.7067L81.3305 44.0108L81.3777 44.0344C81.9957 44.4314 82.7092 44.6544 83.4433 44.6802C84.1773 44.706 84.9047 44.5335 85.549 44.181C86.1933 43.8284 86.7308 43.3087 87.1048 42.6766C87.4788 42.0444 87.6755 41.3232 87.6744 40.5887L87.7027 40.5604Z" fill="#FAFAFA"/>
</g>
<path d="M75.3973 33.4709C75.3973 35.4297 76.8653 37.8606 78.6731 38.9038L84.3987 42.2079C86.2065 43.251 87.6745 42.51 87.6745 40.5558C87.6745 38.6017 86.2065 36.1661 84.3987 35.1229L78.6684 31.8188C76.8464 30.7709 75.3973 31.512 75.3973 33.4709Z" fill="#E0E0E0"/>
<path d="M76.2511 31.1536C75.197 31.1974 74.2007 31.6466 73.4698 32.4073C72.739 33.1681 72.3301 34.1816 72.3286 35.2366C72.3299 35.4598 72.3504 35.6824 72.39 35.9021C72.4006 35.9864 72.4163 36.0699 72.4372 36.1523C72.8009 37.7527 73.6879 39.1861 74.9577 40.2258C73.3765 38.0356 72.4844 36.6384 72.8667 34.4719C73.0251 33.6397 73.4342 32.8758 74.0392 32.2827C74.6441 31.6896 75.4159 31.2956 76.2511 31.1536Z" fill="white"/>
<path d="M78.9748 41.3635C78.7317 41.1905 78.539 40.9559 78.4162 40.6839C78.2935 40.4119 78.2452 40.1121 78.2763 39.8153C78.3211 38.9844 78.5612 38.1757 78.977 37.4548C79.3928 36.734 79.9726 36.1212 80.6694 35.6663C80.9115 35.4903 81.1963 35.3823 81.4942 35.3532C81.7921 35.3242 82.0923 35.3752 82.3639 35.5011L85.4414 37.2806C85.8341 37.5004 86.1791 37.796 86.4565 38.1504C86.7338 38.5047 86.9379 38.9107 87.0569 39.3446C87.1759 39.7786 87.2074 40.2318 87.1496 40.6781C87.0918 41.1243 86.9459 41.5546 86.7202 41.9439C86.4946 42.3332 86.1938 42.6738 85.8353 42.9458C85.4768 43.2177 85.0679 43.4157 84.6322 43.5282C84.1965 43.6407 83.7428 43.6654 83.2975 43.6009C82.8521 43.5364 82.4241 43.3839 82.0382 43.1525L78.9748 41.3635Z" fill="#F5F5F5"/>
<path d="M74.7308 38.9034C74.3452 38.6806 74.0073 38.384 73.7364 38.0305C73.4655 37.6771 73.2668 37.2738 73.1518 36.8436C73.0367 36.4134 73.0075 35.9648 73.0658 35.5233C73.1242 35.0818 73.2689 34.6561 73.4917 34.2706C73.7146 33.885 74.0112 33.5471 74.3646 33.2762C74.718 33.0053 75.1213 32.8066 75.5515 32.6916C75.9817 32.5765 76.4304 32.5473 76.8719 32.6056C77.3133 32.664 77.739 32.8087 78.1246 33.0315L82.3727 35.4954C82.1011 35.3696 81.8009 35.3185 81.503 35.3476C81.205 35.3766 80.9203 35.4847 80.6782 35.6607C79.9813 36.1156 79.4015 36.7283 78.9858 37.4492C78.57 38.17 78.3299 38.9787 78.285 39.8097C78.254 40.1065 78.3023 40.4062 78.425 40.6782C78.5477 40.9503 78.7405 41.1848 78.9836 41.3579L74.7308 38.9034Z" fill="#BD120A"/>
<path opacity="0.4" d="M75.4973 33.9337C75.3256 34.2319 75.2789 34.5859 75.3674 34.9184C75.4558 35.2509 75.6722 35.5349 75.9693 35.7085L81.0954 38.6822C81.5269 37.9682 81.769 37.1558 81.7987 36.3221C81.7987 36.2419 81.7987 36.1663 81.7987 36.0908L77.2768 33.4664C77.1295 33.3792 76.9664 33.3221 76.7969 33.2985C76.6275 33.2748 76.4549 33.285 76.2894 33.3284C76.1239 33.3719 75.9687 33.4478 75.8327 33.5517C75.6967 33.6556 75.5827 33.7854 75.4973 33.9337Z" fill="white"/>
<path d="M78.9748 41.3635C78.7317 41.1905 78.539 40.9559 78.4162 40.6839C78.2935 40.4119 78.2452 40.1121 78.2763 39.8153C78.3211 38.9844 78.5612 38.1757 78.977 37.4548C79.3928 36.734 79.9726 36.1212 80.6694 35.6663C80.9115 35.4903 81.1963 35.3823 81.4942 35.3532C81.7921 35.3242 82.0923 35.3752 82.3639 35.5011L85.4414 37.2806C85.8341 37.5004 86.1791 37.796 86.4565 38.1504C86.7338 38.5047 86.9379 38.9107 87.0569 39.3446C87.1759 39.7786 87.2074 40.2318 87.1496 40.6781C87.0918 41.1243 86.9459 41.5546 86.7202 41.9439C86.4946 42.3332 86.1938 42.6738 85.8353 42.9458C85.4768 43.2177 85.0679 43.4157 84.6322 43.5282C84.1965 43.6407 83.7428 43.6654 83.2975 43.6009C82.8521 43.5364 82.4241 43.3839 82.0382 43.1525L78.9748 41.3635Z" fill="#F5F5F5"/>
<path opacity="0.1" d="M80.6698 35.6656C79.973 36.1205 79.3932 36.7333 78.9774 37.4541C78.5616 38.175 78.3215 38.9837 78.2767 39.8146C78.2456 40.1114 78.2939 40.4112 78.4166 40.6832C78.5394 40.9552 78.7322 41.1897 78.9753 41.3628L78.7345 41.2259L78.5504 41.1174C78.3066 40.945 78.1133 40.7106 77.9904 40.4384C77.8676 40.1662 77.8198 39.8661 77.8519 39.5692C77.8967 38.7382 78.1368 37.9295 78.5526 37.2087C78.9684 36.4878 79.5482 35.8751 80.245 35.4202C80.4871 35.2442 80.7719 35.1361 81.0698 35.1071C81.3677 35.078 81.6679 35.1291 81.9395 35.255L82.3643 35.5004C82.0928 35.3745 81.7925 35.3235 81.4946 35.3525C81.1967 35.3815 80.9119 35.4896 80.6698 35.6656Z" fill="black"/>
<path d="M87.1124 39.8483C87.192 40.561 87.0415 41.2805 86.6829 41.9016C86.4603 42.2889 86.1635 42.6286 85.8096 42.9012C85.4556 43.1737 85.0513 43.3738 84.6199 43.49C84.1885 43.6062 83.7385 43.6362 83.2955 43.5782C82.8525 43.5203 82.4253 43.3756 82.0383 43.1524L78.9654 41.3587C78.7223 41.1857 78.5296 40.9511 78.4068 40.6791C78.2841 40.4071 78.2358 40.1073 78.2669 39.8105C78.2704 39.4595 78.3196 39.1104 78.4132 38.7721L83.5534 41.7458C85.2527 42.7276 87.0935 40.9717 87.1124 39.8483Z" fill="#E0E0E0"/>
<path d="M85.9415 39.9889C85.7688 40.2857 85.4857 40.502 85.1539 40.5904C84.8222 40.6789 84.4689 40.6323 84.1714 40.4609L78.9792 37.4542C79.3817 36.7214 79.965 36.1039 80.6738 35.6605L80.8815 35.5519L85.4742 38.2094C85.7718 38.3837 85.9881 38.669 86.0757 39.0026C86.1633 39.3361 86.115 39.6908 85.9415 39.9889Z" fill="white"/>
<path opacity="0.1" d="M73.7309 33.9247C73.7692 33.8723 73.8102 33.8218 73.8536 33.7736C73.881 33.7369 73.9109 33.7022 73.9433 33.6698L74.0519 33.5612L74.1652 33.4479L74.2312 33.396C74.4097 33.2417 74.6044 33.1072 74.8118 32.9948C74.8865 32.9523 74.9638 32.9145 75.0431 32.8815C74.0991 33.4527 73.4902 35.926 75.18 36.9031C75.7559 37.2335 76.6196 37.7527 78.4086 38.7912C78.315 39.1295 78.2658 39.4786 78.2623 39.8296C78.2312 40.1264 78.2795 40.4261 78.4022 40.6982C78.525 40.9702 78.7177 41.2047 78.9608 41.3778L74.7127 38.9233C73.9348 38.4732 73.3673 37.7328 73.1346 36.8648C72.9018 35.9967 73.0229 35.0718 73.4713 34.2929C73.5279 34.1984 73.5846 34.1135 73.6459 34.0285C73.6705 33.991 73.699 33.9562 73.7309 33.9247Z" fill="black"/>
<g style="mix-blend-mode:hard-light" opacity="0.7">
<path d="M109.16 52.8523C109.16 52.6278 109.142 52.4038 109.108 52.182C109.108 52.1348 109.07 51.9696 109.061 51.9365C108.855 51.012 108.469 50.1372 107.925 49.3621C107.381 48.5869 106.689 47.9268 105.889 47.4193L100.154 44.1152L100.102 44.0916C99.4836 43.6974 98.7704 43.4766 98.0373 43.4525C97.3041 43.4283 96.578 43.6017 95.9348 43.9544C95.2916 44.3071 94.7551 44.8262 94.3813 45.4574C94.0075 46.0885 93.8103 46.8085 93.8102 47.5421C93.8114 47.7637 93.832 47.9848 93.8715 48.2029C93.8715 48.2548 93.9046 48.3823 93.9187 48.4531C94.3323 50.3198 95.4697 51.9461 97.0812 52.975L102.816 56.2791H102.863C103.481 56.676 104.195 56.8991 104.929 56.9249C105.663 56.9507 106.39 56.7782 107.035 56.4256C107.679 56.073 108.216 55.5533 108.59 54.9212C108.964 54.2891 109.161 53.5678 109.16 52.8334V52.8523Z" fill="#FAFAFA"/>
</g>
<path d="M96.8829 45.7622C96.8829 47.721 98.3462 50.1519 100.154 51.1951L105.889 54.4992C107.692 55.5423 109.16 54.8013 109.16 52.8424C109.16 50.8835 107.692 48.4527 105.889 47.4095L100.154 44.1054C98.3462 43.0622 96.8829 43.8033 96.8829 45.7622Z" fill="#E0E0E0"/>
<path d="M97.7326 43.4497C96.6782 43.4924 95.6812 43.9411 94.9501 44.7021C94.219 45.4631 93.8105 46.4774 93.8102 47.5326C93.8114 47.7543 93.832 47.9754 93.8715 48.1935C93.8715 48.2454 93.9046 48.3728 93.9187 48.4436C94.2825 50.044 95.1694 51.4774 96.4393 52.5171C94.8628 50.327 93.9659 48.9345 94.3483 46.7633C94.5063 45.9313 94.9154 45.1678 95.5204 44.5754C96.1255 43.983 96.8976 43.5901 97.7326 43.4497Z" fill="white"/>
<path d="M100.448 53.6595C100.205 53.4854 100.012 53.25 99.8893 52.9772C99.7666 52.7045 99.7183 52.4041 99.7492 52.1066C99.7945 51.2757 100.035 50.4672 100.45 49.7464C100.866 49.0256 101.446 48.4128 102.142 47.9576C102.385 47.783 102.67 47.6757 102.967 47.6467C103.265 47.6177 103.565 47.668 103.837 47.7924L106.914 49.5766C107.3 49.7995 107.638 50.0961 107.909 50.4495C108.18 50.8029 108.378 51.2062 108.493 51.6364C108.608 52.0666 108.638 52.5153 108.579 52.9567C108.521 53.3982 108.376 53.8239 108.153 54.2095C107.931 54.595 107.634 54.9329 107.281 55.2038C106.927 55.4747 106.524 55.6734 106.094 55.7885C105.663 55.9035 105.215 55.9327 104.773 55.8744C104.332 55.816 103.906 55.6713 103.521 55.4485L100.448 53.6595Z" fill="#F5F5F5"/>
<path d="M96.1996 51.1996C95.421 50.7495 94.853 50.0086 94.6206 49.1397C94.3883 48.2709 94.5106 47.3454 94.9606 46.5667C95.4107 45.7881 96.1516 45.2201 97.0204 44.9877C97.8892 44.7553 98.8148 44.8776 99.5934 45.3277L103.842 47.7916C103.57 47.6672 103.27 47.6169 102.972 47.6459C102.674 47.6749 102.39 47.7822 102.147 47.9568C101.45 48.412 100.871 49.0248 100.455 49.7456C100.039 50.4664 99.7992 51.2749 99.7539 52.1058C99.723 52.4033 99.7713 52.7037 99.894 52.9764C100.017 53.2492 100.209 53.4846 100.453 53.6587L96.1996 51.1996Z" fill="#BD120A"/>
<path opacity="0.4" d="M96.9777 46.2249C96.8061 46.5231 96.7594 46.8771 96.8478 47.2096C96.9363 47.5421 97.1527 47.8261 97.4498 47.9996L102.576 50.9733C103.007 50.2593 103.249 49.447 103.279 48.6133C103.279 48.533 103.279 48.4575 103.279 48.382L98.7572 45.7576C98.6098 45.671 98.4467 45.6144 98.2774 45.5911C98.108 45.5677 97.9357 45.5781 97.7704 45.6215C97.6051 45.6649 97.4499 45.7406 97.3139 45.8441C97.1779 45.9476 97.0636 46.077 96.9777 46.2249Z" fill="white"/>
<path d="M100.448 53.6595C100.205 53.4854 100.012 53.25 99.8893 52.9772C99.7666 52.7045 99.7183 52.4041 99.7492 52.1066C99.7945 51.2757 100.035 50.4672 100.45 49.7464C100.866 49.0256 101.446 48.4128 102.142 47.9576C102.385 47.783 102.67 47.6757 102.967 47.6467C103.265 47.6177 103.565 47.668 103.837 47.7924L106.914 49.5766C107.3 49.7995 107.638 50.0961 107.909 50.4495C108.18 50.8029 108.378 51.2062 108.493 51.6364C108.608 52.0666 108.638 52.5153 108.579 52.9567C108.521 53.3982 108.376 53.8239 108.153 54.2095C107.931 54.595 107.634 54.9329 107.281 55.2038C106.927 55.4747 106.524 55.6734 106.094 55.7885C105.663 55.9035 105.215 55.9327 104.773 55.8744C104.332 55.816 103.906 55.6713 103.521 55.4485L100.448 53.6595Z" fill="#F5F5F5"/>
<path opacity="0.1" d="M102.15 47.9569C101.454 48.4121 100.874 49.0249 100.458 49.7457C100.042 50.4665 99.8022 51.2751 99.757 52.1059C99.726 52.4034 99.7743 52.7038 99.897 52.9765C100.02 53.2493 100.212 53.4847 100.456 53.6589L100.215 53.5173L100.031 53.4134C99.7869 53.2399 99.5936 53.0046 99.4708 52.7317C99.3481 52.4588 99.3002 52.1581 99.3321 51.8605C99.3774 51.0296 99.6176 50.2211 100.033 49.5003C100.449 48.7795 101.029 48.1667 101.725 47.7115C101.967 47.5355 102.252 47.4274 102.55 47.3984C102.848 47.3693 103.148 47.4204 103.42 47.5463L103.845 47.7917C103.573 47.6673 103.273 47.617 102.975 47.646C102.677 47.6751 102.393 47.7823 102.15 47.9569Z" fill="black"/>
<path d="M108.595 52.1533C108.674 52.866 108.524 53.5855 108.165 54.2065C107.715 54.9857 106.974 55.5541 106.105 55.7869C105.235 56.0197 104.309 55.8978 103.53 55.4479L100.448 53.659C100.205 53.4848 100.012 53.2494 99.8893 52.9766C99.7666 52.7039 99.7183 52.4035 99.7492 52.1061C99.7528 51.755 99.802 51.406 99.8955 51.0676L105.036 54.0413C106.735 55.0184 108.576 53.2625 108.595 52.1533Z" fill="#E0E0E0"/>
<path d="M107.424 52.2803C107.338 52.4277 107.225 52.5569 107.09 52.6605C106.955 52.764 106.801 52.8399 106.636 52.8837C106.472 52.9276 106.301 52.9385 106.132 52.916C105.963 52.8934 105.801 52.8378 105.653 52.7523L100.447 49.7597C100.851 49.028 101.434 48.4108 102.142 47.9661L102.349 47.8622L106.942 50.5197C107.238 50.6907 107.454 50.9715 107.545 51.3011C107.635 51.6307 107.591 51.9826 107.424 52.2803Z" fill="white"/>
<path opacity="0.1" d="M95.2127 46.215C95.251 46.1626 95.292 46.1122 95.3354 46.064C95.3638 46.0309 95.3921 45.9932 95.4251 45.9601L95.5337 45.8516L95.6517 45.7383L95.713 45.6864C95.8916 45.5335 96.0863 45.4006 96.2936 45.2899C96.3662 45.2465 96.4419 45.2086 96.5202 45.1766C95.5762 45.7524 94.9673 48.2211 96.6571 49.1981C97.2329 49.5333 98.1014 50.0478 99.8857 51.0862C99.7921 51.4246 99.7429 51.7736 99.7393 52.1246C99.7084 52.4221 99.7567 52.7225 99.8794 52.9952C100.002 53.268 100.195 53.5034 100.438 53.6776L96.1898 51.2184C95.8041 50.996 95.4661 50.6997 95.1951 50.3464C94.9241 49.9932 94.7255 49.5899 94.6106 49.1598C94.4957 48.7296 94.4668 48.281 94.5256 47.8397C94.5844 47.3984 94.7296 46.973 94.9531 46.5879C95.0053 46.497 95.062 46.4088 95.123 46.3236L95.2127 46.215Z" fill="black"/>
<path d="M57.9901 26.3003C56.6251 25.5176 55.2053 24.8345 53.7419 24.2564C52.3893 23.7344 51.2248 22.8182 50.3991 21.6265C49.5735 20.4347 49.1249 19.0224 49.1114 17.5727V9.41626H22.4803V17.5727C22.4707 19.0257 22.0232 20.4421 21.1963 21.6369C20.3694 22.8317 19.2016 23.7496 17.8451 24.2706C16.3817 24.8487 14.962 25.5318 13.597 26.3144C7.4608 29.8545 4.40686 34.4944 4.40686 39.1296V100.633C4.40686 105.268 7.47024 109.908 13.597 113.448C25.8694 120.529 45.7271 120.529 57.9665 113.448C64.1027 109.908 67.1613 105.273 67.1613 100.633V39.1155C67.1849 34.4756 64.1027 29.8404 57.9901 26.3003Z" fill="#BD120A"/>
<path opacity="0.7" d="M57.9901 26.3003C56.6251 25.5176 55.2053 24.8345 53.7419 24.2564C52.3893 23.7344 51.2248 22.8182 50.3991 21.6265C49.5735 20.4347 49.1249 19.0224 49.1114 17.5727V9.41626H22.4803V17.5727C22.4707 19.0257 22.0232 20.4421 21.1963 21.6369C20.3694 22.8317 19.2016 23.7496 17.8451 24.2706C16.3817 24.8487 14.962 25.5318 13.597 26.3144C7.4608 29.8545 4.40686 34.4944 4.40686 39.1296V100.633C4.40686 105.268 7.47024 109.908 13.597 113.448C25.8694 120.529 45.7271 120.529 57.9665 113.448C64.1027 109.908 67.1613 105.273 67.1613 100.633V39.1155C67.1849 34.4756 64.1027 29.8404 57.9901 26.3003Z" fill="white"/>
<path d="M35.8154 118.745C53.138 118.745 67.1808 110.716 67.1808 100.813C67.1808 90.9093 53.138 82.8809 35.8154 82.8809C18.4927 82.8809 4.44995 90.9093 4.44995 100.813C4.44995 110.716 18.4927 118.745 35.8154 118.745Z" fill="#BD120A"/>
<path opacity="0.5" d="M35.8154 118.745C53.138 118.745 67.1808 110.716 67.1808 100.813C67.1808 90.9093 53.138 82.8809 35.8154 82.8809C18.4927 82.8809 4.44995 90.9093 4.44995 100.813C4.44995 110.716 18.4927 118.745 35.8154 118.745Z" fill="white"/>
<path opacity="0.4" d="M51.6556 17.9928C45.8829 14.6604 37.7264 13.5275 30.3252 14.6084V9.41626H22.4803V17.568C22.4723 19.022 22.0255 20.4396 21.1985 21.6355C20.3714 22.8314 19.2027 23.7498 17.8451 24.2706C16.3837 24.8533 14.9643 25.5362 13.597 26.3144C13.5451 26.3144 13.5026 26.3758 13.446 26.3994C7.4136 29.9301 4.40686 34.5275 4.40686 39.1438V100.614C4.40686 105.259 7.47024 109.889 13.597 113.43C22.4143 118.523 35.1681 119.929 46.1944 117.701C20.6772 119.453 14.541 108.634 14.541 100.808V41.0083C14.541 38.247 14.9564 35.9671 16.9011 34.046C17.8459 34.9106 18.8864 35.6644 20.0023 36.2928C28.7581 41.3434 42.9422 41.3434 51.6887 36.2928C60.4351 31.2423 60.4115 23.0528 51.6556 17.9928Z" fill="white"/>
<path opacity="0.4" d="M57.9905 26.3003C56.6255 25.5176 55.2057 24.8345 53.7423 24.2564C52.3897 23.7345 51.2251 22.8182 50.3995 21.6265C49.5739 20.4347 49.1253 19.0224 49.1118 17.5727V9.41626H46.2042V20.334C46.2042 22.8498 48.3708 25.2429 50.8772 26.6118C53.3836 27.9806 61.3512 31.4405 63.2818 35.2261C65.1226 38.8276 64.5232 45.988 64.5232 54.4843V97.9097C64.5232 103.423 62.2244 111.4 51.9864 116.196C54.0676 115.485 56.0791 114.584 57.9952 113.505C64.1314 109.965 67.1853 105.514 67.1853 100.633V39.1155C67.1853 34.4756 64.1031 29.8404 57.9905 26.3003Z" fill="white"/>
<path d="M58.2266 20.863V23.1853C58.2266 26.4894 56.0506 29.8219 51.6561 32.366C42.9097 37.4119 28.7303 37.4119 19.9603 32.366C18.0299 31.3122 16.3529 29.8494 15.0466 28.0801C14.0081 26.6733 13.4369 24.9762 13.4134 23.2278V20.8158C13.4062 20.31 13.4649 19.8054 13.5881 19.3148C14.1309 16.511 16.2644 13.7922 19.9603 11.6587C20.0659 11.5922 20.1763 11.5338 20.2907 11.4841C29.0749 6.61285 43.0182 6.67893 51.6561 11.6587C55.352 13.7922 57.5091 16.511 58.0519 19.2959C58.1754 19.8089 58.2341 20.3354 58.2266 20.863Z" fill="#F0F0F0"/>
<path d="M37.671 33.7395V25.4934C37.671 22.2317 38.497 26.6451 32.7762 26.6451C27.8153 26.6451 23.402 15.2034 20.315 11.4839C20.2006 11.5337 20.0901 11.5921 19.9846 11.6586C16.2887 13.7921 14.1552 16.5109 13.6124 19.3147C13.4892 19.8053 13.4305 20.3099 13.4377 20.8157V23.2277C13.4612 24.9761 14.0324 26.6732 15.0709 28.08C16.3772 29.8493 18.0542 31.312 19.9846 32.3659C28.7546 37.4118 42.934 37.4118 51.6804 32.3659C45.4781 34.8015 37.671 36.8501 37.671 33.7395Z" fill="#E0E0E0"/>
<path d="M35.8153 33.7489C48.1901 33.7489 58.2218 27.9564 58.2218 20.811C58.2218 13.6656 48.1901 7.87305 35.8153 7.87305C23.4405 7.87305 13.4087 13.6656 13.4087 20.811C13.4087 27.9564 23.4405 33.7489 35.8153 33.7489Z" fill="#BD120A"/>
<path d="M58.2267 13.0936V17.7288C58.2339 18.2564 58.1753 18.7828 58.052 19.2959C57.5092 22.0808 55.3521 24.7996 51.6562 26.9284C47.7385 29.1941 42.7398 30.4307 37.6468 30.6526C31.3171 30.9547 24.8127 29.7086 19.9604 26.9095C18.0384 25.8598 16.3631 24.4114 15.0467 22.6614C14.3271 21.6639 13.8327 20.522 13.5976 19.3148C13.4744 18.8177 13.4157 18.3069 13.423 17.7949V13.0511C13.423 9.74701 15.599 6.44291 19.9698 3.89402C20.3616 3.6769 20.7534 3.45977 21.1687 3.26152C29.9765 -1.15183 43.311 -0.934696 51.6657 3.89402C56.0507 6.43819 58.2455 9.7659 58.2267 13.0936Z" fill="#F0F0F0"/>
<path d="M35.8153 25.8759C48.1901 25.8759 58.2218 20.0834 58.2218 12.9379C58.2218 5.79252 48.1901 0 35.8153 0C23.4405 0 13.4087 5.79252 13.4087 12.9379C13.4087 20.0834 23.4405 25.8759 35.8153 25.8759Z" fill="white"/>
<path d="M15.0466 22.6468C16.363 24.3968 18.0384 25.8452 19.9603 26.8949C24.8126 29.6987 31.317 30.9401 37.6467 30.638C37.7081 29.0095 38.6191 27.7634 32.7519 26.6306C27.8807 25.6865 20.6778 23.6663 17.317 18.342C14.23 13.4472 16.0048 7.01361 21.1592 3.23749C20.7438 3.43573 20.3521 3.65286 19.9603 3.86999C15.5894 6.39527 13.4134 9.69938 13.4134 13.0271V17.7708C13.4062 18.2829 13.4649 18.7937 13.5881 19.2907C13.8247 20.5021 14.3225 21.6473 15.0466 22.6468Z" fill="#E0E0E0"/>
<path d="M58.0992 61.3386C45.7844 68.3811 25.8181 68.3811 13.5032 61.3386C7.34341 57.8221 4.26587 53.2058 4.26587 48.5942V79.0486C4.26587 83.6602 7.34341 88.2765 13.5032 91.793C25.8181 98.8355 45.7844 98.8355 58.0992 91.793C64.259 88.2765 67.3366 83.6602 67.3366 79.0486V48.5942C67.3366 53.2058 64.259 57.8221 58.0992 61.3386Z" fill="#BD120A"/>
<path d="M58.0992 58.4204C45.7844 65.4582 25.8181 65.4582 13.5032 58.4204C7.34341 54.8992 4.26587 50.2876 4.26587 45.676V76.1304C4.26587 80.7467 7.34341 85.3583 13.5032 88.8748C25.8181 95.9126 45.7844 95.9126 58.0992 88.8748C64.259 85.3536 67.3366 80.742 67.3366 76.1304V45.6713C67.3366 50.2876 64.259 54.8992 58.0992 58.4204Z" fill="#FAFAFA"/>
<path d="M25.5743 76.3768C25.5472 74.4714 25.1395 72.5905 24.3753 70.8448V70.807C23.5021 68.8151 22.2371 67.1442 20.8305 66.3323C18.7772 65.1523 17.0544 67.0923 16.37 69.8064C16.3039 70.0801 15.9829 70.0943 15.9404 69.8064C15.3174 66.2663 13.5237 62.1172 11.4091 60.9089C9.99303 60.1017 8.73747 60.3189 7.86896 61.3148C7.1279 62.1833 6.67476 63.6135 6.67948 65.478C6.67948 71.2555 10.1677 76.4429 13.0847 81.9041L16.2331 87.1765L19.2257 85.4301C22.0955 83.3485 25.5837 82.1543 25.5743 76.3768Z" fill="#BD120A"/>
<path d="M11.8202 74.4893L13.1655 70.9633C13.1983 70.8512 13.2667 70.7527 13.3603 70.6829C13.454 70.6131 13.5679 70.5756 13.6847 70.5762C13.8025 70.5771 13.9165 70.6183 14.0075 70.693C14.0986 70.7678 14.1613 70.8715 14.185 70.9869L16.2666 79.082L17.9234 74.5506C17.9618 74.4472 18.0316 74.3583 18.123 74.2965C18.2144 74.2347 18.3229 74.2031 18.4332 74.206C18.5418 74.2128 18.6457 74.2533 18.7302 74.3218C18.8148 74.3903 18.876 74.4835 18.9052 74.5884L20.1372 78.9687L24.4183 81.4373L24.3192 81.5884C24.1723 81.7931 24.0147 81.9901 23.8472 82.1784L23.7575 82.2822L19.4102 79.7711C19.2919 79.7033 19.2053 79.5912 19.1695 79.4596L18.3199 76.4434L16.597 81.1635C16.5577 81.2702 16.485 81.3613 16.3898 81.4234C16.2945 81.4854 16.1818 81.5152 16.0684 81.5081C15.956 81.4995 15.8494 81.455 15.7643 81.381C15.6793 81.307 15.6204 81.2076 15.5964 81.0975L13.5997 73.3092L12.6557 75.4286C12.6346 75.5058 12.5959 75.577 12.5427 75.6368C12.4895 75.6966 12.4231 75.7432 12.3489 75.7731C12.2733 75.805 12.1914 75.819 12.1096 75.8141C12.0277 75.8092 11.9481 75.7855 11.8769 75.7448L8.45477 73.7671L8.43117 73.7199C8.26596 73.347 8.10548 72.9788 7.95915 72.6059L7.77979 72.1622L11.8202 74.4893Z" fill="#FAFAFA"/>
<path d="M36.0374 74.4313C34.8338 74.4313 33.6207 74.3935 32.3887 74.318C32.2643 74.3095 32.1483 74.2521 32.0661 74.1584C31.9838 74.0646 31.942 73.9421 31.9498 73.8176C31.9583 73.6932 32.0156 73.5772 32.1094 73.495C32.2031 73.4127 32.3256 73.3709 32.4501 73.3787C40.7434 73.8837 48.4986 72.6376 54.8992 69.7678C54.9559 69.7423 55.0171 69.7283 55.0792 69.7266C55.1413 69.7248 55.2032 69.7353 55.2612 69.7574C55.3193 69.7795 55.3725 69.8129 55.4177 69.8556C55.4628 69.8982 55.4992 69.9494 55.5246 70.0061C55.55 70.0628 55.564 70.124 55.5658 70.1861C55.5675 70.2483 55.5571 70.3101 55.5349 70.3682C55.5128 70.4263 55.4794 70.4794 55.4368 70.5246C55.3941 70.5698 55.3429 70.6061 55.2862 70.6315C49.707 73.1379 43.1082 74.4313 36.0374 74.4313Z" fill="#A1A4AC" fill-opacity="0.3"/>
<path d="M36.0374 79.5581C34.8338 79.5581 33.6207 79.5203 32.3887 79.4448C32.2643 79.4363 32.1483 79.3789 32.0661 79.2852C31.9838 79.1914 31.942 79.0689 31.9498 78.9445C31.9583 78.82 32.0156 78.704 32.1094 78.6218C32.2031 78.5395 32.3256 78.4977 32.4501 78.5055C40.7434 79.0106 48.4986 77.7644 54.8992 74.8946C55.0137 74.8433 55.144 74.8395 55.2612 74.8842C55.3785 74.9289 55.4733 75.0184 55.5246 75.133C55.5759 75.2475 55.5796 75.3777 55.5349 75.495C55.4902 75.6123 55.4008 75.707 55.2862 75.7584C49.707 78.2648 43.1082 79.5581 36.0374 79.5581Z" fill="#A1A4AC" fill-opacity="0.3"/>
<path d="M36.0367 84.6891C34.8331 84.6891 33.62 84.6513 32.388 84.5758C32.2628 84.5676 32.146 84.5101 32.0632 84.4158C31.9805 84.3216 31.9385 84.1983 31.9467 84.0731C31.9548 83.9479 32.0124 83.8311 32.1066 83.7483C32.2009 83.6655 32.3242 83.6236 32.4494 83.6318C40.7427 84.1415 48.4979 82.8954 54.8984 80.0255C55.0124 79.9745 55.1419 79.9706 55.2587 80.0149C55.3755 80.0591 55.47 80.1478 55.5215 80.2616C55.5475 80.3182 55.5621 80.3795 55.5643 80.4418C55.5665 80.5041 55.5563 80.5663 55.5344 80.6247C55.5124 80.683 55.4791 80.7365 55.4364 80.7819C55.3937 80.8273 55.3424 80.8639 55.2855 80.8893C49.7063 83.3863 43.1075 84.6891 36.0367 84.6891Z" fill="#A1A4AC" fill-opacity="0.3"/>
<path d="M18.9605 149.596C18.9108 149.45 18.8508 149.308 18.7811 149.171C18.7221 149.054 18.6559 148.94 18.5829 148.831C18.2425 148.338 17.8136 147.912 17.3179 147.576V148.883L16.1992 148.232V146.934C13.0839 145.456 8.477 145.565 5.56939 147.24C4.58326 147.739 3.8105 148.577 3.39339 149.601C3.39339 149.676 3.35091 149.747 3.33203 149.822C3.27595 150.037 3.2474 150.257 3.24707 150.479V153.07C3.25694 153.691 3.45986 154.293 3.82765 154.793C4.29309 155.417 4.88705 155.933 5.56939 156.308C8.67053 158.097 13.6928 158.097 16.7845 156.308C18.3327 155.411 19.1115 154.24 19.1115 153.07V150.479C19.1106 150.178 19.0595 149.88 18.9605 149.596Z" fill="#F0F0F0"/>
<path d="M13.6644 146.127C10.9126 145.603 7.75954 145.971 5.56939 147.236C4.58326 147.735 3.8105 148.573 3.39339 149.596C3.39339 149.672 3.35091 149.743 3.33203 149.818C3.27595 150.032 3.2474 150.253 3.24707 150.474V153.066C3.25694 153.686 3.45986 154.288 3.82765 154.789C4.29309 155.412 4.88705 155.929 5.56939 156.304C7.75954 157.569 10.9126 157.932 13.6644 157.408V146.127Z" fill="#EBEBEB"/>
<path d="M5.57361 147.237C2.666 148.917 2.48663 151.575 5.04023 153.373L16.1987 146.93C13.0834 145.457 8.48123 145.58 5.57361 147.237Z" fill="#FAFAFA"/>
<path d="M5.03551 152.693C5.03551 152.693 1.95325 150.333 5.38008 147.354C2.66127 149.035 2.54799 151.602 5.04023 153.372L16.1987 146.929L5.03551 152.693Z" fill="white"/>
<path d="M17.3185 147.576L6.16003 154.019C9.27534 155.492 13.8822 155.393 16.7898 153.713C19.6974 152.032 19.8721 149.356 17.3185 147.576Z" fill="#FAFAFA"/>
<path d="M6.16003 154.019C9.27534 155.492 13.8822 155.393 16.7898 153.713C17.1134 153.528 17.4199 153.315 17.7055 153.075C11.9989 155.936 7.41087 153.92 7.41087 153.92L17.3232 147.576L6.16003 154.019Z" fill="white"/>
<path d="M16.1991 148.227L5.04065 154.699V153.372L16.1991 146.929V148.227Z" fill="#E0E0E0"/>
<path opacity="0.2" d="M6.15933 154.019L6.16405 155.346L5.04065 154.699L6.15933 154.019Z" fill="black"/>
<path d="M22.0939 145.442C22.0451 145.294 21.9851 145.151 21.9145 145.012C21.8531 144.897 21.7854 144.785 21.7116 144.677C21.373 144.184 20.9456 143.758 20.4513 143.422V144.72L19.3279 144.068V142.77C16.2126 141.298 11.6104 141.402 8.70281 143.082C7.71432 143.577 6.9406 144.417 6.52682 145.442C6.50322 145.517 6.47962 145.588 6.46073 145.659C6.40847 145.874 6.38154 146.094 6.38049 146.315V148.911C6.39036 149.532 6.59328 150.134 6.96107 150.634C7.4256 151.258 8.01984 151.773 8.70281 152.145C11.7992 153.934 16.8215 153.934 19.9179 152.145C21.4661 151.252 22.2402 150.082 22.2402 148.911V146.315C22.2403 146.018 22.1909 145.723 22.0939 145.442Z" fill="#F0F0F0"/>
<path d="M16.7746 141.968C14.018 141.444 10.8696 141.817 8.67949 143.082C7.691 143.577 6.91729 144.416 6.5035 145.442C6.4799 145.517 6.4563 145.588 6.43742 145.659C6.38515 145.874 6.35822 146.094 6.35718 146.315V148.911C6.36704 149.532 6.56996 150.134 6.93775 150.634C7.40228 151.258 7.99652 151.773 8.67949 152.145C10.8696 153.41 14.018 153.778 16.7746 153.254V141.968Z" fill="#EBEBEB"/>
<path d="M8.67945 143.082C5.77183 144.757 5.59246 147.415 8.14607 149.218L19.3045 142.78C16.1892 141.297 11.5871 141.401 8.67945 143.082Z" fill="#FAFAFA"/>
<path d="M8.14578 148.538C8.14578 148.538 5.06352 146.178 8.49035 143.195C5.76682 144.88 5.65826 147.443 8.14578 149.213L19.3042 142.775L8.14578 148.538Z" fill="white"/>
<path d="M20.4275 143.421L9.26904 149.864C12.3843 151.336 16.9865 151.233 19.8941 149.552C22.8017 147.872 22.9764 145.219 20.4275 143.421Z" fill="#FAFAFA"/>
<path d="M9.26904 149.864C12.3843 151.336 16.9865 151.233 19.8941 149.552C20.2173 149.369 20.5237 149.157 20.8098 148.92C15.1079 151.775 10.5152 149.76 10.5152 149.76L20.4275 143.421L9.26904 149.864Z" fill="white"/>
<path d="M19.304 144.068L8.14551 150.544V149.213L19.304 142.775V144.068Z" fill="#E0E0E0"/>
<path opacity="0.2" d="M9.26891 149.865V151.191L8.14551 150.544L9.26891 149.865Z" fill="black"/>
<path d="M41.7103 152.366C41.2383 152.092 40.9409 151.502 40.9409 150.662C40.9907 149.748 41.255 148.858 41.7126 148.065C42.1702 147.272 42.8082 146.598 43.5748 146.098C43.8405 145.905 44.1529 145.786 44.4797 145.754C44.8065 145.721 45.1361 145.777 45.4345 145.914L48.8236 147.877C49.6799 148.372 50.3044 149.187 50.5598 150.143C50.8151 151.099 50.6805 152.116 50.1854 152.973C49.6902 153.829 48.8752 154.454 47.9197 154.709C46.9641 154.964 45.9462 154.83 45.0899 154.335L41.7103 152.366Z" fill="#F5F5F5"/>
<path d="M37.0423 149.667C36.5838 149.44 36.1767 149.123 35.8461 148.733C35.5155 148.343 35.2685 147.889 35.1205 147.4C34.9724 146.91 34.9264 146.396 34.9853 145.888C35.0443 145.38 35.2069 144.89 35.4631 144.447C35.7192 144.005 36.0636 143.62 36.4747 143.316C36.8858 143.012 37.3549 142.796 37.853 142.681C38.3511 142.565 38.8676 142.554 39.3704 142.646C39.8732 142.739 40.3516 142.934 40.776 143.219L45.4348 145.928C45.1363 145.791 44.8068 145.736 44.4799 145.768C44.1531 145.801 43.8408 145.919 43.575 146.112C42.8084 146.613 42.1705 147.287 41.7129 148.08C41.2553 148.873 40.9909 149.763 40.9412 150.677C40.9412 151.517 41.2338 152.093 41.7106 152.381L37.0423 149.667Z" fill="#BD120A"/>
<path opacity="0.4" d="M37.8822 144.196C37.7869 144.358 37.7247 144.537 37.6993 144.723C37.6738 144.909 37.6856 145.098 37.7339 145.279C37.7822 145.461 37.8661 145.631 37.9807 145.78C38.0953 145.928 38.2383 146.053 38.4014 146.146L44.042 149.417C44.517 148.63 44.7835 147.734 44.8161 146.816C44.8161 146.726 44.8161 146.641 44.8161 146.561L39.8316 143.691C39.6708 143.595 39.4925 143.532 39.3071 143.506C39.1216 143.479 38.9328 143.49 38.7515 143.537C38.5702 143.584 38.4 143.666 38.2508 143.779C38.1016 143.892 37.9763 144.034 37.8822 144.196Z" fill="white"/>
<path d="M41.7103 152.366C41.2383 152.092 40.9409 151.502 40.9409 150.662C40.9907 149.748 41.255 148.858 41.7126 148.065C42.1702 147.272 42.8082 146.598 43.5748 146.098C43.8405 145.905 44.1529 145.786 44.4797 145.754C44.8065 145.721 45.1361 145.777 45.4345 145.914L48.8236 147.877C49.6799 148.372 50.3044 149.187 50.5598 150.143C50.8151 151.099 50.6805 152.116 50.1854 152.973C49.6902 153.829 48.8752 154.454 47.9197 154.709C46.9641 154.964 45.9462 154.83 45.0899 154.335L41.7103 152.366Z" fill="#F5F5F5"/>
<path opacity="0.1" d="M43.5739 146.098C42.8073 146.599 42.1694 147.273 41.7118 148.066C41.2542 148.859 40.9898 149.748 40.9401 150.662C40.9401 151.503 41.2327 152.079 41.7095 152.366L41.4451 152.215L41.2422 152.097C40.7702 151.824 40.4728 151.234 40.4728 150.393C40.5214 149.479 40.7853 148.589 41.243 147.796C41.7007 147.003 42.3392 146.329 43.1066 145.829C43.3724 145.636 43.6847 145.517 44.0115 145.485C44.3384 145.453 44.6679 145.508 44.9664 145.645L45.4384 145.914C45.1393 145.776 44.8089 145.72 44.4811 145.753C44.1534 145.785 43.8402 145.904 43.5739 146.098Z" fill="black"/>
<path d="M50.6597 150.71C50.7486 151.495 50.5832 152.287 50.1877 152.971C49.9428 153.395 49.6166 153.767 49.2278 154.066C48.8389 154.364 48.3951 154.583 47.9216 154.71C47.4482 154.836 46.9544 154.868 46.4685 154.804C45.9826 154.74 45.5141 154.58 45.0899 154.335L41.7103 152.367C41.2383 152.093 40.9409 151.503 40.9409 150.663C40.9445 150.276 40.9985 149.892 41.1014 149.52L46.7656 152.791C48.6159 153.868 50.6408 151.932 50.6597 150.71Z" fill="#EBEBEB"/>
<path d="M49.3766 150.856C49.2837 151.019 49.1593 151.162 49.0106 151.277C48.8619 151.391 48.6919 151.475 48.5105 151.523C48.3291 151.572 48.1399 151.583 47.954 151.558C47.768 151.533 47.5889 151.47 47.4272 151.375L41.7111 148.071C42.1522 147.264 42.7944 146.584 43.5755 146.098L43.8021 145.98L48.8527 148.902C49.0168 148.994 49.1608 149.118 49.2763 149.267C49.3918 149.416 49.4765 149.587 49.5253 149.769C49.5741 149.951 49.586 150.14 49.5605 150.327C49.535 150.514 49.4725 150.694 49.3766 150.856Z" fill="white"/>
<path opacity="0.1" d="M35.9423 144.163C35.9848 144.106 36.0272 144.05 36.0744 143.998L36.1736 143.884L36.2916 143.762C36.3333 143.718 36.3774 143.677 36.4237 143.639L36.4898 143.582C36.6869 143.415 36.9004 143.268 37.127 143.143L37.3772 143.021C36.3341 143.648 35.6732 146.367 37.5283 147.443C38.1655 147.812 39.1189 148.387 41.0825 149.511C40.9796 149.883 40.9257 150.267 40.922 150.653C40.922 151.493 41.2147 152.069 41.6914 152.357L37.0232 149.657C36.1667 149.162 35.542 148.346 35.2862 147.391C35.0304 146.435 35.1645 145.416 35.6591 144.559C35.7157 144.46 35.7818 144.366 35.8479 144.271L35.9423 144.163Z" fill="black"/>
<path d="M101.163 139.741C101.432 139.55 101.645 139.291 101.781 138.991C101.917 138.691 101.971 138.36 101.937 138.032C101.887 137.118 101.622 136.23 101.165 135.437C100.707 134.645 100.069 133.972 99.3032 133.472C98.5762 133.052 97.9154 133 97.4387 133.288L94.0543 135.247C93.1974 135.741 92.5721 136.556 92.3158 137.512C92.0595 138.467 92.1934 139.485 92.6878 140.342C93.1823 141.199 93.997 141.825 94.9526 142.081C95.9081 142.337 96.9264 142.203 97.7833 141.709L101.163 139.741Z" fill="#F5F5F5"/>
<path d="M105.831 137.04C106.688 136.546 107.314 135.731 107.57 134.776C107.826 133.82 107.692 132.802 107.198 131.945C106.703 131.088 105.889 130.463 104.933 130.206C103.977 129.95 102.959 130.084 102.102 130.578L97.4388 133.307C97.9109 133.028 98.5764 133.071 99.3033 133.491C100.07 133.991 100.707 134.664 101.165 135.456C101.622 136.248 101.887 137.137 101.937 138.05C101.971 138.378 101.917 138.709 101.781 139.01C101.645 139.31 101.432 139.569 101.163 139.759L105.831 137.04Z" fill="#BD120A"/>
<path opacity="0.4" d="M104.997 131.565C105.092 131.727 105.154 131.907 105.179 132.093C105.204 132.279 105.192 132.468 105.143 132.65C105.094 132.831 105.01 133.001 104.895 133.15C104.78 133.298 104.636 133.422 104.473 133.515L98.8368 136.786C98.3612 135.999 98.0948 135.104 98.0627 134.185C98.0627 134.1 98.0627 134.015 98.0627 133.93L103.038 131.041C103.2 130.945 103.38 130.882 103.567 130.856C103.755 130.83 103.945 130.842 104.128 130.89C104.31 130.939 104.481 131.024 104.63 131.14C104.78 131.256 104.904 131.401 104.997 131.565Z" fill="white"/>
<path d="M101.163 139.741C101.432 139.55 101.645 139.291 101.781 138.991C101.917 138.691 101.971 138.36 101.937 138.032C101.887 137.118 101.622 136.23 101.165 135.437C100.707 134.645 100.069 133.972 99.3032 133.472C98.5762 133.052 97.9154 133 97.4387 133.288L94.0543 135.247C93.1974 135.741 92.5721 136.556 92.3158 137.512C92.0595 138.467 92.1934 139.485 92.6878 140.342C93.1823 141.199 93.997 141.825 94.9526 142.081C95.9081 142.337 96.9264 142.203 97.7833 141.709L101.163 139.741Z" fill="#F5F5F5"/>
<path opacity="0.1" d="M99.3039 133.472C100.07 133.972 100.708 134.645 101.165 135.437C101.623 136.229 101.888 137.118 101.938 138.031C101.972 138.359 101.918 138.69 101.782 138.991C101.646 139.291 101.433 139.549 101.164 139.74L101.433 139.584L101.631 139.466C101.9 139.277 102.114 139.019 102.25 138.72C102.386 138.42 102.44 138.09 102.405 137.762C102.355 136.849 102.091 135.96 101.633 135.168C101.176 134.375 100.538 133.702 99.7712 133.203C99.5049 133.009 99.192 132.889 98.8645 132.856C98.5369 132.823 98.2064 132.878 97.9067 133.014L97.4347 133.288C97.9161 133.009 98.5628 133.052 99.3039 133.472Z" fill="black"/>
<path d="M92.2135 138.084C92.139 138.768 92.2557 139.46 92.5507 140.082C92.8457 140.704 93.3073 141.233 93.8843 141.608C94.4614 141.984 95.1313 142.192 95.8196 142.21C96.5079 142.228 97.1876 142.054 97.7833 141.709L101.163 139.741C101.432 139.55 101.645 139.291 101.781 138.991C101.917 138.691 101.971 138.36 101.937 138.032C101.932 137.647 101.876 137.265 101.772 136.894L96.1076 140.165C94.2573 141.237 92.2371 139.306 92.2135 138.084Z" fill="#EBEBEB"/>
<path d="M93.5028 138.225C93.5953 138.389 93.7195 138.532 93.868 138.647C94.0165 138.762 94.1864 138.847 94.3678 138.895C94.5492 138.944 94.7386 138.956 94.9247 138.931C95.1109 138.906 95.2903 138.844 95.4523 138.749L101.168 135.445C100.724 134.641 100.083 133.964 99.3039 133.477C99.2293 133.433 99.152 133.393 99.0726 133.359L94.0221 136.28C93.8596 136.373 93.7171 136.498 93.6029 136.646C93.4887 136.794 93.405 136.964 93.3568 137.145C93.3085 137.325 93.2965 137.514 93.3216 137.699C93.3467 137.885 93.4083 138.064 93.5028 138.225Z" fill="white"/>
<path opacity="0.1" d="M106.936 131.556L106.804 131.386L106.7 131.273L106.582 131.155L106.454 131.032L106.388 130.975C106.191 130.806 105.975 130.659 105.746 130.536L105.496 130.414C106.544 131.046 107.205 133.765 105.345 134.836C104.708 135.205 103.759 135.78 101.791 136.909C101.895 137.279 101.951 137.661 101.956 138.046C101.99 138.374 101.936 138.705 101.8 139.005C101.664 139.305 101.451 139.564 101.182 139.755L105.85 137.055C106.275 136.81 106.647 136.484 106.945 136.095C107.244 135.706 107.462 135.262 107.589 134.789C107.716 134.315 107.748 133.822 107.684 133.336C107.619 132.85 107.46 132.381 107.214 131.957C107.158 131.858 107.096 131.759 107.03 131.664L106.936 131.556Z" fill="black"/>
<path d="M84.5928 95.9556C84.5928 93.704 83.106 91.4478 80.1276 89.7297C74.1755 86.2934 64.5227 86.2934 58.5706 89.7297C55.5922 91.4478 54.1053 93.704 54.1053 95.9556V135.09C54.1053 137.342 55.5922 139.593 58.5706 141.312C64.5227 144.753 74.1755 144.753 80.1276 141.312C83.106 139.593 84.5928 137.342 84.5928 135.09V95.9556Z" fill="#BD120A"/>
<path opacity="0.4" d="M78.7355 89.0266V142.02C79.2194 141.815 79.6921 141.585 80.1515 141.331C81.0375 140.83 81.8519 140.213 82.573 139.495V91.5708C81.8511 90.8524 81.0368 90.2333 80.1515 89.7299C79.6795 89.475 79.2075 89.2437 78.7355 89.0266Z" fill="white"/>
<path opacity="0.4" d="M74.7379 143.317C75.4791 143.154 76.2117 142.954 76.9328 142.718V88.3274C76.2123 88.0887 75.4797 87.8886 74.7379 87.7279V143.317Z" fill="white"/>
<path opacity="0.1" d="M84.3285 94.3316C83.3831 93.0604 82.1738 92.009 80.7837 91.2493C74.9071 87.8555 65.6367 87.6242 59.2881 90.546V89.3565C59.0473 89.4793 58.8161 89.5973 58.5706 89.7294C55.5922 91.4476 54.1053 93.7038 54.1053 95.9553V101.912V126.556V135.09C54.1053 137.342 55.5922 139.593 58.5706 141.311C64.5227 144.752 74.1755 144.752 80.1276 141.311C81.1373 140.747 82.0543 140.03 82.8464 139.187C80.0143 141.835 72.9341 143.294 67.7088 142.26C62.4836 141.226 59.2881 137.884 59.2881 135.505V127.755C62.2287 129.346 66.0757 130.115 69.8329 130.115V114.284C66.0568 114.284 62.2287 113.703 59.2881 112.122V105.155C65.6367 108.077 74.9071 107.845 80.7837 104.452C82.3303 103.62 83.6408 102.41 84.5928 100.935V95.9553C84.5911 95.4035 84.5019 94.8554 84.3285 94.3316Z" fill="black"/>
<path opacity="0.1" d="M56.6778 136.181V91.0606C54.9644 92.538 54.1053 94.2467 54.1053 95.9554V135.09C54.1053 137.342 55.5922 139.593 58.5706 141.311C60.3743 142.315 62.3286 143.019 64.3575 143.398C58.632 141.845 56.6778 137.932 56.6778 136.181Z" fill="black"/>
<path d="M85.5184 88.993C85.5184 86.6046 83.9419 84.2115 80.7983 82.3848C74.4827 78.7409 64.2447 78.7409 57.9291 82.3848C54.7714 84.2068 53.209 86.5999 53.209 88.993V96.1582C53.209 98.5466 54.7855 100.94 57.9291 102.766C64.2447 106.41 74.4827 106.41 80.7983 102.766C83.9561 100.944 85.5184 98.5514 85.5184 96.1582V88.993Z" fill="#E0E0E0"/>
<mask id="mask0_514_5492" style="mask-type:luminance" maskUnits="userSpaceOnUse" x="53" y="79" width="33" height="27">
<path d="M85.5191 88.9937C85.5191 86.6053 83.9425 84.2121 80.7989 82.3854C74.4833 78.7415 64.2453 78.7415 57.9298 82.3854C54.772 84.2074 53.2096 86.6005 53.2096 88.9937V96.1588C53.2096 98.5472 54.7861 100.94 57.9298 102.767C64.2453 106.411 74.4833 106.411 80.7989 102.767C83.9567 100.945 85.5191 98.552 85.5191 96.1588V88.9937Z" fill="white"/>
</mask>
<g mask="url(#mask0_514_5492)">
<g opacity="0.2">
<path d="M85.9053 88.3275H85.1312V99.4765H85.9053V88.3275Z" fill="#34373F"/>
<path d="M84.1202 91.3389H83.3461V102.549H84.1202V91.3389Z" fill="#34373F"/>
<path d="M81.4207 93.4107H80.6466V104.678H81.4207V93.4107Z" fill="#34373F"/>
<path d="M78.3437 94.7H77.5696V106.028H78.3437V94.7Z" fill="#34373F"/>
<path d="M74.9584 95.5588H74.1843V106.949H74.9584V95.5588Z" fill="#34373F"/>
<path d="M71.3764 95.9886H70.6023V107.44H71.3764V95.9886Z" fill="#34373F"/>
<path d="M67.7366 95.9744H66.9625V107.482H67.7366V95.9744Z" fill="#34373F"/>
<path d="M64.1872 95.5026H63.4131V107.072H64.1872V95.5026Z" fill="#34373F"/>
<path d="M60.8598 94.5437H60.0857V106.174H60.8598V94.5437Z" fill="#34373F"/>
<path d="M57.8427 93.0615H57.0686V104.753H57.8427V93.0615Z" fill="#34373F"/>
<path d="M55.4505 90.9996H54.6764V102.748H55.4505V90.9996Z" fill="#34373F"/>
<path d="M53.5677 87.667H52.7936V99.4768H53.5677V87.667Z" fill="#34373F"/>
</g>
<path opacity="0.1" d="M73.2177 105.212C65.2171 105.259 60.9925 102.658 59.7134 100.539C58.7363 98.9245 58.5711 95.9508 58.5711 92.9865C58.5711 92.9865 57.6695 86.265 57.8442 86.2461C58.0188 86.2272 55.9231 85.7741 54.3702 85.4626C53.6156 86.4815 53.1996 87.7114 53.1807 88.9791V96.1584C53.1807 98.5468 54.7572 100.94 57.9008 102.767C62.064 105.155 67.9076 105.967 73.2177 105.212Z" fill="#34373F"/>
</g>
<path d="M69.3479 98.3289C78.279 98.3289 85.5191 94.1489 85.5191 88.9925C85.5191 83.8361 78.279 79.656 69.3479 79.656C60.4167 79.656 53.1766 83.8361 53.1766 88.9925C53.1766 94.1489 60.4167 98.3289 69.3479 98.3289Z" fill="#EBEBEB"/>
<path d="M81.6526 95.0396C87.0714 91.3721 86.7882 85.8589 80.7841 82.3896C77.7066 80.6148 73.7039 79.7086 69.6587 79.6661C67.5899 79.9876 65.5931 80.6681 63.7585 81.6769C58.302 84.7969 58.302 91.0275 63.7585 94.1475C68.6297 96.9324 76.2008 97.2251 81.6526 95.0396Z" fill="white"/>
<path opacity="0.1" d="M59.4501 140.617C64.916 143.364 73.7852 143.364 79.2511 140.617C84.7171 137.87 84.7218 133.414 79.2511 130.667C73.7805 127.92 64.916 127.92 59.4501 130.667C53.9842 133.414 53.9794 137.87 59.4501 140.617Z" fill="black"/>
<path d="M54.1053 106.241C54.1053 108.492 55.5922 110.744 58.5706 112.462C61.549 114.18 65.4479 115.039 69.3467 115.039V130.554C65.4479 130.554 61.5443 129.695 58.5706 127.977C55.5969 126.259 54.1053 124.007 54.1053 121.756V106.241Z" fill="white"/>
<path d="M54.4167 92.5757C54.4167 92.5757 59.675 97.8717 69.8328 97.5932C79.9905 97.3147 84.0593 91.7686 84.5927 90.041C84.8662 89.0283 84.8844 87.9635 84.6455 86.9421C84.4066 85.9206 83.9181 84.9744 83.2239 84.188C83.9114 84.7901 84.4692 85.5257 84.8636 86.3501C85.258 87.1745 85.4805 88.0705 85.5178 88.9837V96.1583C85.5178 96.7625 85.8294 98.8488 82.5489 101.549C82.5489 101.549 84.4747 99.3633 84.4747 97.2628V92.3067C84.4747 92.3067 80.8779 98.3201 69.8422 98.3201C58.8065 98.3201 54.9737 93.4772 54.4167 92.5757Z" fill="white"/>
</svg>
