<svg width="250" height="104" viewBox="0 0 250 104" fill="none" xmlns="http://www.w3.org/2000/svg">
<path fill-rule="evenodd" clip-rule="evenodd" d="M0.875488 23.0967V102.999C5.97434 102.791 11.0382 102.88 16.0734 102.969C24.6496 103.12 33.1426 103.27 41.5835 101.943C59.0766 99.1952 72.9256 84.4176 74.1513 67.7313C75.6653 47.1292 65.4866 31.407 46.9186 25.4842C42.1013 23.9494 37.1726 23.1951 32.1717 23.136C24.8089 23.0432 17.4427 23.0621 10.0477 23.081C6.99582 23.0888 3.93901 23.0967 0.875488 23.0967ZM24.7681 38.7155C22.587 38.7486 20.3864 38.782 18.1719 38.7006V87.028C19.9391 87.028 21.7031 87.0547 23.4637 87.0814C27.3514 87.1404 31.2226 87.1992 35.0752 86.9689C45.5684 86.3458 53.5187 79.1898 55.734 68.8396C58.1459 57.5711 53.263 46.401 43.8774 41.6194C37.7974 38.5179 31.3728 38.6154 24.7681 38.7155Z" fill="#891515"/>
<path d="M61.7303 23.1596C73.3796 23.4124 84.8888 21.9133 96.2405 23.7087C111.828 26.1665 123.425 34.3765 128.563 49.524C133.691 64.6367 130.926 78.6773 119.679 90.4171C111.784 98.6707 101.597 102.314 90.3152 102.662C80.749 102.959 71.1652 102.723 60.7588 102.723C67.2355 98.1913 72.2768 93.1102 76.1278 86.7305C80.8977 86.7305 85.5802 86.9135 90.2452 86.6956C103.969 86.0507 113.229 74.9646 112.266 61.3597C111.373 48.7222 102.883 38.8388 87.1469 38.7778C83.5497 38.7604 79.9525 38.7778 76.119 38.7778C72.3818 32.6857 67.5681 27.5 61.739 23.1596H61.7303Z" fill="#891515"/>
<path d="M250 23.0425V39.1091H225.791V103.042H208.024V39.3459H188.34C187.517 33.2858 185.557 27.8748 181.452 23.0425H250Z" fill="#891515"/>
<path fill-rule="evenodd" clip-rule="evenodd" d="M175.16 71.8086C171.673 68.426 168.318 65.177 164.725 61.6866C167.901 60.2718 170.944 58.8648 173.627 56.8836C184.823 48.6423 184.083 32.6422 172.183 25.4255C168.378 23.1172 164.132 22.1923 159.71 22.0259C146.92 21.5425 135.892 27.8591 134.043 39.1253C143.441 58.0921 141.856 75.7168 128 92.125C131.999 96.8751 137.214 99.5 143.282 100.692C155.121 103.025 165.612 100.1 175.125 92.7834C178.296 95.9336 181.291 98.9169 184.382 102C188.963 98.9833 193.235 96.1834 198 93.0503L185.563 82.0417L186.666 80.4971C190.226 75.5166 193.634 70.7502 196.318 65.4838C193.448 64.0169 190.664 62.5976 187.898 61.189L183.237 58.8172C182.848 59.4568 182.47 60.0936 182.1 60.7267C181.667 61.4681 181.244 62.2046 180.825 62.935C179.052 66.0233 177.34 69.0047 175.16 71.8086ZM165.312 82.875C160.459 86.3169 155.931 88.2749 150.435 87.3501C146.233 86.6416 142.939 84.6918 141.97 80.5919C141.019 76.5583 142.41 73.0252 145.872 70.3669C146.876 69.6004 148.004 68.9754 149.202 68.2002C150.067 69.0246 150.916 69.8412 151.757 70.6501C153.567 72.3921 155.339 74.0966 157.156 75.7583C158.923 77.3737 160.741 78.9378 162.636 80.5695L162.712 80.6354C163.559 81.3642 164.422 82.1076 165.303 82.875H165.312ZM150.285 42.4672C150.03 46.6175 152.073 49.7673 155.147 52.734C160.424 50.6255 162.74 49.2005 164.299 47.1424C166.193 44.6425 166.334 40.4172 164.599 38.0593C162.916 35.7676 159.041 34.6507 155.711 35.5007C152.514 36.3092 150.505 38.9508 150.285 42.4672Z" fill="#34373F"/>
<path d="M4.33008 4.18945H7.72852V8.63086C7.2793 8.7793 6.8125 8.89844 6.32812 8.98828C5.84375 9.07422 5.29492 9.11719 4.68164 9.11719C3.83008 9.11719 3.10742 8.94922 2.51367 8.61328C1.91992 8.27734 1.46875 7.78125 1.16016 7.125C0.851562 6.46875 0.697266 5.66211 0.697266 4.70508C0.697266 3.80664 0.869141 3.0293 1.21289 2.37305C1.56055 1.7168 2.06641 1.20898 2.73047 0.849609C3.39844 0.490234 4.21289 0.310547 5.17383 0.310547C5.62695 0.310547 6.07422 0.359375 6.51562 0.457031C6.95703 0.554688 7.35742 0.681641 7.7168 0.837891L7.11328 2.29102C6.85156 2.1582 6.55273 2.04687 6.2168 1.95703C5.88086 1.86719 5.5293 1.82227 5.16211 1.82227C4.63477 1.82227 4.17578 1.94336 3.78516 2.18555C3.39844 2.42773 3.09766 2.76758 2.88281 3.20508C2.67188 3.63867 2.56641 4.15039 2.56641 4.74023C2.56641 5.29883 2.64258 5.79492 2.79492 6.22852C2.94727 6.6582 3.1875 6.99609 3.51562 7.24219C3.84375 7.48438 4.27148 7.60547 4.79883 7.60547C5.05664 7.60547 5.27344 7.59375 5.44922 7.57031C5.62891 7.54297 5.79688 7.51562 5.95312 7.48828V5.70117H4.33008V4.18945ZM12.8934 9V0.433594H14.7098V7.5H18.1845V9H12.8934ZM30.574 4.70508C30.574 5.36523 30.492 5.9668 30.3279 6.50977C30.1638 7.04883 29.9138 7.51367 29.5779 7.9043C29.2459 8.29492 28.824 8.5957 28.3123 8.80664C27.8005 9.01367 27.1951 9.11719 26.4959 9.11719C25.7966 9.11719 25.1912 9.01367 24.6795 8.80664C24.1677 8.5957 23.7439 8.29492 23.408 7.9043C23.0759 7.51367 22.8279 7.04688 22.6638 6.50391C22.4998 5.96094 22.4177 5.35742 22.4177 4.69336C22.4177 3.80664 22.5623 3.03516 22.8513 2.37891C23.1443 1.71875 23.5935 1.20703 24.199 0.84375C24.8045 0.480469 25.574 0.298828 26.5076 0.298828C27.4373 0.298828 28.2009 0.480469 28.7986 0.84375C29.4002 1.20703 29.8455 1.71875 30.1345 2.37891C30.4275 3.03906 30.574 3.81445 30.574 4.70508ZM24.322 4.70508C24.322 5.30273 24.3962 5.81836 24.5447 6.25195C24.697 6.68164 24.9334 7.01367 25.2537 7.24805C25.574 7.47852 25.988 7.59375 26.4959 7.59375C27.0115 7.59375 27.4295 7.47852 27.7498 7.24805C28.0701 7.01367 28.3025 6.68164 28.447 6.25195C28.5955 5.81836 28.6697 5.30273 28.6697 4.70508C28.6697 3.80664 28.5017 3.09961 28.1658 2.58398C27.8298 2.06836 27.2771 1.81055 26.5076 1.81055C25.9959 1.81055 25.5779 1.92773 25.2537 2.16211C24.9334 2.39258 24.697 2.72461 24.5447 3.1582C24.3962 3.58789 24.322 4.10352 24.322 4.70508ZM35.4694 0.433594H38.1354C39.276 0.433594 40.1393 0.59375 40.7252 0.914062C41.3112 1.23438 41.6041 1.79688 41.6041 2.60156C41.6041 2.92578 41.5514 3.21875 41.4459 3.48047C41.3444 3.74219 41.1959 3.95703 41.0006 4.125C40.8053 4.29297 40.567 4.40234 40.2858 4.45312V4.51172C40.5709 4.57031 40.8288 4.67188 41.0592 4.81641C41.2897 4.95703 41.4733 5.16406 41.61 5.4375C41.7506 5.70703 41.8209 6.06641 41.8209 6.51562C41.8209 7.03516 41.694 7.48047 41.4401 7.85156C41.1862 8.22266 40.8229 8.50781 40.3502 8.70703C39.8815 8.90234 39.3229 9 38.6745 9H35.4694V0.433594ZM37.2858 3.82617H38.3405C38.8678 3.82617 39.233 3.74414 39.4362 3.58008C39.6393 3.41211 39.7409 3.16602 39.7409 2.8418C39.7409 2.51367 39.6198 2.2793 39.3776 2.13867C39.1393 1.99414 38.7604 1.92188 38.2409 1.92188H37.2858V3.82617ZM37.2858 5.26758V7.5H38.4694C39.0163 7.5 39.3971 7.39453 39.612 7.18359C39.8268 6.97266 39.9342 6.68945 39.9342 6.33398C39.9342 6.12305 39.8873 5.9375 39.7936 5.77734C39.6998 5.61719 39.5416 5.49219 39.319 5.40234C39.1002 5.3125 38.7975 5.26758 38.4108 5.26758H37.2858ZM51.896 9L51.2749 6.96094H48.1519L47.5308 9H45.5737L48.5972 0.398438H50.8179L53.853 9H51.896ZM50.8413 5.4375L50.2202 3.44531C50.1812 3.3125 50.1284 3.14258 50.062 2.93555C49.9995 2.72461 49.9351 2.51172 49.8687 2.29688C49.8062 2.07813 49.7554 1.88867 49.7163 1.72852C49.6773 1.88867 49.6226 2.08789 49.5523 2.32617C49.4859 2.56055 49.4214 2.7832 49.3589 2.99414C49.2964 3.20508 49.2515 3.35547 49.2241 3.44531L48.6089 5.4375H50.8413ZM58.057 9V0.433594H59.8734V7.5H63.348V9H58.057Z" fill="#34373F"/>
</svg>
