<svg width="80" height="80" viewBox="0 0 80 80" fill="none" xmlns="http://www.w3.org/2000/svg">
<path fill-rule="evenodd" clip-rule="evenodd" d="M52.7456 6.66677L46.7984 2.4536C42.8895 -0.8019 37.2208 -0.827512 33.2827 2.39253L27.2559 6.66677H14.8128C13.3006 6.62884 12.0425 7.8213 11.9995 9.33344V17.4714L0.572588 25.5718C0.413629 25.6822 0.282179 25.8249 0.185493 25.9885C0.066364 26.19 9.87457e-06 26.4232 0 26.6668V26.6669V26.6671V76.0002C0.00242495 78.2083 1.79187 79.9977 4 80.0002H76C78.2081 79.9977 79.9976 78.2083 80 76.0002V26.6887C80.001 26.6266 79.9977 26.5649 79.9901 26.5039C79.9428 26.1164 79.7274 25.769 79.4027 25.5542L67.9995 17.4706V9.33344C67.9564 7.82137 66.6984 6.62899 65.1862 6.66677H52.7456ZM52.298 9.33344C52.3051 9.33355 52.3122 9.3336 52.3194 9.3336C52.327 9.33361 52.3347 9.33356 52.3423 9.33344H65.1862C65.2273 9.33375 65.2609 9.34192 65.2855 9.34791C65.3143 9.35492 65.3308 9.35894 65.3329 9.34384V36.0141L46.7018 51.4986C46.5647 51.5766 46.4437 51.6778 46.3435 51.7964L45.1003 52.8296C42.1409 55.2755 37.862 55.2762 34.9017 52.8315L33.6543 51.7947C33.5547 51.6773 33.4347 51.577 33.299 51.4995L14.6659 36.0137L14.6528 9.39077C14.6961 9.35055 14.7539 9.32982 14.8128 9.33344H27.6402C27.6672 9.33426 27.6942 9.33426 27.7212 9.33344H52.298ZM31.8628 6.66677H48.1349L45.1758 4.56813C42.2172 2.06812 37.8941 2.04207 34.9056 4.50627L31.8628 6.66677ZM12.4518 37.6409C12.4711 37.6579 12.4909 37.6744 12.5112 37.6903L30.5354 52.6701L2.66667 75.8249V29.5086L12.4518 37.6409ZM11.9995 33.7977V20.74L3.52032 26.7508L11.9995 33.7977ZM67.5229 37.6618C67.5196 37.6646 67.5162 37.6674 67.5128 37.6702L49.4638 52.6704L77.3333 75.8265V29.5086L67.5229 37.6618ZM67.9995 33.7978V20.7391L76.4792 26.7503L67.9995 33.7978ZM46.8028 54.8819L47.3778 54.404L74.9753 77.3335H5.02344L32.6214 54.4037L33.1992 54.8839C37.1477 58.145 42.8553 58.1442 46.8028 54.8819Z" fill="#A1A4AC" fill-opacity="0.5"/>
<path d="M39.9999 41.5432L38.3427 40.0346C32.457 34.6975 28.5713 31.1661 28.5713 26.8575C28.5713 23.3261 31.337 20.5718 34.857 20.5718C36.8456 20.5718 38.7541 21.4975 39.9999 22.9489C41.2456 21.4975 43.1541 20.5718 45.1427 20.5718C48.6627 20.5718 51.4284 23.3261 51.4284 26.8575C51.4284 31.1661 47.5427 34.6975 41.657 40.0346L39.9999 41.5432Z" fill="#BD120A"/>
</svg>
