<svg width="95" height="121" viewBox="0 0 95 121" fill="none" xmlns="http://www.w3.org/2000/svg">
<path d="M39.8541 53.0505V79.3096C39.8541 82.7097 42.5961 85.4765 45.9681 85.4765C46.7121 85.4765 47.4241 85.3434 48.0841 85.0974V103.901C48.0841 107.769 51.2061 110.917 55.0421 110.917C56.9821 110.917 58.7381 110.114 60.0001 108.817C61.2621 110.112 63.0181 110.917 64.9581 110.917C68.7961 110.917 71.9161 107.769 71.9161 103.901V85.0974C72.5761 85.3434 73.2901 85.4765 74.0321 85.4765C77.4041 85.4765 80.1481 82.7097 80.1481 79.3096V53.0505C80.1481 45.5223 74.0741 39.3977 66.6081 39.3977H53.3921C45.9261 39.3977 39.8541 45.5223 39.8541 53.0505ZM43.8541 53.0505C43.8541 47.7467 48.1341 43.431 53.3921 43.431H66.6081C71.8681 43.431 76.1481 47.7467 76.1481 53.0505V79.3096C76.1481 80.4853 75.1981 81.4432 74.0321 81.4432C72.8661 81.4432 71.9161 80.4853 71.9161 79.3096V57.342C71.9161 56.2288 71.0221 55.3253 69.9161 55.3253C68.8101 55.3253 67.9161 56.2288 67.9161 57.342V103.901C67.9161 105.544 66.5881 106.883 64.9581 106.883C63.3281 106.883 62.0001 105.544 62.0001 103.901V80.4671C62.0001 79.3539 61.1061 78.4505 60.0001 78.4505C58.8941 78.4505 58.0001 79.3539 58.0001 80.4671V103.901C58.0001 105.544 56.6721 106.883 55.0421 106.883C53.4121 106.883 52.0841 105.544 52.0841 103.901V57.342C52.0841 56.2288 51.1901 55.3253 50.0841 55.3253C48.9781 55.3253 48.0841 56.2288 48.0841 57.342V79.3096C48.0841 80.4853 47.1341 81.4432 45.9681 81.4432C44.8021 81.4432 43.8541 80.4853 43.8541 79.3096V53.0505Z" fill="#EDF2F4" fill-opacity="0.5"/>
<path d="M47.0719 23.1191C47.0719 30.3065 52.8719 36.1548 60.0019 36.1548C67.1319 36.1548 72.9299 30.3065 72.9299 23.1191C72.9299 15.9317 67.1299 10.0834 59.9999 10.0834C52.8699 10.0834 47.0719 15.9317 47.0719 23.1191ZM59.9999 14.1167C64.9219 14.1167 68.9279 18.1541 68.9279 23.1191C68.9279 28.0841 64.9219 32.1215 59.9999 32.1215C55.0759 32.1215 51.0699 28.0841 51.0699 23.1191C51.0699 18.1541 55.0779 14.1167 59.9999 14.1167Z" fill="#EDF2F4" fill-opacity="0.5"/>
<path d="M107.598 82.0562V58.2313C107.598 51.298 102.004 45.6594 95.13 45.6594H85.398C84.292 45.6594 83.398 46.5629 83.398 47.6761C83.398 48.7893 84.292 49.6928 85.398 49.6928H95.13C99.8 49.6928 103.598 53.5224 103.598 58.2313V82.0562C103.598 83.0202 102.82 83.8027 101.866 83.8027C100.908 83.8027 100.132 83.0182 100.132 82.0562V62.1255C100.132 61.0123 99.238 60.1088 98.132 60.1088C97.026 60.1088 96.132 61.0123 96.132 62.1255V104.365C96.132 105.752 95.01 106.883 93.634 106.883C92.258 106.883 91.136 105.752 91.136 104.365V83.1049C91.136 81.9917 90.242 81.0882 89.136 81.0882C88.03 81.0882 87.136 81.9917 87.136 83.1049V104.365C87.136 105.752 86.014 106.883 84.638 106.883C83.262 106.883 82.14 105.752 82.14 104.365V89.8486C82.14 88.7354 81.246 87.832 80.14 87.832C79.034 87.832 78.14 88.7354 78.14 89.8486V104.365C78.14 107.978 81.054 110.917 84.638 110.917C86.382 110.917 87.968 110.221 89.136 109.09C90.304 110.221 91.89 110.917 93.634 110.917C97.218 110.917 100.132 107.976 100.132 104.365V87.5658C100.678 87.7412 101.262 87.836 101.866 87.836C105.026 87.836 107.598 85.2426 107.598 82.0562Z" fill="#EDF2F4" fill-opacity="0.5"/>
<path d="M89.136 18.8801C82.566 18.8801 77.222 24.2707 77.222 30.8954C77.222 37.5202 82.566 42.9107 89.136 42.9107C95.706 42.9107 101.05 37.5202 101.05 30.8954C101.05 24.2707 95.706 18.8801 89.136 18.8801ZM89.136 38.8774C84.772 38.8774 81.222 35.2978 81.222 30.8954C81.222 26.493 84.772 22.9135 89.136 22.9135C93.5 22.9135 97.0501 26.493 97.0501 30.8954C97.0501 35.2978 93.5 38.8774 89.136 38.8774Z" fill="#EDF2F4" fill-opacity="0.5"/>
<path d="M12.4021 58.2313V82.0562C12.4021 85.2446 14.9741 87.836 18.1361 87.836C18.7401 87.836 19.3221 87.7412 19.8681 87.5658V104.365C19.8681 107.978 22.7821 110.917 26.3661 110.917C28.1101 110.917 29.6961 110.221 30.8641 109.09C32.0321 110.221 33.6181 110.917 35.3621 110.917C38.9461 110.917 41.8621 107.976 41.8621 104.365V89.8486C41.8621 88.7354 40.9681 87.832 39.8621 87.832C38.7561 87.832 37.8621 88.7354 37.8621 89.8486V104.365C37.8621 105.752 36.7401 106.883 35.3621 106.883C33.9861 106.883 32.8641 105.752 32.8641 104.365V83.1049C32.8641 81.9917 31.9701 81.0882 30.8641 81.0882C29.7581 81.0882 28.8641 81.9917 28.8641 83.1049V104.365C28.8641 105.752 27.7421 106.883 26.3661 106.883C24.9901 106.883 23.8681 105.752 23.8681 104.365V62.1255C23.8681 61.0123 22.9741 60.1088 21.8681 60.1088C20.7621 60.1088 19.8681 61.0123 19.8681 62.1255V82.0562C19.8681 83.0202 19.0901 83.8027 18.1361 83.8027C17.1781 83.8027 16.4021 83.0182 16.4021 82.0562V58.2313C16.4021 53.5244 20.2001 49.6928 24.8701 49.6928H34.6021C35.7081 49.6928 36.6021 48.7893 36.6021 47.6761C36.6021 46.5629 35.7081 45.6594 34.6021 45.6594H24.8701C17.9961 45.6594 12.4021 51.298 12.4021 58.2313Z" fill="#EDF2F4" fill-opacity="0.5"/>
<path d="M18.95 30.8954C18.95 37.5202 24.294 42.9107 30.8639 42.9107C37.434 42.9107 42.7799 37.5202 42.7799 30.8954C42.7799 24.2707 37.434 18.8801 30.8639 18.8801C24.294 18.8801 18.95 24.2687 18.95 30.8954ZM30.8639 22.9135C35.2299 22.9135 38.7799 26.493 38.7799 30.8954C38.7799 35.2978 35.2299 38.8774 30.8639 38.8774C26.5 38.8774 22.95 35.2978 22.95 30.8954C22.95 26.493 26.5 22.9135 30.8639 22.9135Z" fill="#EDF2F4" fill-opacity="0.5"/>
</svg>
