<svg xmlns="http://www.w3.org/2000/svg" width="18" height="18" viewBox="0 0 18 18" fill="none">
  <path d="M8.9974 17.3332C7.34922 17.3332 5.73806 16.8444 4.36765 15.9288C2.99724 15.0131 1.92913 13.7116 1.2984 12.1889C0.667673 10.6661 0.502645 8.99059 0.824189 7.37409C1.14573 5.75758 1.9394 4.27272 3.10484 3.10728C4.27028 1.94185 5.75514 1.14817 7.37164 0.82663C8.98815 0.505087 10.6637 0.670115 12.1864 1.30084C13.7091 1.93157 15.0106 2.99968 15.9263 4.37009C16.842 5.7405 17.3307 7.35166 17.3307 8.99984C17.3287 11.2093 16.45 13.3278 14.8877 14.8901C13.3253 16.4525 11.2069 17.3311 8.9974 17.3332ZM8.9974 1.8293C7.5792 1.8293 6.19285 2.24984 5.01366 3.03775C3.83447 3.82566 2.9154 4.94555 2.37268 6.25579C1.82996 7.56604 1.68796 9.00779 1.96464 10.3987C2.24131 11.7897 2.92424 13.0674 3.92706 14.0702C4.92988 15.073 6.20755 15.7559 7.59849 16.0326C8.98944 16.3093 10.4312 16.1673 11.7414 15.6246C13.0517 15.0818 14.1716 14.1628 14.9595 12.9836C15.7474 11.8044 16.1679 10.418 16.1679 8.99984C16.1659 7.09872 15.4098 5.27606 14.0655 3.93177C12.7212 2.58747 10.8985 1.83135 8.9974 1.8293Z" fill="#34373F"/>
  <path d="M9.77241 13.4572H8.22202C8.06782 13.4572 7.91994 13.396 7.81091 13.2869C7.70188 13.1779 7.64062 13.03 7.64062 12.8758C7.64062 12.7216 7.70188 12.5738 7.81091 12.4647C7.91994 12.3557 8.06782 12.2944 8.22202 12.2944H9.77241C9.9266 12.2944 10.0745 12.3557 10.1835 12.4647C10.2925 12.5738 10.3538 12.7216 10.3538 12.8758C10.3538 13.03 10.2925 13.1779 10.1835 13.2869C10.0745 13.396 9.9266 13.4572 9.77241 13.4572Z" fill="#34373F"/>
  <path d="M8.999 13.4571C8.84543 13.4551 8.69872 13.3932 8.59012 13.2846C8.48152 13.176 8.41962 13.0293 8.41761 12.8757V7.99974C8.28667 7.9552 8.17589 7.86544 8.10517 7.74657C8.03446 7.6277 8.00844 7.48752 8.03178 7.35119C8.05512 7.21486 8.1263 7.09132 8.23254 7.00275C8.33877 6.91419 8.4731 6.86639 8.61141 6.86796H8.999C9.15258 6.86996 9.29929 6.93186 9.40789 7.04046C9.51649 7.14906 9.57839 7.29578 9.5804 7.44935V12.8757C9.57839 13.0293 9.51649 13.176 9.40789 13.2846C9.29929 13.3932 9.15258 13.4551 8.999 13.4571Z" fill="#34373F"/>
  <path d="M8.99785 5.89902C9.42598 5.89902 9.77304 5.55195 9.77304 5.12383C9.77304 4.6957 9.42598 4.34863 8.99785 4.34863C8.56972 4.34863 8.22266 4.6957 8.22266 5.12383C8.22266 5.55195 8.56972 5.89902 8.99785 5.89902Z" fill="#34373F"/>
</svg>