<svg xmlns="http://www.w3.org/2000/svg" width="46" height="46" viewBox="0 0 46 46" fill="none">
  <g clip-path="url(#clip0_218_1852)">
    <path d="M37.7085 29.6859C34.9903 28.3136 32.0037 27.3686 29.0627 26.7751C28.3671 26.0285 27.8887 25.1062 27.6789 24.1076C29.4994 22.6838 30.8932 20.5482 31.6568 18.0042C33.7652 17.6849 34.3135 14.4451 33.4773 12.6709C37.3169 -4.15481 8.00915 -4.18972 11.7576 12.6343C10.8777 14.4075 11.4252 17.6911 13.5581 18.0058C14.3116 20.5499 15.7154 22.6856 17.5359 24.1093C17.3182 25.1519 16.8096 26.1114 16.0689 26.8768C14.6768 27.1202 13.8199 27.3252 13.8015 27.3453C8.09832 28.9152 3.03721 30.6795 3.73205 37.7C3.44252 47.756 41.7687 47.7653 41.4947 37.7003C41.7959 34.5327 40.7731 31.1303 37.7085 29.6859ZM22.6324 1.38425C29.2485 1.29313 33.1449 5.64455 32.2869 11.5172C31.8958 11.3288 31.4259 11.3206 31.0049 11.4155C30.8382 10.9154 30.5664 10.1134 30.0996 8.81143C30.0403 8.6961 29.9434 8.59172 29.8662 8.48638C23.9043 4.51958 21.4154 11.8749 16.0621 8.46472C16.0305 8.44475 16.0088 8.42637 15.9805 8.40471C15.707 8.33498 15.4006 8.38129 15.227 8.62814C14.6728 9.74401 14.3817 10.9808 14.1983 11.4156C13.794 11.3121 13.3503 11.3207 12.968 11.4973C12.1098 5.62953 16.0186 1.29498 22.6324 1.38425ZM14.7184 17.0705C14.3789 16.2117 13.8154 16.8225 13.4464 16.5404C12.6094 15.9715 12.4014 13.0627 13.4765 12.7576C14.0355 12.5736 14.5293 13.286 15.0536 12.8776C15.2004 12.7619 15.2986 12.5953 15.3287 12.4108C15.3787 12.1857 15.7338 11.1487 16.1222 10.0768C22.2238 12.877 23.5363 6.49387 28.8994 9.49991C29.6063 11.2261 29.6217 12.1417 30.1595 12.876C30.682 13.2869 31.1794 12.5673 31.7368 12.7559C32.1653 12.8759 32.5704 13.6911 32.4704 14.7898C32.3871 15.7051 32.0419 16.2902 31.7685 16.5387C31.3714 16.7965 30.7682 16.2142 30.4965 17.0689C28.0651 26.9474 17.1402 26.9498 14.7184 17.0705ZM18.758 24.9245C21.1458 26.2804 24.0708 26.2804 26.4586 24.9245C26.7542 25.9507 27.2871 26.8931 28.0141 27.6753C27.659 28.794 25.1032 30.9113 22.6124 32.4567C20.1117 30.9112 17.5559 28.789 17.2092 27.6753C17.9329 26.8918 18.4634 25.9497 18.758 24.9245ZM5.10555 37.6999C4.59586 32.1021 7.66456 30.7139 12.3677 29.1774C12.151 30.0756 11.9841 30.985 11.8676 31.9015C8.95118 32.7816 9.10885 35.4652 9.56691 37.925C8.92687 38.7951 10.0087 39.98 10.9324 39.4103C11.6209 39.0345 11.5945 37.9733 10.9006 37.6199C10.6416 35.8172 10.1484 33.5888 12.6169 33.2221C14.9558 33.1187 14.9992 35.3844 15.1769 37.0981C14.5771 37.6165 14.8476 38.6504 15.6122 38.8345C16.618 39.1406 17.3787 37.7638 16.549 37.0981C16.3978 34.7843 16.037 32.2037 13.253 31.8299C13.404 30.7837 13.6206 29.748 13.9015 28.7289C14.3474 28.6118 14.5527 28.5444 15.9972 28.2805C16.8825 30.3561 20.5669 32.7985 21.9289 33.6321V43.8652C13.9218 43.5372 5.11217 41.8994 5.10555 37.6999ZM40.1159 37.6999C40.1138 41.891 31.3063 43.5392 23.2892 43.8651V33.632C24.673 32.7768 28.4074 30.2977 29.2426 28.2204C29.918 28.3486 30.5708 28.5161 31.2149 28.6872C31.6065 30.1195 31.872 31.5833 32.0084 33.0619C28.8202 34.2094 30.4461 38.9796 33.6712 37.9412C36.1096 37.1945 35.8782 33.4414 33.3822 32.9818C33.2608 31.6905 33.0496 30.4093 32.7504 29.1473C37.4776 30.6737 40.6438 32.0695 40.1159 37.6999ZM32.8421 34.2839C34.4085 34.2995 34.4124 36.6762 32.841 36.6836C31.2685 36.6727 31.279 34.2967 32.8455 34.2839H32.8421Z" fill="#BD120A"/>
  </g>
  <defs>
    <clipPath id="clip0_218_1852">
      <rect width="45.25" height="45.25" fill="white"/>
    </clipPath>
  </defs>
</svg>