<svg xmlns="http://www.w3.org/2000/svg" width="16" height="26" viewBox="0 0 16 26" fill="none">
<path d="M3.451 5.2446H12.549C12.6697 5.2446 12.7854 5.19653 12.8707 5.11098C12.956 5.02542 13.0039 4.90939 13.0039 4.7884V1.13882C13.0039 1.01782 12.956 0.901788 12.8707 0.816235C12.7854 0.730681 12.6697 0.682617 12.549 0.682617H3.451C3.33035 0.682617 3.21464 0.730681 3.12933 0.816235C3.04402 0.901788 2.99609 1.01782 2.99609 1.13882V4.7884C2.99609 4.90939 3.04402 5.02542 3.12933 5.11098C3.21464 5.19653 3.33035 5.2446 3.451 5.2446ZM3.9059 1.59501H12.0941V4.3322H3.9059V1.59501Z" fill="white"/>
<path d="M13.2085 8.02984C12.8246 7.83866 12.4892 7.56227 12.2277 7.22165C11.9662 6.88103 11.7856 6.48514 11.6995 6.06404C11.6739 5.94664 11.6031 5.84411 11.5025 5.77873C11.402 5.71336 11.2798 5.69041 11.1624 5.71488C11.0451 5.73935 10.9422 5.80926 10.8759 5.90942C10.8097 6.00958 10.7856 6.1319 10.8088 6.2498C10.9225 6.80592 11.161 7.32875 11.5063 7.7786C11.8516 8.22844 12.2946 8.59347 12.8016 8.84598C13.2403 9.06499 13.6144 9.39508 13.8868 9.80359C14.1592 10.2121 14.3206 10.6849 14.3549 11.1751H1.64736C1.68165 10.6849 1.843 10.2121 2.11544 9.80358C2.38788 9.39507 2.76196 9.06498 3.20067 8.84598C3.70766 8.59347 4.15063 8.22844 4.49593 7.7786C4.84123 7.32875 5.07979 6.80592 5.1935 6.2498C5.21669 6.1319 5.19255 6.00958 5.12633 5.90942C5.0601 5.80926 4.95715 5.73935 4.83982 5.71488C4.72249 5.69041 4.60028 5.71336 4.49973 5.77873C4.39918 5.84411 4.32841 5.94664 4.3028 6.06404C4.21669 6.48514 4.03604 6.88104 3.77456 7.22166C3.51307 7.56228 3.17763 7.83867 2.79371 8.02984C2.16986 8.33999 1.64515 8.81924 1.27909 9.41325C0.913036 10.0072 0.720277 10.6922 0.722678 11.3905V23.9486C0.723076 24.3115 0.866984 24.6594 1.12283 24.9159C1.37868 25.1725 1.72556 25.3168 2.08738 25.3172H13.9148C14.2767 25.3168 14.6235 25.1725 14.8794 24.9159C15.1352 24.6594 15.2791 24.3115 15.2795 23.9486V11.3905C15.2819 10.6922 15.0892 10.0072 14.7231 9.41325C14.3571 8.81924 13.8324 8.33999 13.2085 8.02984ZM14.3697 21.2115H1.63248V12.0875H14.3697V21.2115ZM13.9148 24.4048H2.08738C1.96678 24.4047 1.85117 24.3566 1.76589 24.271C1.68062 24.1855 1.63264 24.0696 1.63248 23.9486V22.1238H14.3697V23.9486C14.3696 24.0696 14.3216 24.1855 14.2363 24.271C14.151 24.3566 14.0354 24.4047 13.9148 24.4048Z" fill="white"/>
<path d="M4.81428 18.0183H6.63388V19.8431C6.63388 19.9641 6.68181 20.0801 6.76712 20.1657C6.85243 20.2512 6.96814 20.2993 7.08879 20.2993H8.90839C9.02904 20.2993 9.14475 20.2512 9.23006 20.1657C9.31537 20.0801 9.3633 19.9641 9.3633 19.8431V18.0183H11.1829C11.3036 18.0183 11.4193 17.9702 11.5046 17.8847C11.5899 17.7991 11.6378 17.6831 11.6378 17.5621V15.7373C11.6378 15.6163 11.5899 15.5003 11.5046 15.4147C11.4193 15.3292 11.3036 15.2811 11.1829 15.2811H9.3633V13.4563C9.3633 13.3353 9.31537 13.2193 9.23006 13.1337C9.14475 13.0482 9.02904 13.0001 8.90839 13.0001H7.08879C6.96814 13.0001 6.85243 13.0482 6.76712 13.1337C6.68181 13.2193 6.63388 13.3353 6.63388 13.4563V15.2811H4.81428C4.69363 15.2811 4.57792 15.3292 4.49261 15.4147C4.4073 15.5003 4.35938 15.6163 4.35938 15.7373V17.5621C4.35938 17.6831 4.4073 17.7991 4.49261 17.8847C4.57792 17.9702 4.69363 18.0183 4.81428 18.0183ZM5.26918 16.1935H7.08879C7.20943 16.1935 7.32514 16.1454 7.41045 16.0599C7.49576 15.9743 7.54369 15.8583 7.54369 15.7373V13.9125H8.45349V15.7373C8.45349 15.8583 8.50142 15.9743 8.58673 16.0599C8.67204 16.1454 8.78775 16.1935 8.90839 16.1935H10.728V17.1059H8.90839C8.78775 17.1059 8.67204 17.154 8.58673 17.2395C8.50142 17.3251 8.45349 17.4411 8.45349 17.5621V19.3869H7.54369V17.5621C7.54369 17.4411 7.49576 17.3251 7.41045 17.2395C7.32514 17.154 7.20943 17.1059 7.08879 17.1059H5.26918V16.1935Z" fill="white"/>
</svg>