<svg xmlns="http://www.w3.org/2000/svg" width="14" height="32" viewBox="0 0 14 32" fill="none">
  <mask id="path-1-inside-1_385_4005" fill="white">
    <path fill-rule="evenodd" clip-rule="evenodd" d="M2.37404 4.15569C2.37404 6.40807 4.27734 8.31138 6.52973 8.31138C8.78211 8.31138 10.6854 6.40807 10.6854 4.15569C10.6854 1.90331 8.78211 0 6.52973 0C4.27734 0 2.37404 1.90331 2.37404 4.15569ZM3.56138 4.15569C3.56138 2.54684 4.92088 1.18734 6.52973 1.18734C8.13857 1.18734 9.49808 2.54684 9.49808 4.15569C9.49808 5.76453 8.13857 7.12404 6.52973 7.12404C4.92088 7.12404 3.56138 5.76453 3.56138 4.15569ZM0 13.6544C0 11.3634 1.86412 9.49872 4.15569 9.49872L4.16776 9.49884H8.89298L8.90505 9.49872C11.1861 9.49872 13.0436 11.3463 13.0606 13.6228L13.0613 13.6397L13.0614 13.6543V20.548C13.0614 20.5637 13.0608 20.5794 13.0596 20.5948C13.0356 21.7083 12.1521 22.2905 11.2791 22.2905C11.0782 22.2905 10.8768 22.2597 10.6854 22.1986V29.6563C10.6859 29.6653 10.6861 29.6744 10.6861 29.6835C10.6861 31.2045 9.49159 32 8.31138 32C7.70287 32 7.13057 31.7958 6.70016 31.4253C6.64091 31.3744 6.58487 31.3207 6.53212 31.2644C6.07454 31.7507 5.4094 31.9999 4.74872 31.9999C4.14021 31.9999 3.56791 31.7957 3.1375 31.4253C2.64534 31.0026 2.37404 30.384 2.37404 29.6834V29.6834V22.1989C2.18285 22.2598 1.98166 22.2905 1.78101 22.2905C0.895848 22.2905 0 21.6921 0 20.5481V13.6544ZM5.9367 20.7784V29.6556C5.93647 29.6605 5.9363 29.6655 5.9362 29.6705C5.9361 29.6748 5.93606 29.6791 5.93606 29.6834C5.93606 30.5164 5.29667 30.8126 4.74872 30.8126C4.20076 30.8126 3.56138 30.5164 3.56138 29.6834V29.6834V20.7784V20.7783V20.6009C3.5618 20.5834 3.56202 20.5658 3.56202 20.5481C3.56202 20.5388 3.5618 20.5295 3.56138 20.5202V13.6543C3.56138 13.326 3.29541 13.0606 2.96771 13.0606C2.64 13.0606 2.37404 13.326 2.37404 13.6543V20.5806C2.35416 21.0776 1.87808 21.1032 1.78101 21.1032C1.68187 21.1032 1.18734 21.0765 1.18734 20.5481V13.6544C1.18734 12.0216 2.51254 10.6925 4.14388 10.6861L4.15473 10.6862H8.90409L8.91525 10.6861C10.5473 10.6916 11.8734 12.0211 11.8734 13.6544C11.8734 13.6642 11.8736 13.6739 11.8741 13.6835V20.5082C11.8732 20.5214 11.8728 20.5347 11.8728 20.548C11.8728 21.0764 11.3783 21.1031 11.2791 21.1031C11.18 21.1031 10.6854 21.0764 10.6854 20.548V13.6543C10.6854 13.326 10.4195 13.0606 10.0918 13.0606C9.76407 13.0606 9.49811 13.326 9.49811 13.6543V20.548V20.7783V29.6834C9.49811 29.6912 9.49825 29.6989 9.49855 29.7066C9.4868 30.5219 8.85423 30.8127 8.31138 30.8127C7.76342 30.8127 7.12404 30.5164 7.12404 29.6835V20.7784C7.12404 20.4501 6.85807 20.1848 6.53037 20.1848C6.20266 20.1848 5.9367 20.4501 5.9367 20.7784Z"/>
  </mask>
  <path fill-rule="evenodd" clip-rule="evenodd" d="M2.37404 4.15569C2.37404 6.40807 4.27734 8.31138 6.52973 8.31138C8.78211 8.31138 10.6854 6.40807 10.6854 4.15569C10.6854 1.90331 8.78211 0 6.52973 0C4.27734 0 2.37404 1.90331 2.37404 4.15569ZM3.56138 4.15569C3.56138 2.54684 4.92088 1.18734 6.52973 1.18734C8.13857 1.18734 9.49808 2.54684 9.49808 4.15569C9.49808 5.76453 8.13857 7.12404 6.52973 7.12404C4.92088 7.12404 3.56138 5.76453 3.56138 4.15569ZM0 13.6544C0 11.3634 1.86412 9.49872 4.15569 9.49872L4.16776 9.49884H8.89298L8.90505 9.49872C11.1861 9.49872 13.0436 11.3463 13.0606 13.6228L13.0613 13.6397L13.0614 13.6543V20.548C13.0614 20.5637 13.0608 20.5794 13.0596 20.5948C13.0356 21.7083 12.1521 22.2905 11.2791 22.2905C11.0782 22.2905 10.8768 22.2597 10.6854 22.1986V29.6563C10.6859 29.6653 10.6861 29.6744 10.6861 29.6835C10.6861 31.2045 9.49159 32 8.31138 32C7.70287 32 7.13057 31.7958 6.70016 31.4253C6.64091 31.3744 6.58487 31.3207 6.53212 31.2644C6.07454 31.7507 5.4094 31.9999 4.74872 31.9999C4.14021 31.9999 3.56791 31.7957 3.1375 31.4253C2.64534 31.0026 2.37404 30.384 2.37404 29.6834V29.6834V22.1989C2.18285 22.2598 1.98166 22.2905 1.78101 22.2905C0.895848 22.2905 0 21.6921 0 20.5481V13.6544ZM5.9367 20.7784V29.6556C5.93647 29.6605 5.9363 29.6655 5.9362 29.6705C5.9361 29.6748 5.93606 29.6791 5.93606 29.6834C5.93606 30.5164 5.29667 30.8126 4.74872 30.8126C4.20076 30.8126 3.56138 30.5164 3.56138 29.6834V29.6834V20.7784V20.7783V20.6009C3.5618 20.5834 3.56202 20.5658 3.56202 20.5481C3.56202 20.5388 3.5618 20.5295 3.56138 20.5202V13.6543C3.56138 13.326 3.29541 13.0606 2.96771 13.0606C2.64 13.0606 2.37404 13.326 2.37404 13.6543V20.5806C2.35416 21.0776 1.87808 21.1032 1.78101 21.1032C1.68187 21.1032 1.18734 21.0765 1.18734 20.5481V13.6544C1.18734 12.0216 2.51254 10.6925 4.14388 10.6861L4.15473 10.6862H8.90409L8.91525 10.6861C10.5473 10.6916 11.8734 12.0211 11.8734 13.6544C11.8734 13.6642 11.8736 13.6739 11.8741 13.6835V20.5082C11.8732 20.5214 11.8728 20.5347 11.8728 20.548C11.8728 21.0764 11.3783 21.1031 11.2791 21.1031C11.18 21.1031 10.6854 21.0764 10.6854 20.548V13.6543C10.6854 13.326 10.4195 13.0606 10.0918 13.0606C9.76407 13.0606 9.49811 13.326 9.49811 13.6543V20.548V20.7783V29.6834C9.49811 29.6912 9.49825 29.6989 9.49855 29.7066C9.4868 30.5219 8.85423 30.8127 8.31138 30.8127C7.76342 30.8127 7.12404 30.5164 7.12404 29.6835V20.7784C7.12404 20.4501 6.85807 20.1848 6.53037 20.1848C6.20266 20.1848 5.9367 20.4501 5.9367 20.7784Z" fill="#BD120A"/>
  <path d="M4.15569 9.49872L4.15668 9.39872H4.15569V9.49872ZM4.16776 9.49884L4.16676 9.59884H4.16776V9.49884ZM8.89298 9.49884V9.59884L8.89397 9.59883L8.89298 9.49884ZM8.90505 9.49872V9.39871L8.90405 9.39872L8.90505 9.49872ZM13.0606 13.6228L12.9606 13.6236L12.9607 13.6266L13.0606 13.6228ZM13.0613 13.6397L13.1613 13.6385L13.1612 13.6359L13.0613 13.6397ZM13.0614 13.6543H13.1614L13.1614 13.6531L13.0614 13.6543ZM13.0596 20.5948L12.9598 20.587L12.9596 20.5926L13.0596 20.5948ZM10.6854 22.1986L10.7158 22.1034L10.5854 22.0618V22.1986H10.6854ZM10.6854 29.6563H10.5853L10.5855 29.6608L10.6854 29.6563ZM6.70016 31.4253L6.76539 31.3495L6.76531 31.3495L6.70016 31.4253ZM6.53212 31.2644L6.60512 31.196L6.53231 31.1182L6.45929 31.1958L6.53212 31.2644ZM3.1375 31.4253L3.20273 31.3495L3.20265 31.3494L3.1375 31.4253ZM2.37404 22.1989H2.47404V22.0621L2.34369 22.1036L2.37404 22.1989ZM5.9367 29.6556L6.0367 29.6602V29.6556H5.9367ZM5.9362 29.6705L6.03617 29.6726V29.6726L5.9362 29.6705ZM3.56138 20.6009L3.46138 20.5984V20.6009H3.56138ZM3.56138 20.5202H3.46127L3.46148 20.5248L3.56138 20.5202ZM2.37404 20.5806L2.47404 20.5846V20.5806H2.37404ZM4.14388 10.6861L4.14478 10.5861L4.14349 10.5861L4.14388 10.6861ZM4.15473 10.6862L4.15383 10.7862H4.15473V10.6862ZM8.90409 10.6862V10.7862L8.90501 10.7862L8.90409 10.6862ZM8.91525 10.6861L8.91559 10.5861L8.91433 10.5861L8.91525 10.6861ZM11.8741 13.6835H11.9742L11.974 13.6787L11.8741 13.6835ZM11.8741 20.5082L11.9741 20.5148V20.5082H11.8741ZM9.49855 29.7066L9.59868 29.7081L9.59848 29.7028L9.49855 29.7066ZM6.52973 8.21138C4.33257 8.21138 2.47404 6.35284 2.47404 4.15569H2.27404C2.27404 6.4633 4.22212 8.41138 6.52973 8.41138V8.21138ZM10.5854 4.15569C10.5854 6.35284 8.72688 8.21138 6.52973 8.21138V8.41138C8.83734 8.41138 10.7854 6.4633 10.7854 4.15569H10.5854ZM6.52973 0.1C8.72688 0.1 10.5854 1.95853 10.5854 4.15569H10.7854C10.7854 1.84808 8.83734 -0.1 6.52973 -0.1V0.1ZM2.47404 4.15569C2.47404 1.95853 4.33257 0.1 6.52973 0.1V-0.1C4.22212 -0.1 2.27404 1.84808 2.27404 4.15569H2.47404ZM6.52973 1.08734C4.86565 1.08734 3.46138 2.49162 3.46138 4.15569H3.66138C3.66138 2.60207 4.97611 1.28734 6.52973 1.28734V1.08734ZM9.59808 4.15569C9.59808 2.49162 8.1938 1.08734 6.52973 1.08734V1.28734C8.08334 1.28734 9.39808 2.60207 9.39808 4.15569H9.59808ZM6.52973 7.22404C8.1938 7.22404 9.59808 5.81976 9.59808 4.15569H9.39808C9.39808 5.70931 8.08334 7.02404 6.52973 7.02404V7.22404ZM3.46138 4.15569C3.46138 5.81976 4.86565 7.22404 6.52973 7.22404V7.02404C4.97611 7.02404 3.66138 5.70931 3.66138 4.15569H3.46138ZM4.15569 9.39872C1.80889 9.39872 -0.1 11.3082 -0.1 13.6544H0.1C0.1 11.4187 1.91936 9.59872 4.15569 9.59872V9.39872ZM4.16875 9.39884L4.15668 9.39872L4.15469 9.59871L4.16676 9.59883L4.16875 9.39884ZM8.89298 9.39884H4.16776V9.59884H8.89298V9.39884ZM8.90405 9.39872L8.89198 9.39884L8.89397 9.59883L8.90604 9.59871L8.90405 9.39872ZM13.1606 13.6221C13.1432 11.2907 11.2411 9.39872 8.90505 9.39872V9.59872C11.1311 9.59872 12.944 11.4019 12.9606 13.6236L13.1606 13.6221ZM13.1612 13.6359L13.1605 13.619L12.9607 13.6266L12.9613 13.6435L13.1612 13.6359ZM13.1614 13.6531L13.1613 13.6385L12.9613 13.6409L12.9614 13.6555L13.1614 13.6531ZM13.1614 20.548V13.6543H12.9614V20.548H13.1614ZM13.1593 20.6026C13.1607 20.5845 13.1614 20.5663 13.1614 20.548H12.9614C12.9614 20.5612 12.9609 20.5742 12.9599 20.587L13.1593 20.6026ZM11.2791 22.3905C12.1936 22.3905 13.1341 21.777 13.1596 20.597L12.9596 20.5926C12.937 21.6397 12.1107 22.1905 11.2791 22.1905V22.3905ZM10.6551 22.2939C10.8564 22.3581 11.0681 22.3905 11.2791 22.3905V22.1905C11.0884 22.1905 10.8972 22.1612 10.7158 22.1034L10.6551 22.2939ZM10.7854 29.6563V22.1986H10.5854V29.6563H10.7854ZM10.7861 29.6835C10.7861 29.6729 10.7858 29.6623 10.7853 29.6518L10.5855 29.6608C10.5859 29.6683 10.5861 29.6759 10.5861 29.6835H10.7861ZM8.31138 32.1C9.53351 32.1 10.7861 31.2721 10.7861 29.6835H10.5861C10.5861 31.1368 9.44968 31.9 8.31138 31.9V32.1ZM6.63492 31.5011C7.08482 31.8883 7.68076 32.1 8.31138 32.1V31.9C7.72497 31.9 7.17631 31.7032 6.76539 31.3495L6.63492 31.5011ZM6.45911 31.3327C6.51435 31.3917 6.57301 31.4479 6.635 31.5012L6.76531 31.3495C6.70882 31.3009 6.6554 31.2497 6.60512 31.196L6.45911 31.3327ZM4.74872 32.0999C5.43317 32.0999 6.12601 31.8419 6.60494 31.3329L6.45929 31.1958C6.02307 31.6594 5.38563 31.8999 4.74872 31.8999V32.0999ZM3.07226 31.5011C3.52216 31.8883 4.1181 32.0999 4.74872 32.0999V31.8999C4.16231 31.8999 3.61365 31.7032 3.20273 31.3495L3.07226 31.5011ZM2.27404 29.6834C2.27404 30.4105 2.55617 31.0578 3.07234 31.5011L3.20265 31.3494C2.73452 30.9474 2.47404 30.3574 2.47404 29.6834H2.27404ZM2.27404 29.6834V29.6834H2.47404V29.6834H2.27404ZM2.27404 22.1989V29.6834H2.47404V22.1989H2.27404ZM1.78101 22.3905C1.99178 22.3905 2.20322 22.3582 2.40438 22.2942L2.34369 22.1036C2.16248 22.1613 1.97153 22.1905 1.78101 22.1905V22.3905ZM-0.1 20.5481C-0.1 21.7595 0.853639 22.3905 1.78101 22.3905V22.1905C0.938056 22.1905 0.1 21.6247 0.1 20.5481H-0.1ZM-0.1 13.6544V20.5481H0.1V13.6544H-0.1ZM6.0367 29.6556V20.7784H5.8367V29.6556H6.0367ZM6.03617 29.6726C6.03626 29.6685 6.0364 29.6643 6.03659 29.6602L5.8368 29.651C5.83654 29.6567 5.83634 29.6625 5.83622 29.6683L6.03617 29.6726ZM6.03606 29.6834C6.03606 29.6798 6.0361 29.6762 6.03617 29.6726L5.83622 29.6683C5.83611 29.6734 5.83606 29.6784 5.83606 29.6834H6.03606ZM4.74872 30.9126C5.03871 30.9126 5.3591 30.8345 5.60939 30.6392C5.86345 30.441 6.03606 30.1288 6.03606 29.6834H5.83606C5.83606 30.071 5.68897 30.3234 5.48635 30.4815C5.27996 30.6426 5.00668 30.7126 4.74872 30.7126V30.9126ZM3.46138 29.6834C3.46138 30.1288 3.63398 30.441 3.88805 30.6392C4.13834 30.8345 4.45872 30.9126 4.74872 30.9126V30.7126C4.49076 30.7126 4.21747 30.6426 4.01108 30.4815C3.80847 30.3234 3.66138 30.071 3.66138 29.6834H3.46138ZM3.46138 29.6834V29.6834H3.66138V29.6834H3.46138ZM3.46138 20.7784V29.6834H3.66138V20.7784H3.46138ZM3.46138 20.7783V20.7784H3.66138V20.7783H3.46138ZM3.46138 20.6009V20.7783H3.66138V20.6009H3.46138ZM3.46202 20.5481C3.46202 20.565 3.46181 20.5818 3.46141 20.5984L3.66135 20.6033C3.66179 20.585 3.66202 20.5666 3.66202 20.5481H3.46202ZM3.46148 20.5248C3.46184 20.5325 3.46202 20.5403 3.46202 20.5481H3.66202C3.66202 20.5372 3.66177 20.5264 3.66127 20.5156L3.46148 20.5248ZM3.46138 13.6543V20.5202H3.66138V13.6543H3.46138ZM2.96771 13.1606C3.24025 13.1606 3.46138 13.3813 3.46138 13.6543H3.66138C3.66138 13.2707 3.35058 12.9606 2.96771 12.9606V13.1606ZM2.47404 13.6543C2.47404 13.3813 2.69517 13.1606 2.96771 13.1606V12.9606C2.58484 12.9606 2.27404 13.2707 2.27404 13.6543H2.47404ZM2.47404 20.5806V13.6543H2.27404V20.5806H2.47404ZM1.78101 21.2032C1.83528 21.2032 1.99747 21.1965 2.1521 21.1172C2.31409 21.0342 2.46241 20.8732 2.47396 20.5846L2.27412 20.5766C2.26578 20.785 2.16613 20.8853 2.06084 20.9393C1.94819 20.997 1.8238 21.0032 1.78101 21.0032V21.2032ZM1.08734 20.5481C1.08734 20.6964 1.12225 20.816 1.18131 20.9107C1.24018 21.005 1.31949 21.069 1.39985 21.112C1.55758 21.1963 1.72576 21.2032 1.78101 21.2032V21.0032C1.73712 21.0032 1.60847 20.9967 1.49415 20.9356C1.43847 20.9058 1.38796 20.8641 1.351 20.8048C1.31425 20.7459 1.28734 20.664 1.28734 20.5481H1.08734ZM1.08734 13.6544V20.5481H1.28734V13.6544H1.08734ZM4.14349 10.5861C2.4571 10.5927 1.08734 11.9665 1.08734 13.6544H1.28734C1.28734 12.0767 2.56798 10.7923 4.14427 10.7861L4.14349 10.5861ZM4.15562 10.5862L4.14478 10.5861L4.14298 10.7861L4.15383 10.7862L4.15562 10.5862ZM8.90409 10.5862H4.15473V10.7862H8.90409V10.5862ZM8.91433 10.5861L8.90316 10.5862L8.90501 10.7862L8.91618 10.7861L8.91433 10.5861ZM11.9734 13.6544C11.9734 11.9659 10.6027 10.5918 8.91559 10.5861L8.91492 10.7861C10.4919 10.7914 11.7734 12.0762 11.7734 13.6544H11.9734ZM11.974 13.6787C11.9736 13.6707 11.9734 13.6626 11.9734 13.6544H11.7734C11.7734 13.6658 11.7737 13.6771 11.7742 13.6883L11.974 13.6787ZM11.9741 20.5082V13.6835H11.7741V20.5082H11.9741ZM11.9728 20.548C11.9728 20.5369 11.9732 20.5258 11.9739 20.5148L11.7743 20.5016C11.7733 20.517 11.7728 20.5325 11.7728 20.548H11.9728ZM11.2791 21.2031C11.3344 21.2031 11.5025 21.1962 11.6603 21.1119C11.7406 21.069 11.8199 21.005 11.8788 20.9106C11.9379 20.8159 11.9728 20.6963 11.9728 20.548H11.7728C11.7728 20.6639 11.7459 20.7458 11.7091 20.8048C11.6722 20.864 11.6216 20.9058 11.566 20.9355C11.4517 20.9967 11.323 21.0031 11.2791 21.0031V21.2031ZM10.5854 20.548C10.5854 20.6963 10.6204 20.8159 10.6794 20.9106C10.7383 21.005 10.8176 21.069 10.898 21.1119C11.0557 21.1962 11.2239 21.2031 11.2791 21.2031V21.0031C11.2352 21.0031 11.1066 20.9967 10.9923 20.9355C10.9366 20.9058 10.8861 20.864 10.8491 20.8048C10.8124 20.7458 10.7854 20.6639 10.7854 20.548H10.5854ZM10.5854 13.6543V20.548H10.7854V13.6543H10.5854ZM10.0918 13.1606C10.3643 13.1606 10.5854 13.3813 10.5854 13.6543H10.7854C10.7854 13.2707 10.4746 12.9606 10.0918 12.9606V13.1606ZM9.59811 13.6543C9.59811 13.3813 9.81923 13.1606 10.0918 13.1606V12.9606C9.70891 12.9606 9.3981 13.2707 9.3981 13.6543H9.59811ZM9.59811 20.548V13.6543H9.3981V20.548H9.59811ZM9.59811 20.7783V20.548H9.3981V20.7783H9.59811ZM9.59811 29.6834V20.7783H9.3981V29.6834H9.59811ZM9.59848 29.7028C9.59823 29.6964 9.59811 29.6899 9.59811 29.6834H9.3981C9.3981 29.6925 9.39828 29.7015 9.39862 29.7105L9.59848 29.7028ZM8.31138 30.9127C8.59871 30.9127 8.91578 30.836 9.16502 30.6447C9.41793 30.4506 9.59225 30.1448 9.59854 29.7081L9.39856 29.7052C9.39311 30.0838 9.24527 30.331 9.04324 30.486C8.83753 30.6439 8.5669 30.7127 8.31138 30.7127V30.9127ZM7.02404 29.6835C7.02404 30.1289 7.19664 30.441 7.45071 30.6393C7.701 30.8346 8.02138 30.9127 8.31138 30.9127V30.7127C8.05342 30.7127 7.78013 30.6426 7.57374 30.4816C7.37113 30.3235 7.22404 30.071 7.22404 29.6835H7.02404ZM7.02404 20.7784V29.6835H7.22404V20.7784H7.02404ZM6.53037 20.2848C6.80291 20.2848 7.02404 20.5054 7.02404 20.7784H7.22404C7.22404 20.3949 6.91324 20.0848 6.53037 20.0848V20.2848ZM6.0367 20.7784C6.0367 20.5054 6.25783 20.2848 6.53037 20.2848V20.0848C6.1475 20.0848 5.8367 20.3949 5.8367 20.7784H6.0367Z" fill="#F5F8F9" mask="url(#path-1-inside-1_385_4005)"/>
</svg>