<svg xmlns="http://www.w3.org/2000/svg" width="20" height="34" viewBox="0 0 20 34" fill="none">
<path d="M3.75 6.26779H16.25C16.4157 6.26779 16.5747 6.20175 16.6919 6.08421C16.8091 5.96666 16.875 5.80724 16.875 5.64101V0.626779C16.875 0.460547 16.8091 0.301123 16.6919 0.183579C16.5747 0.0660355 16.4157 0 16.25 0H3.75C3.58424 0 3.42527 0.0660355 3.30806 0.183579C3.19085 0.301123 3.125 0.460547 3.125 0.626779V5.64101C3.125 5.80724 3.19085 5.96666 3.30806 6.08421C3.42527 6.20175 3.58424 6.26779 3.75 6.26779ZM4.375 1.25356H15.625V5.01423H4.375V1.25356Z" fill="#BD120A"/>
<path d="M17.1545 10.0947C16.6271 9.83203 16.1662 9.45229 15.807 8.98431C15.4477 8.51633 15.1995 7.97241 15.0812 7.39385C15.0461 7.23255 14.9488 7.09169 14.8107 7.00186C14.6725 6.91204 14.5046 6.88051 14.3434 6.91413C14.1822 6.94775 14.0408 7.0438 13.9498 7.18141C13.8588 7.31902 13.8256 7.48708 13.8575 7.64907C14.0137 8.41314 14.3415 9.13146 14.8159 9.74951C15.2903 10.3676 15.8989 10.8691 16.5955 11.216C17.1982 11.5169 17.7122 11.9704 18.0865 12.5317C18.4608 13.0929 18.6824 13.7425 18.7295 14.416H1.27046C1.31758 13.7425 1.53926 13.0929 1.91357 12.5317C2.28788 11.9704 2.80183 11.5169 3.40458 11.216C4.10115 10.8691 4.70975 10.3676 5.18417 9.74951C5.65858 9.13146 5.98635 8.41314 6.14257 7.64907C6.17444 7.48708 6.14127 7.31902 6.05029 7.18141C5.9593 7.0438 5.81784 6.94775 5.65665 6.91413C5.49545 6.88051 5.32754 6.91204 5.18939 7.00186C5.05124 7.09169 4.95401 7.23255 4.91883 7.39385C4.80052 7.97241 4.55232 8.51634 4.19306 8.98432C3.8338 9.4523 3.37294 9.83204 2.84546 10.0947C1.98834 10.5208 1.26743 11.1793 0.764499 11.9954C0.261566 12.8115 -0.00326888 13.7526 3.04552e-05 14.712V31.9658C0.000576378 32.4644 0.198295 32.9423 0.549807 33.2948C0.901318 33.6473 1.37791 33.8456 1.87502 33.8462H18.125C18.6221 33.8456 19.0987 33.6473 19.4502 33.2948C19.8017 32.9423 19.9994 32.4644 20 31.9658V14.712C20.0033 13.7526 19.7384 12.8115 19.2355 11.9954C18.7326 11.1793 18.0117 10.5208 17.1545 10.0947ZM18.75 28.2052H1.25003V15.6696H18.75V28.2052ZM18.125 32.5926H1.87502C1.70933 32.5924 1.55049 32.5263 1.43332 32.4088C1.31616 32.2913 1.25024 32.132 1.25003 31.9658V29.4587H18.75V31.9658C18.7498 32.132 18.6838 32.2913 18.5667 32.4088C18.4495 32.5263 18.2907 32.5924 18.125 32.5926Z" fill="#BD120A"/>
<path d="M5.625 23.8176H8.12499V26.3247C8.12499 26.4909 8.19084 26.6504 8.30805 26.7679C8.42526 26.8855 8.58423 26.9515 8.74999 26.9515H11.25C11.4157 26.9515 11.5747 26.8855 11.6919 26.7679C11.8091 26.6504 11.875 26.4909 11.875 26.3247V23.8176H14.375C14.5407 23.8176 14.6997 23.7516 14.8169 23.634C14.9341 23.5165 15 23.3571 15 23.1908V20.6837C15 20.5175 14.9341 20.3581 14.8169 20.2405C14.6997 20.123 14.5407 20.0569 14.375 20.0569H11.875V17.5498C11.875 17.3836 11.8091 17.2242 11.6919 17.1066C11.5747 16.9891 11.4157 16.923 11.25 16.923H8.74999C8.58423 16.923 8.42526 16.9891 8.30805 17.1066C8.19084 17.2242 8.12499 17.3836 8.12499 17.5498V20.0569H5.625C5.45924 20.0569 5.30027 20.123 5.18306 20.2405C5.06585 20.3581 5 20.5175 5 20.6837V23.1908C5 23.3571 5.06585 23.5165 5.18306 23.634C5.30027 23.7516 5.45924 23.8176 5.625 23.8176ZM6.25 21.3105H8.74999C8.91575 21.3105 9.07472 21.2445 9.19193 21.1269C9.30914 21.0094 9.37499 20.8499 9.37499 20.6837V18.1766H10.625V20.6837C10.625 20.8499 10.6908 21.0094 10.808 21.1269C10.9253 21.2445 11.0842 21.3105 11.25 21.3105H13.75V22.564H11.25C11.0842 22.564 10.9253 22.6301 10.808 22.7476C10.6908 22.8652 10.625 23.0246 10.625 23.1908V25.6979H9.37499V23.1908C9.37499 23.0246 9.30914 22.8652 9.19193 22.7476C9.07472 22.6301 8.91575 22.564 8.74999 22.564H6.25V21.3105Z" fill="#BD120A"/>
</svg>