<svg width="14" height="18" viewBox="0 0 14 18" fill="none" xmlns="http://www.w3.org/2000/svg">
<g id="Group 108920 1" clip-path="url(#clip0_213_1556)">
<g id="Group 108920">
<path id="Icon material-replay" d="M7 3.75V0.25L2.625 4.625L7 9V5.5C8.03835 5.5 9.05339 5.80791 9.91674 6.38478C10.7801 6.96166 11.453 7.7816 11.8504 8.74091C12.2477 9.70022 12.3517 10.7558 12.1491 11.7742C11.9466 12.7926 11.4465 13.7281 10.7123 14.4623C9.97808 15.1965 9.04263 15.6965 8.02422 15.8991C7.00582 16.1017 5.95022 15.9977 4.99091 15.6004C4.0316 15.203 3.21166 14.5301 2.63478 13.6667C2.05791 12.8034 1.75 11.7884 1.75 10.75H0C0 12.1345 0.410543 13.4878 1.17971 14.639C1.94888 15.7901 3.04213 16.6873 4.32122 17.2172C5.6003 17.747 7.00777 17.8856 8.36563 17.6155C9.7235 17.3454 10.9708 16.6787 11.9497 15.6997C12.9287 14.7208 13.5954 13.4735 13.8655 12.1156C14.1356 10.7578 13.997 9.3503 13.4672 8.07122C12.9373 6.79213 12.0401 5.69888 10.889 4.92971C9.73785 4.16054 8.38447 3.75 7 3.75Z" fill="#34373F"/>
</g>
</g>
<defs>
<clipPath id="clip0_213_1556">
<rect width="14" height="17.5" fill="white" transform="translate(0 0.25)"/>
</clipPath>
</defs>
</svg>
