<svg width="21" height="32" viewBox="0 0 21 32" fill="none" xmlns="http://www.w3.org/2000/svg">
<mask id="path-1-inside-1_359_4264" fill="white">
<path fill-rule="evenodd" clip-rule="evenodd" d="M15.7566 31.5156C15.6278 31.5156 15.5087 31.4739 15.4122 31.4033C15.2672 31.2972 15.173 31.1257 15.173 30.932V30.932V28.4032V25.8737V23.3449V20.8161V18.2866V15.7578V13.229V10.6995V8.17071V5.64191V3.11242V0.583623C15.173 0.260879 15.4344 0 15.7566 0H20.4256C20.7477 0 21.0092 0.260879 21.0092 0.583623C21.0092 0.906366 20.7477 1.16725 20.4256 1.16725H16.3402V2.5288H18.0911C18.4132 2.5288 18.6747 2.78968 18.6747 3.11242C18.6747 3.43517 18.4132 3.69605 18.0911 3.69605H16.3402V5.05829H18.0911C18.4132 5.05829 18.6747 5.31917 18.6747 5.64191C18.6747 5.96466 18.4132 6.22554 18.0911 6.22554H16.3402V7.58709H20.4256C20.7477 7.58709 21.0092 7.84797 21.0092 8.17071C21.0092 8.49346 20.7477 8.75434 20.4256 8.75434H16.3402V10.1159H18.0911C18.4132 10.1159 18.6747 10.3768 18.6747 10.6995C18.6747 11.0223 18.4132 11.2831 18.0911 11.2831H16.3402V12.6454H18.0911C18.4132 12.6454 18.6747 12.9063 18.6747 13.229C18.6747 13.5517 18.4132 13.8126 18.0911 13.8126H16.3402V15.1742H20.4256C20.7477 15.1742 21.0092 15.4351 21.0092 15.7578C21.0092 16.0805 20.7477 16.3414 20.4256 16.3414H16.3402V17.703H18.0911C18.4132 17.703 18.6747 17.9639 18.6747 18.2866C18.6747 18.6093 18.4132 18.8702 18.0911 18.8702H16.3402V20.2325H18.0911C18.4132 20.2325 18.6747 20.4934 18.6747 20.8161C18.6747 21.1388 18.4132 21.3997 18.0911 21.3997H16.3402V22.7613H20.4256C20.7477 22.7613 21.0092 23.0222 21.0092 23.3449C21.0092 23.6676 20.7477 23.9285 20.4256 23.9285H16.3402V25.2901H18.0911C18.4132 25.2901 18.6747 25.551 18.6747 25.8737C18.6747 26.1964 18.4132 26.4573 18.0911 26.4573H16.3402V27.8196H18.0911C18.4132 27.8196 18.6747 28.0804 18.6747 28.4032C18.6747 28.7259 18.4132 28.9868 18.0911 28.9868H16.3402V30.3484H20.4256C20.7477 30.3484 21.0092 30.6092 21.0092 30.932C21.0092 31.2547 20.7477 31.5156 20.4256 31.5156H15.7611L15.7566 31.5156ZM8.75369 10.5052C10.3627 10.5052 11.6718 11.8143 11.6718 13.4233V20.2003C11.6718 20.2072 11.6719 20.2141 11.6722 20.2209C11.6595 20.7205 11.185 20.746 11.0888 20.746C10.9913 20.746 10.5052 20.7198 10.5052 20.2003V13.4233C10.5052 13.1005 10.2437 12.8397 9.92155 12.8397C9.59939 12.8397 9.33793 13.1005 9.33793 13.4233V20.2003V20.4267V20.4268V29.1412C9.33704 29.1544 9.33659 29.1677 9.33659 29.1811C9.33659 29.9999 8.70803 30.2911 8.16934 30.2911C7.63915 30.2911 7.02189 30.009 7.00256 29.2194L7.00282 29.1811C7.00282 29.1713 7.00258 29.1615 7.0021 29.1518V20.4267C7.0021 20.104 6.74063 19.8431 6.41848 19.8431C6.09632 19.8431 5.83485 20.104 5.83485 20.4267V29.1811L5.83512 29.219C5.81604 30.0089 5.19863 30.2912 4.66833 30.2912C4.12965 30.2912 3.50109 30 3.50109 29.1811V20.4268V20.253C3.50152 20.2356 3.50174 20.218 3.50174 20.2003C3.50174 20.191 3.50152 20.1817 3.50109 20.1725V13.4233C3.50109 13.1006 3.23962 12.8397 2.91746 12.8397C2.5953 12.8397 2.33384 13.1006 2.33384 13.4233V20.2328C2.31399 20.7209 1.84626 20.746 1.75087 20.746C1.6534 20.746 1.16725 20.7197 1.16725 20.2003V20.2003V13.4233C1.16725 11.8143 2.47631 10.5052 4.08536 10.5052L4.09058 10.5052H8.75369ZM6.58539 30.8934C6.52742 30.8436 6.47256 30.7911 6.42091 30.736C5.9711 31.2136 5.31752 31.4584 4.66833 31.4584C4.07012 31.4584 3.5075 31.2577 3.08438 30.8935C2.60055 30.4779 2.33384 29.8698 2.33384 29.1811V21.8232C2.1459 21.883 1.94811 21.9133 1.75087 21.9133C0.880687 21.9133 0 21.325 0 20.2003V20.2003V13.4233V13.4233V13.4214C0.00106126 11.1722 1.82975 9.34146 4.07895 9.33799L4.08471 9.33796H8.75369C11.0065 9.33796 12.839 11.1711 12.839 13.4233V20.1733C12.8395 20.1823 12.8397 20.1913 12.8397 20.2003C12.8397 21.325 11.959 21.9133 11.0888 21.9133C10.8913 21.9133 10.6933 21.883 10.5052 21.823V29.1811C10.5052 29.1961 10.5046 29.2111 10.5035 29.2259C10.4803 30.6919 9.31795 31.4584 8.16934 31.4584C7.57113 31.4584 7.00852 31.2576 6.58539 30.8934ZM2.33384 4.08536C2.33384 6.29962 4.20493 8.17072 6.4192 8.17072C8.63346 8.17072 10.5046 6.29962 10.5046 4.08536C10.5046 1.87109 8.63346 0 6.4192 0C4.20493 0 2.33384 1.87109 2.33384 4.08536ZM3.50108 4.08536C3.50108 2.50374 4.83758 1.16725 6.4192 1.16725C8.00082 1.16725 9.33731 2.50374 9.33731 4.08536C9.33731 5.66698 8.00082 7.00347 6.4192 7.00347C4.83758 7.00347 3.50108 5.66698 3.50108 4.08536Z"/>
</mask>
<path fill-rule="evenodd" clip-rule="evenodd" d="M15.7566 31.5156C15.6278 31.5156 15.5087 31.4739 15.4122 31.4033C15.2672 31.2972 15.173 31.1257 15.173 30.932V30.932V28.4032V25.8737V23.3449V20.8161V18.2866V15.7578V13.229V10.6995V8.17071V5.64191V3.11242V0.583623C15.173 0.260879 15.4344 0 15.7566 0H20.4256C20.7477 0 21.0092 0.260879 21.0092 0.583623C21.0092 0.906366 20.7477 1.16725 20.4256 1.16725H16.3402V2.5288H18.0911C18.4132 2.5288 18.6747 2.78968 18.6747 3.11242C18.6747 3.43517 18.4132 3.69605 18.0911 3.69605H16.3402V5.05829H18.0911C18.4132 5.05829 18.6747 5.31917 18.6747 5.64191C18.6747 5.96466 18.4132 6.22554 18.0911 6.22554H16.3402V7.58709H20.4256C20.7477 7.58709 21.0092 7.84797 21.0092 8.17071C21.0092 8.49346 20.7477 8.75434 20.4256 8.75434H16.3402V10.1159H18.0911C18.4132 10.1159 18.6747 10.3768 18.6747 10.6995C18.6747 11.0223 18.4132 11.2831 18.0911 11.2831H16.3402V12.6454H18.0911C18.4132 12.6454 18.6747 12.9063 18.6747 13.229C18.6747 13.5517 18.4132 13.8126 18.0911 13.8126H16.3402V15.1742H20.4256C20.7477 15.1742 21.0092 15.4351 21.0092 15.7578C21.0092 16.0805 20.7477 16.3414 20.4256 16.3414H16.3402V17.703H18.0911C18.4132 17.703 18.6747 17.9639 18.6747 18.2866C18.6747 18.6093 18.4132 18.8702 18.0911 18.8702H16.3402V20.2325H18.0911C18.4132 20.2325 18.6747 20.4934 18.6747 20.8161C18.6747 21.1388 18.4132 21.3997 18.0911 21.3997H16.3402V22.7613H20.4256C20.7477 22.7613 21.0092 23.0222 21.0092 23.3449C21.0092 23.6676 20.7477 23.9285 20.4256 23.9285H16.3402V25.2901H18.0911C18.4132 25.2901 18.6747 25.551 18.6747 25.8737C18.6747 26.1964 18.4132 26.4573 18.0911 26.4573H16.3402V27.8196H18.0911C18.4132 27.8196 18.6747 28.0804 18.6747 28.4032C18.6747 28.7259 18.4132 28.9868 18.0911 28.9868H16.3402V30.3484H20.4256C20.7477 30.3484 21.0092 30.6092 21.0092 30.932C21.0092 31.2547 20.7477 31.5156 20.4256 31.5156H15.7611L15.7566 31.5156ZM8.75369 10.5052C10.3627 10.5052 11.6718 11.8143 11.6718 13.4233V20.2003C11.6718 20.2072 11.6719 20.2141 11.6722 20.2209C11.6595 20.7205 11.185 20.746 11.0888 20.746C10.9913 20.746 10.5052 20.7198 10.5052 20.2003V13.4233C10.5052 13.1005 10.2437 12.8397 9.92155 12.8397C9.59939 12.8397 9.33793 13.1005 9.33793 13.4233V20.2003V20.4267V20.4268V29.1412C9.33704 29.1544 9.33659 29.1677 9.33659 29.1811C9.33659 29.9999 8.70803 30.2911 8.16934 30.2911C7.63915 30.2911 7.02189 30.009 7.00256 29.2194L7.00282 29.1811C7.00282 29.1713 7.00258 29.1615 7.0021 29.1518V20.4267C7.0021 20.104 6.74063 19.8431 6.41848 19.8431C6.09632 19.8431 5.83485 20.104 5.83485 20.4267V29.1811L5.83512 29.219C5.81604 30.0089 5.19863 30.2912 4.66833 30.2912C4.12965 30.2912 3.50109 30 3.50109 29.1811V20.4268V20.253C3.50152 20.2356 3.50174 20.218 3.50174 20.2003C3.50174 20.191 3.50152 20.1817 3.50109 20.1725V13.4233C3.50109 13.1006 3.23962 12.8397 2.91746 12.8397C2.5953 12.8397 2.33384 13.1006 2.33384 13.4233V20.2328C2.31399 20.7209 1.84626 20.746 1.75087 20.746C1.6534 20.746 1.16725 20.7197 1.16725 20.2003V20.2003V13.4233C1.16725 11.8143 2.47631 10.5052 4.08536 10.5052L4.09058 10.5052H8.75369ZM6.58539 30.8934C6.52742 30.8436 6.47256 30.7911 6.42091 30.736C5.9711 31.2136 5.31752 31.4584 4.66833 31.4584C4.07012 31.4584 3.5075 31.2577 3.08438 30.8935C2.60055 30.4779 2.33384 29.8698 2.33384 29.1811V21.8232C2.1459 21.883 1.94811 21.9133 1.75087 21.9133C0.880687 21.9133 0 21.325 0 20.2003V20.2003V13.4233V13.4233V13.4214C0.00106126 11.1722 1.82975 9.34146 4.07895 9.33799L4.08471 9.33796H8.75369C11.0065 9.33796 12.839 11.1711 12.839 13.4233V20.1733C12.8395 20.1823 12.8397 20.1913 12.8397 20.2003C12.8397 21.325 11.959 21.9133 11.0888 21.9133C10.8913 21.9133 10.6933 21.883 10.5052 21.823V29.1811C10.5052 29.1961 10.5046 29.2111 10.5035 29.2259C10.4803 30.6919 9.31795 31.4584 8.16934 31.4584C7.57113 31.4584 7.00852 31.2576 6.58539 30.8934ZM2.33384 4.08536C2.33384 6.29962 4.20493 8.17072 6.4192 8.17072C8.63346 8.17072 10.5046 6.29962 10.5046 4.08536C10.5046 1.87109 8.63346 0 6.4192 0C4.20493 0 2.33384 1.87109 2.33384 4.08536ZM3.50108 4.08536C3.50108 2.50374 4.83758 1.16725 6.4192 1.16725C8.00082 1.16725 9.33731 2.50374 9.33731 4.08536C9.33731 5.66698 8.00082 7.00347 6.4192 7.00347C4.83758 7.00347 3.50108 5.66698 3.50108 4.08536Z" fill="#BD120A"/>
<path d="M15.4122 31.4033L15.4712 31.3226L15.4122 31.4033ZM15.7566 31.5156V31.6156L15.757 31.6156L15.7566 31.5156ZM16.3402 1.16725V1.06725H16.2402V1.16725H16.3402ZM16.3402 2.5288H16.2402V2.6288H16.3402V2.5288ZM16.3402 3.69605V3.59605H16.2402V3.69605H16.3402ZM16.3402 5.05829H16.2402V5.15829H16.3402V5.05829ZM16.3402 6.22554V6.12554H16.2402V6.22554H16.3402ZM16.3402 7.58709H16.2402V7.68709H16.3402V7.58709ZM16.3402 8.75434V8.65434H16.2402V8.75434H16.3402ZM16.3402 10.1159H16.2402V10.2159H16.3402V10.1159ZM16.3402 11.2831V11.1831H16.2402V11.2831H16.3402ZM16.3402 12.6454H16.2402V12.7454H16.3402V12.6454ZM16.3402 13.8126V13.7126H16.2402V13.8126H16.3402ZM16.3402 15.1742H16.2402V15.2742H16.3402V15.1742ZM16.3402 16.3414V16.2414H16.2402V16.3414H16.3402ZM16.3402 17.703H16.2402V17.803H16.3402V17.703ZM16.3402 18.8702V18.7702H16.2402V18.8702H16.3402ZM16.3402 20.2325H16.2402V20.3325H16.3402V20.2325ZM16.3402 21.3997V21.2997H16.2402V21.3997H16.3402ZM16.3402 22.7613H16.2402V22.8613H16.3402V22.7613ZM16.3402 23.9285V23.8285H16.2402V23.9285H16.3402ZM16.3402 25.2901H16.2402V25.3901H16.3402V25.2901ZM16.3402 26.4573V26.3573H16.2402V26.4573H16.3402ZM16.3402 27.8196H16.2402V27.9196H16.3402V27.8196ZM16.3402 28.9868V28.8868H16.2402V28.9868H16.3402ZM16.3402 30.3484H16.2402V30.4484H16.3402V30.3484ZM15.7611 31.5156V31.4156L15.7607 31.4156L15.7611 31.5156ZM11.6722 20.2209L11.7723 20.2235L11.7721 20.2175L11.6722 20.2209ZM9.33793 29.1412L9.43793 29.148V29.1412H9.33793ZM7.00256 29.2194L6.90252 29.2187L6.90259 29.2218L7.00256 29.2194ZM7.00282 29.1811L7.10282 29.1818V29.1811H7.00282ZM7.0021 29.1518H6.90198L6.90222 29.1567L7.0021 29.1518ZM5.83485 29.1811H5.73485L5.73485 29.1818L5.83485 29.1811ZM5.83512 29.219L5.93514 29.2214L5.93512 29.2183L5.83512 29.219ZM3.50109 20.253L3.40109 20.2505V20.253H3.50109ZM3.50109 20.1725H3.40098L3.40119 20.1772L3.50109 20.1725ZM2.33384 20.2328L2.43384 20.2369V20.2328H2.33384ZM4.08536 10.5052V10.6052L4.0858 10.6052L4.08536 10.5052ZM4.09058 10.5052V10.4052L4.09015 10.4052L4.09058 10.5052ZM6.42091 30.736L6.49388 30.6676L6.4211 30.5899L6.34811 30.6674L6.42091 30.736ZM6.58539 30.8934L6.65062 30.8176L6.65055 30.8176L6.58539 30.8934ZM3.08438 30.8935L3.14961 30.8177L3.14953 30.8176L3.08438 30.8935ZM2.33384 21.8232H2.43384V21.6864L2.3035 21.7279L2.33384 21.8232ZM0 13.4214L-0.1 13.4213V13.4214H0ZM4.07895 9.33799L4.0791 9.43799L4.07943 9.43799L4.07895 9.33799ZM4.08471 9.33796V9.23796L4.08423 9.23796L4.08471 9.33796ZM12.839 20.1733H12.7389L12.7392 20.1779L12.839 20.1733ZM10.5052 21.823L10.5355 21.7277L10.4052 21.6862V21.823H10.5052ZM10.5035 29.2259L10.4036 29.2183L10.4035 29.2243L10.5035 29.2259ZM15.3531 31.484C15.4662 31.5668 15.6059 31.6156 15.7566 31.6156V31.4156C15.6497 31.4156 15.5512 31.3811 15.4712 31.3226L15.3531 31.484ZM15.073 30.932C15.073 31.159 15.1835 31.3598 15.3531 31.484L15.4712 31.3226C15.3509 31.2345 15.273 31.0925 15.273 30.932H15.073ZM15.073 30.932V30.932H15.273V30.932H15.073ZM15.073 28.4032V30.932H15.273V28.4032H15.073ZM15.073 25.8737V28.4032H15.273V25.8737H15.073ZM15.073 23.3449V25.8737H15.273V23.3449H15.073ZM15.073 20.8161V23.3449H15.273V20.8161H15.073ZM15.073 18.2866V20.8161H15.273V18.2866H15.073ZM15.073 15.7578V18.2866H15.273V15.7578H15.073ZM15.073 13.229V15.7578H15.273V13.229H15.073ZM15.073 10.6995V13.229H15.273V10.6995H15.073ZM15.073 8.17071V10.6995H15.273V8.17071H15.073ZM15.073 5.64191V8.17071H15.273V5.64191H15.073ZM15.073 3.11242V5.64191H15.273V3.11242H15.073ZM15.073 0.583623V3.11242H15.273V0.583623H15.073ZM15.7566 -0.1C15.3793 -0.1 15.073 0.205586 15.073 0.583623H15.273C15.273 0.316173 15.4896 0.1 15.7566 0.1V-0.1ZM20.4256 -0.1H15.7566V0.1H20.4256V-0.1ZM21.1092 0.583623C21.1092 0.205586 20.8029 -0.1 20.4256 -0.1V0.1C20.6926 0.1 20.9092 0.316173 20.9092 0.583623H21.1092ZM20.4256 1.26725C20.8029 1.26725 21.1092 0.96166 21.1092 0.583623H20.9092C20.9092 0.851072 20.6926 1.06725 20.4256 1.06725V1.26725ZM16.3402 1.26725H20.4256V1.06725H16.3402V1.26725ZM16.4402 2.5288V1.16725H16.2402V2.5288H16.4402ZM18.0911 2.4288H16.3402V2.6288H18.0911V2.4288ZM18.7747 3.11242C18.7747 2.73439 18.4684 2.4288 18.0911 2.4288V2.6288C18.3581 2.6288 18.5747 2.84497 18.5747 3.11242H18.7747ZM18.0911 3.79605C18.4684 3.79605 18.7747 3.49046 18.7747 3.11242H18.5747C18.5747 3.37987 18.3581 3.59605 18.0911 3.59605V3.79605ZM16.3402 3.79605H18.0911V3.59605H16.3402V3.79605ZM16.4402 5.05829V3.69605H16.2402V5.05829H16.4402ZM18.0911 4.95829H16.3402V5.15829H18.0911V4.95829ZM18.7747 5.64191C18.7747 5.26388 18.4684 4.95829 18.0911 4.95829V5.15829C18.3581 5.15829 18.5747 5.37446 18.5747 5.64191H18.7747ZM18.0911 6.32554C18.4684 6.32554 18.7747 6.01995 18.7747 5.64191H18.5747C18.5747 5.90936 18.3581 6.12554 18.0911 6.12554V6.32554ZM16.3402 6.32554H18.0911V6.12554H16.3402V6.32554ZM16.4402 7.58709V6.22554H16.2402V7.58709H16.4402ZM20.4256 7.48709H16.3402V7.68709H20.4256V7.48709ZM21.1092 8.17071C21.1092 7.79268 20.8029 7.48709 20.4256 7.48709V7.68709C20.6926 7.68709 20.9092 7.90326 20.9092 8.17071H21.1092ZM20.4256 8.85434C20.8029 8.85434 21.1092 8.54875 21.1092 8.17071H20.9092C20.9092 8.43816 20.6926 8.65434 20.4256 8.65434V8.85434ZM16.3402 8.85434H20.4256V8.65434H16.3402V8.85434ZM16.4402 10.1159V8.75434H16.2402V10.1159H16.4402ZM18.0911 10.0159H16.3402V10.2159H18.0911V10.0159ZM18.7747 10.6995C18.7747 10.3215 18.4684 10.0159 18.0911 10.0159V10.2159C18.3581 10.2159 18.5747 10.4321 18.5747 10.6995H18.7747ZM18.0911 11.3831C18.4684 11.3831 18.7747 11.0775 18.7747 10.6995H18.5747C18.5747 10.967 18.3581 11.1831 18.0911 11.1831V11.3831ZM16.3402 11.3831H18.0911V11.1831H16.3402V11.3831ZM16.4402 12.6454V11.2831H16.2402V12.6454H16.4402ZM18.0911 12.5454H16.3402V12.7454H18.0911V12.5454ZM18.7747 13.229C18.7747 12.851 18.4684 12.5454 18.0911 12.5454V12.7454C18.3581 12.7454 18.5747 12.9616 18.5747 13.229H18.7747ZM18.0911 13.9126C18.4684 13.9126 18.7747 13.607 18.7747 13.229H18.5747C18.5747 13.4965 18.3581 13.7126 18.0911 13.7126V13.9126ZM16.3402 13.9126H18.0911V13.7126H16.3402V13.9126ZM16.4402 15.1742V13.8126H16.2402V15.1742H16.4402ZM20.4256 15.0742H16.3402V15.2742H20.4256V15.0742ZM21.1092 15.7578C21.1092 15.3798 20.8029 15.0742 20.4256 15.0742V15.2742C20.6926 15.2742 20.9092 15.4904 20.9092 15.7578H21.1092ZM20.4256 16.4414C20.8029 16.4414 21.1092 16.1358 21.1092 15.7578H20.9092C20.9092 16.0253 20.6926 16.2414 20.4256 16.2414V16.4414ZM16.3402 16.4414H20.4256V16.2414H16.3402V16.4414ZM16.4402 17.703V16.3414H16.2402V17.703H16.4402ZM18.0911 17.603H16.3402V17.803H18.0911V17.603ZM18.7747 18.2866C18.7747 17.9086 18.4684 17.603 18.0911 17.603V17.803C18.3581 17.803 18.5747 18.0192 18.5747 18.2866H18.7747ZM18.0911 18.9702C18.4684 18.9702 18.7747 18.6646 18.7747 18.2866H18.5747C18.5747 18.5541 18.3581 18.7702 18.0911 18.7702V18.9702ZM16.3402 18.9702H18.0911V18.7702H16.3402V18.9702ZM16.4402 20.2325V18.8702H16.2402V20.2325H16.4402ZM18.0911 20.1325H16.3402V20.3325H18.0911V20.1325ZM18.7747 20.8161C18.7747 20.4381 18.4684 20.1325 18.0911 20.1325V20.3325C18.3581 20.3325 18.5747 20.5486 18.5747 20.8161H18.7747ZM18.0911 21.4997C18.4684 21.4997 18.7747 21.1941 18.7747 20.8161H18.5747C18.5747 21.0835 18.3581 21.2997 18.0911 21.2997V21.4997ZM16.3402 21.4997H18.0911V21.2997H16.3402V21.4997ZM16.4402 22.7613V21.3997H16.2402V22.7613H16.4402ZM20.4256 22.6613H16.3402V22.8613H20.4256V22.6613ZM21.1092 23.3449C21.1092 22.9669 20.8029 22.6613 20.4256 22.6613V22.8613C20.6926 22.8613 20.9092 23.0774 20.9092 23.3449H21.1092ZM20.4256 24.0285C20.8029 24.0285 21.1092 23.7229 21.1092 23.3449H20.9092C20.9092 23.6123 20.6926 23.8285 20.4256 23.8285V24.0285ZM16.3402 24.0285H20.4256V23.8285H16.3402V24.0285ZM16.4402 25.2901V23.9285H16.2402V25.2901H16.4402ZM18.0911 25.1901H16.3402V25.3901H18.0911V25.1901ZM18.7747 25.8737C18.7747 25.4957 18.4684 25.1901 18.0911 25.1901V25.3901C18.3581 25.3901 18.5747 25.6062 18.5747 25.8737H18.7747ZM18.0911 26.5573C18.4684 26.5573 18.7747 26.2517 18.7747 25.8737H18.5747C18.5747 26.1411 18.3581 26.3573 18.0911 26.3573V26.5573ZM16.3402 26.5573H18.0911V26.3573H16.3402V26.5573ZM16.4402 27.8196V26.4573H16.2402V27.8196H16.4402ZM18.0911 27.7196H16.3402V27.9196H18.0911V27.7196ZM18.7747 28.4032C18.7747 28.0251 18.4684 27.7196 18.0911 27.7196V27.9196C18.3581 27.9196 18.5747 28.1357 18.5747 28.4032H18.7747ZM18.0911 29.0868C18.4684 29.0868 18.7747 28.7812 18.7747 28.4032H18.5747C18.5747 28.6706 18.3581 28.8868 18.0911 28.8868V29.0868ZM16.3402 29.0868H18.0911V28.8868H16.3402V29.0868ZM16.4402 30.3484V28.9868H16.2402V30.3484H16.4402ZM20.4256 30.2484H16.3402V30.4484H20.4256V30.2484ZM21.1092 30.932C21.1092 30.5539 20.8029 30.2484 20.4256 30.2484V30.4484C20.6926 30.4484 20.9092 30.6645 20.9092 30.932H21.1092ZM20.4256 31.6156C20.8029 31.6156 21.1092 31.31 21.1092 30.932H20.9092C20.9092 31.1994 20.6926 31.4156 20.4256 31.4156V31.6156ZM15.7611 31.6156H20.4256V31.4156H15.7611V31.6156ZM15.757 31.6156L15.7615 31.6156L15.7607 31.4156L15.7562 31.4156L15.757 31.6156ZM11.7718 13.4233C11.7718 11.759 10.418 10.4052 8.75369 10.4052V10.6052C10.3075 10.6052 11.5718 11.8695 11.5718 13.4233H11.7718ZM11.7718 20.2003V13.4233H11.5718V20.2003H11.7718ZM11.7721 20.2175C11.7719 20.2118 11.7718 20.2061 11.7718 20.2003H11.5718C11.5718 20.2084 11.5719 20.2164 11.5722 20.2244L11.7721 20.2175ZM11.0888 20.846C11.1426 20.846 11.3045 20.8394 11.458 20.7595C11.6192 20.6756 11.7648 20.5132 11.7721 20.2235L11.5722 20.2184C11.5669 20.4282 11.4689 20.5283 11.3656 20.5821C11.2546 20.6399 11.1312 20.646 11.0888 20.646V20.846ZM10.4052 20.2003C10.4052 20.3464 10.4396 20.4643 10.4978 20.5577C10.5559 20.6507 10.6341 20.7138 10.7133 20.7562C10.8687 20.8393 11.0344 20.846 11.0888 20.846V20.646C11.0457 20.646 10.9196 20.6397 10.8076 20.5798C10.7531 20.5506 10.7036 20.5098 10.6675 20.4518C10.6316 20.3942 10.6052 20.314 10.6052 20.2003H10.4052ZM10.4052 13.4233V20.2003H10.6052V13.4233H10.4052ZM9.92155 12.9397C10.1885 12.9397 10.4052 13.1558 10.4052 13.4233H10.6052C10.6052 13.0453 10.2989 12.7397 9.92155 12.7397V12.9397ZM9.43793 13.4233C9.43793 13.1558 9.65455 12.9397 9.92155 12.9397V12.7397C9.54423 12.7397 9.23793 13.0453 9.23793 13.4233H9.43793ZM9.43793 20.2003V13.4233H9.23793V20.2003H9.43793ZM9.43793 20.4267V20.2003H9.23793V20.4267H9.43793ZM9.43793 20.4268V20.4267H9.23793V20.4268H9.43793ZM9.43793 29.1412V20.4268H9.23793V29.1412H9.43793ZM9.43659 29.1811C9.43659 29.1699 9.43696 29.1589 9.4377 29.1479L9.23815 29.1345C9.23711 29.1499 9.23659 29.1654 9.23659 29.1811H9.43659ZM8.16934 30.3911C8.4547 30.3911 8.77006 30.3143 9.01649 30.122C9.26669 29.9268 9.43659 29.6194 9.43659 29.1811H9.23659C9.23659 29.5616 9.0922 29.8092 8.89345 29.9643C8.69093 30.1224 8.42267 30.1911 8.16934 30.1911V30.3911ZM6.90259 29.2218C6.91297 29.6458 7.08568 29.9426 7.33393 30.131C7.57856 30.3167 7.88842 30.3911 8.16934 30.3911V30.1911C7.92007 30.1911 7.6562 30.1245 7.45483 29.9717C7.25707 29.8216 7.11148 29.5826 7.10253 29.217L6.90259 29.2218ZM6.90282 29.1805L6.90257 29.2187L7.10256 29.2201L7.10282 29.1818L6.90282 29.1805ZM6.90222 29.1567C6.90262 29.1648 6.90282 29.1729 6.90282 29.1811H7.10282C7.10282 29.1696 7.10254 29.1582 7.10198 29.1469L6.90222 29.1567ZM6.9021 20.4267V29.1518H7.1021V20.4267H6.9021ZM6.41848 19.9431C6.68547 19.9431 6.9021 20.1593 6.9021 20.4267H7.1021C7.1021 20.0487 6.7958 19.7431 6.41848 19.7431V19.9431ZM5.93485 20.4267C5.93485 20.1593 6.15148 19.9431 6.41848 19.9431V19.7431C6.04115 19.7431 5.73485 20.0487 5.73485 20.4267H5.93485ZM5.93485 29.1811V20.4267H5.73485V29.1811H5.93485ZM5.93512 29.2183L5.93485 29.1804L5.73485 29.1818L5.73512 29.2197L5.93512 29.2183ZM4.66833 30.3912C4.94931 30.3912 5.25924 30.3167 5.5039 30.131C5.75217 29.9425 5.92485 29.6455 5.93509 29.2214L5.73515 29.2166C5.72631 29.5824 5.58074 29.8215 5.38297 29.9717C5.18158 30.1245 4.91765 30.1912 4.66833 30.1912V30.3912ZM3.40109 29.1811C3.40109 29.6195 3.57098 29.9268 3.82118 30.1221C4.06761 30.3143 4.38297 30.3912 4.66833 30.3912V30.1912C4.41501 30.1912 4.14674 30.1224 3.94422 29.9644C3.74547 29.8093 3.60108 29.5616 3.60108 29.1811H3.40109ZM3.40109 20.4268V29.1811H3.60108V20.4268H3.40109ZM3.40109 20.253V20.4268H3.60108V20.253H3.40109ZM3.40174 20.2003C3.40174 20.2172 3.40153 20.2339 3.40112 20.2505L3.60105 20.2555C3.60151 20.2372 3.60174 20.2188 3.60174 20.2003H3.40174ZM3.40119 20.1772C3.40155 20.1848 3.40174 20.1926 3.40174 20.2003H3.60174C3.60174 20.1894 3.60148 20.1786 3.60098 20.1678L3.40119 20.1772ZM3.40109 13.4233V20.1725H3.60108V13.4233H3.40109ZM2.91746 12.9397C3.18446 12.9397 3.40109 13.1559 3.40109 13.4233H3.60108C3.60108 13.0453 3.29479 12.7397 2.91746 12.7397V12.9397ZM2.43384 13.4233C2.43384 13.1559 2.65047 12.9397 2.91746 12.9397V12.7397C2.54014 12.7397 2.23384 13.0453 2.23384 13.4233H2.43384ZM2.43384 20.2328V13.4233H2.23384V20.2328H2.43384ZM1.75087 20.846C1.8043 20.846 1.96397 20.8395 2.11628 20.7614C2.27595 20.6796 2.4222 20.521 2.43376 20.2369L2.23392 20.2287C2.22563 20.4327 2.12809 20.5306 2.02508 20.5834C1.91472 20.64 1.79282 20.646 1.75087 20.646V20.846ZM1.06725 20.2003C1.06725 20.3464 1.10163 20.4643 1.15988 20.5576C1.21794 20.6507 1.29616 20.7138 1.37536 20.7561C1.53078 20.8392 1.69645 20.846 1.75087 20.846V20.646C1.70782 20.646 1.58167 20.6397 1.46966 20.5798C1.41514 20.5506 1.36572 20.5097 1.32958 20.4518C1.29363 20.3942 1.26725 20.314 1.26725 20.2003H1.06725ZM1.06725 20.2003V20.2003H1.26725V20.2003H1.06725ZM1.06725 13.4233V20.2003H1.26725V13.4233H1.06725ZM4.08536 10.4052C2.42108 10.4052 1.06725 11.7591 1.06725 13.4233H1.26725C1.26725 11.8695 2.53154 10.6052 4.08536 10.6052V10.4052ZM4.09015 10.4052L4.08492 10.4052L4.0858 10.6052L4.09102 10.6052L4.09015 10.4052ZM8.75369 10.4052H4.09058V10.6052H8.75369V10.4052ZM6.34794 30.8043C6.40206 30.8621 6.45953 30.9172 6.52024 30.9693L6.65055 30.8176C6.59531 30.7701 6.54306 30.7201 6.49388 30.6676L6.34794 30.8043ZM4.66833 31.5584C5.34128 31.5584 6.02254 31.3048 6.49371 30.8045L6.34811 30.6674C5.91966 31.1224 5.29377 31.3584 4.66833 31.3584V31.5584ZM3.01914 30.9693C3.46176 31.3502 4.04801 31.5584 4.66833 31.5584V31.3584C4.09222 31.3584 3.55325 31.1651 3.14961 30.8177L3.01914 30.9693ZM2.23384 29.1811C2.23384 29.8964 2.51138 30.5332 3.01922 30.9693L3.14953 30.8176C2.68973 30.4227 2.43384 29.8433 2.43384 29.1811H2.23384ZM2.23384 21.8232V29.1811H2.43384V21.8232H2.23384ZM1.75087 22.0133C1.95824 22.0133 2.16626 21.9815 2.36418 21.9185L2.3035 21.7279C2.12553 21.7846 1.93799 21.8133 1.75087 21.8133V22.0133ZM-0.1 20.2003C-0.1 21.3924 0.838479 22.0133 1.75087 22.0133V21.8133C0.922895 21.8133 0.1 21.2576 0.1 20.2003H-0.1ZM-0.1 20.2003V20.2003H0.1V20.2003H-0.1ZM-0.1 13.4233V20.2003H0.1V13.4233H-0.1ZM-0.1 13.4233V13.4233H0.1V13.4233H-0.1ZM-0.1 13.4214V13.4233H0.1V13.4214H-0.1ZM4.07879 9.23799C1.77444 9.24155 -0.0989127 11.117 -0.1 13.4213L0.1 13.4214C0.101035 11.2274 1.88506 9.44138 4.0791 9.43799L4.07879 9.23799ZM4.08423 9.23796L4.07847 9.23799L4.07943 9.43799L4.08519 9.43796L4.08423 9.23796ZM8.75369 9.23796H4.08471V9.43796H8.75369V9.23796ZM12.939 13.4233C12.939 11.1159 11.0617 9.23796 8.75369 9.23796V9.43796C10.9512 9.43796 12.739 11.2263 12.739 13.4233H12.939ZM12.939 20.1733V13.4233H12.739V20.1733H12.939ZM12.9397 20.2003C12.9397 20.1898 12.9394 20.1792 12.9389 20.1688L12.7392 20.1779C12.7395 20.1853 12.7397 20.1928 12.7397 20.2003H12.9397ZM11.0888 22.0133C12.0012 22.0133 12.9397 21.3924 12.9397 20.2003H12.7397C12.7397 21.2576 11.9168 21.8133 11.0888 21.8133V22.0133ZM10.4748 21.9183C10.6729 21.9814 10.8812 22.0133 11.0888 22.0133V21.8133C10.9015 21.8133 10.7137 21.7845 10.5355 21.7277L10.4748 21.9183ZM10.6052 29.1811V21.823H10.4052V29.1811H10.6052ZM10.6032 29.2334C10.6045 29.2161 10.6052 29.1987 10.6052 29.1811H10.4052C10.4052 29.1936 10.4047 29.206 10.4038 29.2183L10.6032 29.2334ZM8.16934 31.5584C9.3593 31.5584 10.5792 30.7605 10.6035 29.2275L10.4035 29.2243C10.3813 30.6234 9.27659 31.3584 8.16934 31.3584V31.5584ZM6.52016 30.9692C6.96277 31.3502 7.54902 31.5584 8.16934 31.5584V31.3584C7.59324 31.3584 7.05426 31.165 6.65062 30.8176L6.52016 30.9692ZM6.4192 8.07072C4.26016 8.07072 2.43384 6.24439 2.43384 4.08536H2.23384C2.23384 6.35485 4.14971 8.27072 6.4192 8.27072V8.07072ZM10.4046 4.08536C10.4046 6.24439 8.57823 8.07072 6.4192 8.07072V8.27072C8.68869 8.27072 10.6046 6.35485 10.6046 4.08536H10.4046ZM6.4192 0.1C8.57823 0.1 10.4046 1.92632 10.4046 4.08536H10.6046C10.6046 1.81587 8.68869 -0.1 6.4192 -0.1V0.1ZM2.43384 4.08536C2.43384 1.92632 4.26016 0.1 6.4192 0.1V-0.1C4.14971 -0.1 2.23384 1.81587 2.23384 4.08536H2.43384ZM6.4192 1.06725C4.78235 1.06725 3.40108 2.44851 3.40108 4.08536H3.60108C3.60108 2.55897 4.89281 1.26725 6.4192 1.26725V1.06725ZM9.43731 4.08536C9.43731 2.44851 8.05604 1.06725 6.4192 1.06725V1.26725C7.94559 1.26725 9.23731 2.55897 9.23731 4.08536H9.43731ZM6.4192 7.10347C8.05604 7.10347 9.43731 5.7222 9.43731 4.08536H9.23731C9.23731 5.61175 7.94559 6.90347 6.4192 6.90347V7.10347ZM3.40108 4.08536C3.40108 5.7222 4.78235 7.10347 6.4192 7.10347V6.90347C4.89281 6.90347 3.60108 5.61175 3.60108 4.08536H3.40108Z" fill="#F5F8F9" mask="url(#path-1-inside-1_359_4264)"/>
</svg>
