<svg width="20" height="33" viewBox="0 0 20 33" fill="none" xmlns="http://www.w3.org/2000/svg">
<path d="M3.65625 6.11109H15.8437C16.0053 6.11109 16.1603 6.04671 16.2746 5.9321C16.3889 5.8175 16.4531 5.66206 16.4531 5.49998V0.611109C16.4531 0.449033 16.3889 0.293595 16.2746 0.17899C16.1603 0.0643846 16.0053 0 15.8437 0H3.65625C3.49463 0 3.33964 0.0643846 3.22536 0.17899C3.11108 0.293595 3.04688 0.449033 3.04688 0.611109V5.49998C3.04688 5.66206 3.11108 5.8175 3.22536 5.9321C3.33964 6.04671 3.49463 6.11109 3.65625 6.11109ZM4.26562 1.22222H15.2343V4.88887H4.26562V1.22222Z" fill="#BD120A"/>
<path d="M16.7257 9.84237C16.2114 9.58627 15.7621 9.21602 15.4118 8.75974C15.0615 8.30346 14.8195 7.77314 14.7042 7.20904C14.6699 7.05178 14.5751 6.91443 14.4404 6.82686C14.3057 6.73928 14.142 6.70854 13.9848 6.74132C13.8277 6.7741 13.6897 6.86775 13.601 7.00192C13.5123 7.13609 13.48 7.29994 13.5111 7.45789C13.6634 8.20285 13.9829 8.90321 14.4455 9.50581C14.9081 10.1084 15.5014 10.5974 16.1806 10.9356C16.7683 11.229 17.2694 11.6712 17.6343 12.2184C17.9992 12.7657 18.2154 13.399 18.2613 14.0557H1.2387C1.28464 13.3989 1.50078 12.7656 1.86573 12.2184C2.23068 11.6712 2.73179 11.229 3.31947 10.9356C3.99863 10.5974 4.59201 10.1084 5.05456 9.50581C5.51712 8.90321 5.83669 8.20285 5.98901 7.45789C6.02007 7.29994 5.98774 7.13609 5.89903 7.00192C5.81032 6.86775 5.6724 6.7741 5.51523 6.74132C5.35806 6.70854 5.19435 6.73928 5.05965 6.82686C4.92496 6.91443 4.83016 7.05178 4.79586 7.20904C4.68051 7.77314 4.43851 8.30347 4.08823 8.75975C3.73796 9.21604 3.28861 9.58628 2.77432 9.84237C1.93863 10.2578 1.23575 10.8998 0.745387 11.6955C0.255027 12.4912 -0.00318716 13.4088 2.96938e-05 14.3442V31.1667C0.000561968 31.6528 0.193338 32.1188 0.536061 32.4625C0.878785 32.8062 1.34346 32.9995 1.82815 33H17.6719C18.1565 32.9995 18.6212 32.8062 18.9639 32.4625C19.3067 32.1188 19.4994 31.6528 19.5 31.1667V14.3442C19.5032 13.4088 19.245 12.4912 18.7546 11.6955C18.2643 10.8998 17.5614 10.2578 16.7257 9.84237ZM18.2812 27.5001H1.21878V15.2779H18.2812V27.5001ZM17.6719 31.7778H1.82815C1.6666 31.7776 1.51172 31.7132 1.39749 31.5986C1.28325 31.484 1.21899 31.3287 1.21878 31.1667V28.7223H18.2812V31.1667C18.281 31.3287 18.2167 31.484 18.1025 31.5986C17.9883 31.7132 17.8334 31.7776 17.6719 31.7778Z" fill="#BD120A"/>
<path d="M5.48437 23.2222H7.92187V25.6666C7.92187 25.8287 7.98607 25.9842 8.10035 26.0988C8.21463 26.2134 8.36962 26.2777 8.53124 26.2777H10.9687C11.1303 26.2777 11.2853 26.2134 11.3996 26.0988C11.5139 25.9842 11.5781 25.8287 11.5781 25.6666V23.2222H14.0156C14.1772 23.2222 14.3322 23.1578 14.4465 23.0432C14.5608 22.9286 14.625 22.7732 14.625 22.6111V20.1667C14.625 20.0046 14.5608 19.8491 14.4465 19.7345C14.3322 19.6199 14.1772 19.5555 14.0156 19.5555H11.5781V17.1111C11.5781 16.949 11.5139 16.7936 11.3996 16.679C11.2853 16.5644 11.1303 16.5 10.9687 16.5H8.53124C8.36962 16.5 8.21463 16.5644 8.10035 16.679C7.98607 16.7936 7.92187 16.949 7.92187 17.1111V19.5555H5.48437C5.32276 19.5555 5.16776 19.6199 5.05348 19.7345C4.9392 19.8491 4.875 20.0046 4.875 20.1667V22.6111C4.875 22.7732 4.9392 22.9286 5.05348 23.0432C5.16776 23.1578 5.32276 23.2222 5.48437 23.2222ZM6.09375 20.7778H8.53124C8.69286 20.7778 8.84785 20.7134 8.96213 20.5988C9.07641 20.4842 9.14061 20.3287 9.14061 20.1667V17.7222H10.3594V20.1667C10.3594 20.3287 10.4236 20.4842 10.5378 20.5988C10.6521 20.7134 10.8071 20.7778 10.9687 20.7778H13.4062V22H10.9687C10.8071 22 10.6521 22.0644 10.5378 22.179C10.4236 22.2936 10.3594 22.449 10.3594 22.6111V25.0555H9.14061V22.6111C9.14061 22.449 9.07641 22.2936 8.96213 22.179C8.84785 22.0644 8.69286 22 8.53124 22H6.09375V20.7778Z" fill="#BD120A"/>
</svg>
