<svg width="24" height="24" viewBox="0 0 24 24" fill="none" xmlns="http://www.w3.org/2000/svg">
<path d="M2.21973 2.21983C2.09271 2.34682 2.01549 2.51517 2.00209 2.69428C1.98869 2.87339 2.04002 3.05136 2.14673 3.19583L2.21973 3.27983L6.25373 7.31483C4.28676 8.69346 2.88262 10.7349 2.29873 13.0648C2.25371 13.2566 2.28597 13.4584 2.38854 13.6267C2.4911 13.7949 2.65574 13.916 2.84687 13.9638C3.038 14.0116 3.24026 13.9823 3.40995 13.8822C3.57964 13.7821 3.70313 13.6192 3.75373 13.4288C4.27263 11.3608 5.55063 9.56378 7.33373 8.39483L9.14373 10.2048C8.42073 10.9603 8.02232 11.9689 8.03385 13.0146C8.04539 14.0602 8.46594 15.0598 9.20544 15.7991C9.94493 16.5385 10.9446 16.9589 11.9902 16.9702C13.0359 16.9816 14.0444 16.583 14.7997 15.8598L20.7187 21.7798C20.8526 21.914 21.0322 21.9926 21.2216 21.9997C21.411 22.0068 21.596 21.942 21.7396 21.8182C21.8831 21.6945 21.9744 21.5209 21.9953 21.3326C22.0161 21.1442 21.9648 20.9549 21.8517 20.8028L21.7787 20.7188L15.6657 14.6048L15.6667 14.6028L8.71673 7.65683L8.71873 7.65483L7.58573 6.52483L3.27973 2.21983C3.13911 2.07938 2.94848 2.00049 2.74973 2.00049C2.55098 2.00049 2.36036 2.07938 2.21973 2.21983ZM11.9997 5.49983C10.9997 5.49983 10.0297 5.64783 9.11073 5.92483L10.3477 7.16083C12.4873 6.73719 14.7078 7.15191 16.5502 8.31926C18.3926 9.4866 19.716 11.3173 20.2467 13.4328C20.2985 13.6218 20.4222 13.7829 20.5913 13.8818C20.7604 13.9808 20.9615 14.0096 21.1516 13.9622C21.3417 13.9148 21.5056 13.7948 21.6084 13.6281C21.7113 13.4613 21.7447 13.261 21.7017 13.0698C21.1595 10.9073 19.9103 8.98789 18.1525 7.6164C16.3948 6.24492 14.2292 5.49996 11.9997 5.49983ZM12.1947 9.00983L15.9957 12.8098C15.9466 11.8177 15.5303 10.8793 14.8278 10.1771C14.1253 9.47476 13.1868 9.05874 12.1947 9.00983Z" fill="#34373F"/>
</svg>
