<svg width="24" height="24" viewBox="0 0 24 24" fill="none" xmlns="http://www.w3.org/2000/svg">
<path d="M12 22C10.0222 22 8.08879 21.4135 6.4443 20.3147C4.79981 19.2159 3.51809 17.6541 2.76121 15.8268C2.00433 13.9996 1.8063 11.9889 2.19215 10.0491C2.578 8.10929 3.53041 6.32746 4.92894 4.92894C6.32746 3.53041 8.10929 2.578 10.0491 2.19215C11.9889 1.8063 13.9996 2.00433 15.8268 2.76121C17.6541 3.51809 19.2159 4.79981 20.3147 6.4443C21.4135 8.08879 22 10.0222 22 12C21.9975 14.6514 20.9432 17.1935 19.0683 19.0683C17.1935 20.9432 14.6514 21.9975 12 22ZM12 3.39535C10.2982 3.39535 8.63454 3.90001 7.21951 4.8455C5.80449 5.79099 4.70161 7.13485 4.05034 8.70715C3.39908 10.2794 3.22868 12.0095 3.56069 13.6787C3.8927 15.3478 4.71221 16.881 5.9156 18.0844C7.11898 19.2878 8.65218 20.1073 10.3213 20.4393C11.9905 20.7713 13.7206 20.6009 15.2929 19.9497C16.8652 19.2984 18.209 18.1955 19.1545 16.7805C20.1 15.3655 20.6047 13.7018 20.6047 12C20.6022 9.71866 19.6948 7.53147 18.0817 5.91832C16.4685 4.30516 14.2813 3.39782 12 3.39535Z" fill="#34373F"/>
<path d="M12.9302 17.3485H11.0697C10.8847 17.3485 10.7073 17.275 10.5764 17.1441C10.4456 17.0133 10.3721 16.8358 10.3721 16.6508C10.3721 16.4658 10.4456 16.2883 10.5764 16.1575C10.7073 16.0266 10.8847 15.9531 11.0697 15.9531H12.9302C13.1152 15.9531 13.2927 16.0266 13.4235 16.1575C13.5544 16.2883 13.6279 16.4658 13.6279 16.6508C13.6279 16.8358 13.5544 17.0133 13.4235 17.1441C13.2927 17.275 13.1152 17.3485 12.9302 17.3485Z" fill="#34373F"/>
<path d="M11.9998 17.3489C11.8155 17.3465 11.6394 17.2722 11.5091 17.1419C11.3788 17.0116 11.3045 16.8355 11.3021 16.6512V10.8001C11.145 10.7466 11.012 10.6389 10.9272 10.4963C10.8423 10.3536 10.8111 10.1854 10.8391 10.0218C10.8671 9.85823 10.9525 9.70998 11.08 9.6037C11.2075 9.49741 11.3687 9.44006 11.5347 9.44194H11.9998C12.1841 9.44435 12.3601 9.51863 12.4904 9.64895C12.6208 9.77927 12.695 9.95533 12.6975 10.1396V16.6512C12.695 16.8355 12.6208 17.0116 12.4904 17.1419C12.3601 17.2722 12.1841 17.3465 11.9998 17.3489Z" fill="#34373F"/>
<path d="M12.0005 8.27892C12.5143 8.27892 12.9308 7.86244 12.9308 7.34869C12.9308 6.83494 12.5143 6.41846 12.0005 6.41846C11.4868 6.41846 11.0703 6.83494 11.0703 7.34869C11.0703 7.86244 11.4868 8.27892 12.0005 8.27892Z" fill="#34373F"/>
</svg>
