<svg width="24" height="24" viewBox="0 0 24 24" fill="none" xmlns="http://www.w3.org/2000/svg">
<path d="M22.434 10.134C22.4334 10.1335 22.4329 10.1329 22.4324 10.1324L13.8661 1.56637C13.5009 1.20107 13.0155 1 12.4991 1C11.9827 1 11.4972 1.20107 11.1319 1.56637L2.57008 10.1281C2.56719 10.131 2.56415 10.134 2.56142 10.1369C1.81161 10.891 1.81289 12.1146 2.56511 12.8668C2.90878 13.2107 3.36251 13.4097 3.84781 13.4306C3.86768 13.4326 3.88754 13.4335 3.90757 13.4335H4.24884V19.7374C4.24884 20.9851 5.26397 22 6.51159 22H9.86302C10.2028 22 10.4783 21.7245 10.4783 21.3848V16.4424C10.4783 15.8732 10.9414 15.4101 11.5107 15.4101H13.4875C14.0567 15.4101 14.5197 15.8732 14.5197 16.4424V21.3848C14.5197 21.7245 14.7952 22 15.135 22H18.4864C19.7342 22 20.7492 20.9851 20.7492 19.7374V13.4335H21.0658C21.582 13.4335 22.0674 13.2325 22.4329 12.867C23.1859 12.1137 23.1862 10.8878 22.434 10.134ZM21.5627 11.997C21.4299 12.1298 21.2534 12.2031 21.0658 12.2031H20.1339C19.7941 12.2031 19.5187 12.4785 19.5187 12.8183V19.7374C19.5187 20.3065 19.0557 20.7696 18.4864 20.7696H15.7502V16.4424C15.7502 15.1948 14.7352 14.1797 13.4875 14.1797H11.5107C10.2629 14.1797 9.24778 15.1948 9.24778 16.4424V20.7696H6.51159C5.9425 20.7696 5.47931 20.3065 5.47931 19.7374V12.8183C5.47931 12.4785 5.20389 12.2031 4.86407 12.2031H3.94827C3.93865 12.2024 3.9292 12.2019 3.91943 12.2018C3.73614 12.1986 3.56423 12.1258 3.43541 11.9969C3.16144 11.7229 3.16144 11.277 3.43541 11.0029C3.43557 11.0029 3.43557 11.0027 3.43573 11.0025L3.43621 11.0021L12.0022 2.43635C12.1349 2.30353 12.3113 2.23047 12.4991 2.23047C12.6867 2.23047 12.8631 2.30353 12.9959 2.43635L21.56 11.0003C21.5613 11.0016 21.5627 11.0029 21.564 11.0041C21.8366 11.2786 21.8361 11.7235 21.5627 11.997Z" fill="#34373F"/>
</svg>
