<svg width="60" height="60" viewBox="0 0 60 60" fill="none" xmlns="http://www.w3.org/2000/svg">
<g filter="url(#filter0_d_683_3705)">
<circle cx="30" cy="26" r="20" fill="white"/>
</g>
<path d="M24.7776 18.89C24.7774 19.391 24.5781 19.8713 24.2237 20.2253C23.8693 20.5794 23.3888 20.7781 22.8879 20.7779C22.3869 20.7776 21.9066 20.5784 21.5526 20.224C21.1985 19.8696 20.9997 19.3891 21 18.8881C21.0003 18.3872 21.1995 17.9068 21.5539 17.5528C21.9083 17.1988 22.3888 17 22.8898 17.0002C23.3907 17.0005 23.871 17.1997 24.2251 17.5541C24.5791 17.9085 24.7779 18.3891 24.7776 18.89ZM24.8343 22.1765H21.0567V34.0005H24.8343V22.1765ZM30.803 22.1765H27.0442V34.0005H30.7652V27.7958C30.7652 24.3392 35.27 24.0181 35.27 27.7958V34.0005H39.0004V26.5114C39.0004 20.6844 32.3329 20.9016 30.7652 23.7632L30.803 22.1765Z" fill="#BD120A"/>
<defs>
<filter id="filter0_d_683_3705" x="0" y="0" width="60" height="60" filterUnits="userSpaceOnUse" color-interpolation-filters="sRGB">
<feFlood flood-opacity="0" result="BackgroundImageFix"/>
<feColorMatrix in="SourceAlpha" type="matrix" values="0 0 0 0 0 0 0 0 0 0 0 0 0 0 0 0 0 0 127 0" result="hardAlpha"/>
<feOffset dy="4"/>
<feGaussianBlur stdDeviation="5"/>
<feComposite in2="hardAlpha" operator="out"/>
<feColorMatrix type="matrix" values="0 0 0 0 0.203922 0 0 0 0 0.215686 0 0 0 0 0.247059 0 0 0 0.15 0"/>
<feBlend mode="normal" in2="BackgroundImageFix" result="effect1_dropShadow_683_3705"/>
<feBlend mode="normal" in="SourceGraphic" in2="effect1_dropShadow_683_3705" result="shape"/>
</filter>
</defs>
</svg>
