<svg xmlns="http://www.w3.org/2000/svg" width="20" height="20" viewBox="0 0 20 20" fill="none">
<path d="M15.625 18.5938H4.375C3.91916 18.5938 3.48199 18.4127 3.15966 18.0903C2.83733 17.768 2.65625 17.3308 2.65625 16.875V15.625C2.66253 14.5928 2.95886 13.5831 3.51141 12.7111C4.06397 11.8392 4.85049 11.1402 5.78125 10.6938C6.02248 10.5797 6.28689 10.5231 6.55367 10.5286C6.82046 10.534 7.08235 10.6012 7.31875 10.725C8.15342 11.1635 9.08215 11.3926 10.025 11.3926C10.9679 11.3926 11.8966 11.1635 12.7312 10.725C12.9676 10.6012 13.2295 10.534 13.4963 10.5286C13.7631 10.5231 14.0275 10.5797 14.2687 10.6938C15.1995 11.1402 15.986 11.8392 16.5386 12.7111C17.0911 13.5831 17.3875 14.5928 17.3937 15.625V16.875C17.3938 17.105 17.3478 17.3326 17.2583 17.5445C17.1688 17.7564 17.0377 17.9481 16.8728 18.1084C16.7079 18.2686 16.5124 18.3942 16.2981 18.4776C16.0838 18.5609 15.8549 18.6004 15.625 18.5938ZM6.49375 11.4625C6.37915 11.4627 6.26601 11.4883 6.1625 11.5375C5.39491 11.9104 4.74729 12.4911 4.29321 13.2137C3.83914 13.9362 3.59681 14.7716 3.59375 15.625V16.875C3.59375 17.0822 3.67606 17.2809 3.82257 17.4274C3.96909 17.5739 4.1678 17.6562 4.375 17.6562H15.625C15.8322 17.6562 16.0309 17.5739 16.1774 17.4274C16.3239 17.2809 16.4062 17.0822 16.4062 16.875V15.625C16.4032 14.7716 16.1609 13.9362 15.7068 13.2137C15.2527 12.4911 14.6051 11.9104 13.8375 11.5375C13.7309 11.4837 13.6132 11.4556 13.4937 11.4556C13.3743 11.4556 13.2566 11.4837 13.15 11.5375C12.1778 12.0457 11.097 12.3111 10 12.3111C8.90297 12.3111 7.82223 12.0457 6.85 11.5375C6.73956 11.4826 6.61695 11.4568 6.49375 11.4625ZM10 9.84375C9.16561 9.84375 8.34996 9.59633 7.65619 9.13276C6.96242 8.6692 6.42169 8.01032 6.10238 7.23945C5.78308 6.46857 5.69953 5.62032 5.86231 4.80196C6.02509 3.98361 6.42689 3.2319 7.01689 2.6419C7.6069 2.05189 8.3586 1.6501 9.17696 1.48731C9.99532 1.32453 10.8436 1.40808 11.6144 1.72739C12.3853 2.04669 13.0442 2.58742 13.5078 3.28119C13.9713 3.97496 14.2187 4.79061 14.2187 5.625C14.2171 6.74338 13.7721 7.81547 12.9813 8.60628C12.1905 9.39709 11.1184 9.8421 10 9.84375ZM10 2.34375C9.35103 2.34375 8.71663 2.53619 8.17703 2.89674C7.63744 3.25729 7.21687 3.76975 6.96852 4.36932C6.72017 4.96889 6.65519 5.62864 6.7818 6.26514C6.90841 6.90164 7.22091 7.4863 7.67981 7.9452C8.1387 8.40409 8.72336 8.7166 9.35986 8.8432C9.99636 8.96981 10.6561 8.90483 11.2557 8.65648C11.8552 8.40813 12.3677 7.98756 12.7283 7.44797C13.0888 6.90837 13.2812 6.27397 13.2812 5.625C13.2812 4.75476 12.9355 3.92016 12.3202 3.30481C11.7048 2.68945 10.8702 2.34375 10 2.34375Z" fill="#BD120A"/>
</svg>