<svg width="95" height="44" viewBox="0 0 95 44" fill="none" xmlns="http://www.w3.org/2000/svg">
<path fill-rule="evenodd" clip-rule="evenodd" d="M0.332581 12.65V42.9904C2.27014 42.9112 4.19441 42.9451 6.10779 42.9788C9.36674 43.0363 12.5941 43.0932 15.8016 42.5894C22.449 41.5459 27.7116 35.9346 28.1774 29.5985C28.7527 21.7756 24.8848 15.8056 17.829 13.5566C15.9984 12.9738 14.1255 12.6874 12.2251 12.665C9.42726 12.6297 6.62813 12.6369 3.81803 12.6441C2.65831 12.6471 1.49672 12.65 0.332581 12.65ZM9.41176 18.5808C8.58297 18.5933 7.74671 18.606 6.90523 18.5751V36.9258C7.57676 36.9258 8.24708 36.9359 8.91612 36.9461C10.3934 36.9685 11.8645 36.9908 13.3285 36.9033C17.3159 36.6667 20.337 33.9495 21.1788 30.0194C22.0953 25.7405 20.2399 21.4991 16.6733 19.6834C14.3629 18.5057 11.9216 18.5427 9.41176 18.5808Z" fill="#891515"/>
<path d="M23.4575 12.6322C27.8842 12.7286 32.2577 12.1566 36.5714 12.8417C42.4947 13.7796 46.9015 16.9126 48.8538 22.6929C50.8027 28.4599 49.7517 33.8179 45.478 38.2978C42.4781 41.4474 38.6068 42.8376 34.3197 42.9707C30.6846 43.0837 27.0428 42.9939 23.0883 42.9939C25.5495 41.2645 27.4652 39.3255 28.9285 36.891C30.7411 36.891 32.5205 36.9608 34.2931 36.8777C39.5081 36.6316 43.0268 32.4011 42.661 27.2094C42.3218 22.3869 39.0957 18.6154 33.1158 18.5921C31.7489 18.5855 30.3819 18.5921 28.9252 18.5921C27.5051 16.2673 25.6758 14.2884 23.4608 12.6322H23.4575Z" fill="#891515"/>
<path d="M95 12.626V18.719H85.8007V42.9645H79.0492V18.8088H71.5694C71.2567 16.5106 70.5117 14.4585 68.9519 12.626H95Z" fill="#891515"/>
<path fill-rule="evenodd" clip-rule="evenodd" d="M66.0783 31.7857C64.7616 30.4357 63.4948 29.1389 62.1382 27.7459C63.3373 27.1813 64.4864 26.6197 65.4996 25.829C69.7267 22.5398 69.4473 16.1541 64.9541 13.2739C63.5174 12.3526 61.9143 11.9835 60.2447 11.9171C55.4155 11.7241 51.2516 14.2452 50.5531 18.7416C54.1018 26.3113 53.5032 33.3455 48.2716 39.8941C49.7815 41.7899 51.7505 42.8375 54.042 43.3131C58.5119 44.2443 62.473 43.077 66.065 40.1568C67.2623 41.4141 68.3931 42.6048 69.5604 43.8352C71.2899 42.6312 72.9029 41.5138 74.7022 40.2634L70.0061 35.8697L70.4226 35.2533C71.767 33.2656 73.0537 31.3633 74.067 29.2614C72.9833 28.6759 71.9323 28.1095 70.8879 27.5473L69.1281 26.6007C68.981 26.856 68.8385 27.1101 68.6989 27.3628C68.5353 27.6587 68.3756 27.9526 68.2173 28.2441C67.5477 29.4767 66.9014 30.6666 66.0783 31.7857ZM62.3599 36.2023C60.5274 37.576 58.8179 38.3575 56.7426 37.9884C55.1561 37.7056 53.9123 36.9274 53.5464 35.2911C53.1872 33.6813 53.7127 32.2712 55.0198 31.2103C55.3989 30.9043 55.8246 30.6549 56.2769 30.3455C56.6038 30.6746 56.9244 31.0005 57.2418 31.3233C57.9254 32.0185 58.5942 32.6988 59.2802 33.362C59.9477 34.0067 60.6338 34.631 61.3495 35.2822L61.3781 35.3085C61.6981 35.5994 62.0239 35.8961 62.3566 36.2023H62.3599ZM56.686 20.0753C56.5896 21.7318 57.3612 22.9889 58.5219 24.1729C60.5141 23.3314 61.3888 22.7626 61.9775 21.9412C62.6925 20.9435 62.7457 19.2572 62.0905 18.3161C61.4553 17.4015 59.9919 16.9557 58.7347 17.2949C57.5275 17.6176 56.7692 18.6719 56.686 20.0753Z" fill="#34373F"/>
<path d="M3.12027 4.53351H5.56919V7.734C5.24548 7.84096 4.90911 7.92681 4.56007 7.99156C4.21102 8.05348 3.81554 8.08445 3.3736 8.08445C2.75997 8.08445 2.23922 7.96341 1.81136 7.72133C1.3835 7.47925 1.05839 7.12177 0.836012 6.64887C0.613638 6.17597 0.502452 5.59471 0.502452 4.90507C0.502452 4.25765 0.626305 3.69749 0.874013 3.2246C1.12453 2.7517 1.48906 2.38577 1.96758 2.1268C2.44892 1.86784 3.03582 1.73835 3.72828 1.73835C4.0548 1.73835 4.3771 1.77354 4.69518 1.84391C5.01326 1.91428 5.30178 2.00577 5.56075 2.11836L5.12585 3.16549C4.93726 3.06978 4.72192 2.98956 4.47984 2.92482C4.23776 2.86007 3.98443 2.8277 3.71983 2.8277C3.33983 2.8277 3.00908 2.91496 2.72759 3.08949C2.44892 3.26401 2.23218 3.5089 2.07736 3.82416C1.92536 4.13661 1.84936 4.50536 1.84936 4.9304C1.84936 5.33292 1.90425 5.69041 2.01403 6.00286C2.12381 6.31249 2.29692 6.55598 2.53337 6.73332C2.76982 6.90784 3.07804 6.9951 3.45805 6.9951C3.64383 6.9951 3.80005 6.98665 3.92672 6.96976C4.05621 6.95006 4.17724 6.93036 4.28984 6.91065V5.62285H3.12027V4.53351ZM9.29105 8V1.82702H10.6V6.9191H13.1038V8H9.29105ZM22.0317 4.90507C22.0317 5.38078 21.9726 5.81427 21.8544 6.20553C21.7361 6.59398 21.556 6.92895 21.3139 7.21043C21.0747 7.49192 20.7706 7.70866 20.4019 7.86066C20.0332 8.00985 19.5969 8.08445 19.093 8.08445C18.5891 8.08445 18.1528 8.00985 17.7841 7.86066C17.4153 7.70866 17.1099 7.49192 16.8678 7.21043C16.6286 6.92895 16.4498 6.59257 16.3316 6.20131C16.2134 5.81004 16.1543 5.37515 16.1543 4.89662C16.1543 4.25765 16.2584 3.70172 16.4667 3.22882C16.6778 2.75311 17.0016 2.38436 17.4379 2.12258C17.8742 1.8608 18.4287 1.72991 19.1014 1.72991C19.7714 1.72991 20.3217 1.8608 20.7524 2.12258C21.1858 2.38436 21.5067 2.75311 21.715 3.22882C21.9261 3.70453 22.0317 4.26328 22.0317 4.90507ZM17.5265 4.90507C17.5265 5.33574 17.58 5.7073 17.687 6.01975C17.7968 6.32938 17.9671 6.56865 18.1979 6.73754C18.4287 6.90361 18.7271 6.98665 19.093 6.98665C19.4646 6.98665 19.7657 6.90361 19.9966 6.73754C20.2274 6.56865 20.3949 6.32938 20.499 6.01975C20.606 5.7073 20.6595 5.33574 20.6595 4.90507C20.6595 4.25765 20.5384 3.74816 20.2963 3.3766C20.0543 3.00504 19.656 2.81926 19.1014 2.81926C18.7327 2.81926 18.4315 2.9037 18.1979 3.0726C17.9671 3.23867 17.7968 3.47794 17.687 3.79038C17.58 4.10002 17.5265 4.47158 17.5265 4.90507ZM25.5593 1.82702H27.4805C28.3024 1.82702 28.9245 1.94243 29.3467 2.17325C29.769 2.40407 29.9801 2.80941 29.9801 3.38927C29.9801 3.6229 29.9421 3.83401 29.8661 4.02261C29.7929 4.21121 29.6859 4.36602 29.5452 4.48706C29.4044 4.6081 29.2327 4.68692 29.0301 4.72351V4.76573C29.2355 4.80795 29.4213 4.88114 29.5874 4.98529C29.7535 5.08662 29.8858 5.23581 29.9843 5.43285C30.0856 5.62708 30.1363 5.88604 30.1363 6.20975C30.1363 6.58413 30.0448 6.90502 29.8618 7.17243C29.6789 7.43984 29.4171 7.64533 29.0765 7.78889C28.7387 7.92963 28.3362 8 27.8689 8H25.5593V1.82702ZM26.8682 4.27172H27.6283C28.0083 4.27172 28.2714 4.21261 28.4178 4.09439C28.5642 3.97335 28.6374 3.79601 28.6374 3.56238C28.6374 3.32593 28.5501 3.15704 28.3756 3.05571C28.2039 2.95156 27.9308 2.89948 27.5565 2.89948H26.8682V4.27172ZM26.8682 5.31041V6.9191H27.7211C28.1152 6.9191 28.3897 6.84309 28.5445 6.69109C28.6993 6.53909 28.7767 6.33501 28.7767 6.07886C28.7767 5.92686 28.7429 5.79315 28.6754 5.67774C28.6078 5.56234 28.4938 5.47226 28.3334 5.40752C28.1757 5.34278 27.9576 5.31041 27.6789 5.31041H26.8682ZM37.3964 8L36.9489 6.53065H34.6984L34.2508 8H32.8406L35.0193 1.80169H36.6195L38.8067 8H37.3964ZM36.6364 5.43285L36.1888 3.99728C36.1607 3.90157 36.1227 3.77912 36.0748 3.62994C36.0298 3.47794 35.9834 3.32453 35.9355 3.16971C35.8905 3.01208 35.8539 2.87556 35.8257 2.76015C35.7976 2.87556 35.7582 3.01911 35.7075 3.19082C35.6597 3.35971 35.6132 3.52016 35.5682 3.67216C35.5231 3.82416 35.4908 3.93253 35.4711 3.99728L35.0277 5.43285H36.6364ZM41.8361 8V1.82702H43.145V6.9191H45.6488V8H41.8361Z" fill="#34373F"/>
</svg>
