<svg xmlns="http://www.w3.org/2000/svg" width="26" height="26" viewBox="0 0 26 26" fill="none">
<g clip-path="url(#clip0_673_347)">
<path d="M20.3125 24.1719H5.6875C5.09491 24.1719 4.52658 23.9365 4.10756 23.5174C3.68853 23.0984 3.45312 22.5301 3.45312 21.9375V20.3125C3.46129 18.9706 3.84652 17.658 4.56484 16.5245C5.28316 15.391 6.30564 14.4822 7.51562 13.9019C7.82923 13.7536 8.17296 13.6801 8.51978 13.6871C8.8666 13.6942 9.20706 13.7816 9.51437 13.9425C10.5994 14.5126 11.8068 14.8104 13.0325 14.8104C14.2582 14.8104 15.4656 14.5126 16.5506 13.9425C16.8579 13.7816 17.1984 13.6942 17.5452 13.6871C17.892 13.6801 18.2358 13.7536 18.5494 13.9019C19.7594 14.4822 20.7818 15.391 21.5002 16.5245C22.2185 17.658 22.6037 18.9706 22.6119 20.3125V21.9375C22.612 22.2365 22.5521 22.5324 22.4358 22.8078C22.3195 23.0833 22.149 23.3325 21.9346 23.5409C21.7202 23.7492 21.4662 23.9124 21.1875 24.0208C20.9089 24.1292 20.6113 24.1806 20.3125 24.1719ZM8.44187 14.9013C8.29289 14.9015 8.14582 14.9348 8.01125 14.9988C7.01338 15.4835 6.17148 16.2385 5.58118 17.1778C4.99088 18.1171 4.67585 19.2031 4.67187 20.3125V21.9375C4.67187 22.2069 4.77888 22.4652 4.96934 22.6557C5.15981 22.8461 5.41814 22.9531 5.6875 22.9531H20.3125C20.5819 22.9531 20.8402 22.8461 21.0307 22.6557C21.2211 22.4652 21.3281 22.2069 21.3281 21.9375V20.3125C21.3242 19.2031 21.0091 18.1171 20.4188 17.1778C19.8285 16.2385 18.9866 15.4835 17.9887 14.9988C17.8502 14.9288 17.6971 14.8923 17.5419 14.8923C17.3866 14.8923 17.2336 14.9288 17.095 14.9988C15.8311 15.6594 14.4261 16.0044 13 16.0044C11.5739 16.0044 10.1689 15.6594 8.905 14.9988C8.76143 14.9274 8.60203 14.8938 8.44187 14.9013ZM13 12.7969C11.9153 12.7969 10.8549 12.4752 9.95304 11.8726C9.05114 11.27 8.3482 10.4134 7.9331 9.41128C7.518 8.40914 7.40939 7.30642 7.62101 6.24255C7.83262 5.17869 8.35496 4.20147 9.12196 3.43446C9.88896 2.66746 10.8662 2.14512 11.9301 1.93351C12.9939 1.72189 14.0966 1.8305 15.0988 2.2456C16.1009 2.6607 16.9575 3.36365 17.5601 4.26555C18.1627 5.16745 18.4844 6.2278 18.4844 7.3125C18.4822 8.76639 17.9037 10.1601 16.8757 11.1882C15.8476 12.2162 14.4539 12.7947 13 12.7969ZM13 3.04688C12.1563 3.04688 11.3316 3.29705 10.6301 3.76576C9.92867 4.23448 9.38193 4.90068 9.05908 5.68012C8.73622 6.45956 8.65175 7.31723 8.81634 8.14468C8.98093 8.97213 9.38719 9.7322 9.98375 10.3288C10.5803 10.9253 11.3404 11.3316 12.1678 11.4962C12.9953 11.6608 13.8529 11.5763 14.6324 11.2534C15.4118 10.9306 16.078 10.3838 16.5467 9.68236C17.0154 8.98088 17.2656 8.15616 17.2656 7.3125C17.2656 6.18119 16.8162 5.09621 16.0163 4.29625C15.2163 3.49629 14.1313 3.04688 13 3.04688Z" fill="#BD120A"/>
<circle cx="17.3334" cy="3.25" r="3.79167" fill="#ABB436" stroke="white" stroke-width="1.08333"/>
</g>
<defs>
<clipPath id="clip0_673_347">
<rect width="26" height="26" fill="white"/>
</clipPath>
</defs>
</svg>