<svg width="24" height="24" viewBox="0 0 24 24" fill="none" xmlns="http://www.w3.org/2000/svg">
<path d="M18.75 22.3125H5.25C4.70299 22.3125 4.17839 22.0952 3.79159 21.7084C3.4048 21.3216 3.1875 20.797 3.1875 20.25V18.75C3.19504 17.5113 3.55063 16.2997 4.21369 15.2534C4.87676 14.207 5.82059 13.3682 6.9375 12.8325C7.22698 12.6956 7.54427 12.6278 7.86441 12.6343C8.18455 12.6408 8.49882 12.7215 8.7825 12.87C9.7841 13.3962 10.8986 13.6712 12.03 13.6712C13.1614 13.6712 14.2759 13.3962 15.2775 12.87C15.5612 12.7215 15.8754 12.6408 16.1956 12.6343C16.5157 12.6278 16.833 12.6956 17.1225 12.8325C18.2394 13.3682 19.1832 14.207 19.8463 15.2534C20.5094 16.2997 20.865 17.5113 20.8725 18.75V20.25C20.8726 20.526 20.8173 20.7992 20.71 21.0534C20.6026 21.3076 20.4453 21.5377 20.2474 21.73C20.0494 21.9224 19.8149 22.073 19.5577 22.1731C19.3005 22.2731 19.0259 22.3205 18.75 22.3125ZM7.7925 13.755C7.65498 13.7552 7.51922 13.786 7.395 13.845C6.47389 14.2925 5.69675 14.9894 5.15186 15.8564C4.60696 16.7235 4.31617 17.726 4.3125 18.75V20.25C4.3125 20.4986 4.41127 20.7371 4.58709 20.9129C4.7629 21.0887 5.00136 21.1875 5.25 21.1875H18.75C18.9986 21.1875 19.2371 21.0887 19.4129 20.9129C19.5887 20.7371 19.6875 20.4986 19.6875 20.25V18.75C19.6838 17.726 19.393 16.7235 18.8481 15.8564C18.3033 14.9894 17.5261 14.2925 16.605 13.845C16.4771 13.7804 16.3358 13.7467 16.1925 13.7467C16.0492 13.7467 15.9079 13.7804 15.78 13.845C14.6133 14.4548 13.3164 14.7733 12 14.7733C10.6836 14.7733 9.38667 14.4548 8.22 13.845C8.08747 13.7791 7.94034 13.7482 7.7925 13.755ZM12 11.8125C10.9987 11.8125 10.0199 11.5156 9.18743 10.9593C8.3549 10.403 7.70603 9.61239 7.32286 8.68734C6.93969 7.76229 6.83944 6.74439 7.03477 5.76236C7.23011 4.78033 7.71227 3.87828 8.42027 3.17027C9.12827 2.46227 10.0303 1.98011 11.0124 1.78478C11.9944 1.58944 13.0123 1.68969 13.9373 2.07286C14.8624 2.45603 15.653 3.1049 16.2093 3.93743C16.7656 4.76995 17.0625 5.74873 17.0625 6.75C17.0605 8.09205 16.5265 9.37857 15.5775 10.3275C14.6286 11.2765 13.342 11.8105 12 11.8125ZM12 2.8125C11.2212 2.8125 10.46 3.04343 9.81244 3.47609C9.16492 3.90875 8.66024 4.5237 8.36222 5.24319C8.0642 5.96267 7.98623 6.75437 8.13816 7.51817C8.29009 8.28197 8.6651 8.98357 9.21577 9.53424C9.76644 10.0849 10.468 10.4599 11.2318 10.6118C11.9956 10.7638 12.7873 10.6858 13.5068 10.3878C14.2263 10.0898 14.8413 9.58508 15.2739 8.93756C15.7066 8.29004 15.9375 7.52877 15.9375 6.75C15.9375 5.70571 15.5227 4.70419 14.7842 3.96577C14.0458 3.22734 13.0443 2.8125 12 2.8125Z" fill="#34373F"/>
</svg>
