<svg width="33" height="33" viewBox="0 0 33 33" fill="none" xmlns="http://www.w3.org/2000/svg">
<path d="M27.5 21.6495C25.5176 20.6487 23.3395 19.9596 21.1947 19.5267C20.6875 18.9823 20.3385 18.3097 20.1856 17.5814C21.5132 16.5431 22.5297 14.9856 23.0865 13.1303C24.6242 12.8975 25.0241 10.5347 24.4142 9.24084C27.2144 -3.02988 5.84075 -3.05533 8.5744 9.21409C7.9327 10.5073 8.33199 12.902 9.8875 13.1315C10.437 14.9868 11.4608 16.5443 12.7885 17.5826C12.6297 18.343 12.2587 19.0427 11.7185 19.6009C10.7033 19.7784 10.0784 19.9279 10.065 19.9426C5.90578 21.0875 2.21481 22.3741 2.72154 27.4941C2.51039 34.8277 30.461 34.8345 30.2611 27.4943C30.4808 25.1842 29.7349 22.7029 27.5 21.6495ZM16.5052 1.00966C21.3302 0.943209 24.1718 4.11662 23.5461 8.39947C23.2608 8.26205 22.9182 8.25606 22.6111 8.32528C22.4896 7.96054 22.2914 7.37569 21.9509 6.42617C21.9077 6.34206 21.837 6.26594 21.7807 6.18911C17.4328 3.2962 15.6177 8.66031 11.7136 6.17332C11.6906 6.15876 11.6747 6.14535 11.6541 6.12956C11.4547 6.0787 11.2312 6.11248 11.1046 6.2925C10.7004 7.10628 10.4881 8.00824 10.3544 8.32535C10.0595 8.24987 9.73597 8.25612 9.45715 8.3849C8.83124 4.10567 11.6819 0.944562 16.5052 1.00966ZM10.7337 12.4494C10.4861 11.823 10.0751 12.2685 9.80603 12.0628C9.19566 11.6479 9.04394 9.52656 9.82801 9.304C10.2357 9.16988 10.5958 9.68937 10.9781 9.39153C11.0852 9.30716 11.1568 9.18567 11.1788 9.05109C11.2152 8.88693 11.4742 8.1307 11.7575 7.34895C16.2073 9.39108 17.1644 4.73602 21.0756 6.92826C21.5912 8.18716 21.6024 8.85489 21.9946 9.39037C22.3757 9.69001 22.7384 9.16524 23.1449 9.30278C23.4574 9.39031 23.7528 9.98482 23.6799 10.7861C23.6191 11.4536 23.3674 11.8803 23.168 12.0615C22.8784 12.2495 22.4385 11.8249 22.2403 12.4482C20.4672 19.6524 12.4998 19.6541 10.7337 12.4494ZM13.6797 18.1771C15.4211 19.166 17.5542 19.166 19.2956 18.1771C19.5112 18.9255 19.8998 19.6128 20.43 20.1832C20.171 20.9991 18.3071 22.5432 16.4907 23.6702C14.6669 22.5431 12.803 20.9954 12.5502 20.1832C13.078 19.6119 13.4648 18.9248 13.6797 18.1771ZM3.7232 27.494C3.3515 23.4116 5.58944 22.3993 9.01938 21.2787C8.86134 21.9337 8.73959 22.5969 8.65464 23.2653C6.52775 23.9071 6.64274 25.8643 6.9768 27.6581C6.51003 28.2927 7.299 29.1569 7.9726 28.7414C8.47475 28.4673 8.45548 27.6934 7.94946 27.4356C7.76055 26.121 7.40083 24.4959 9.20107 24.2284C10.9068 24.153 10.9385 25.8054 11.0681 27.0551C10.6306 27.4332 10.8279 28.1872 11.3855 28.3215C12.1191 28.5447 12.6738 27.5406 12.0687 27.0551C11.9584 25.3677 11.6953 23.4857 9.66501 23.2131C9.77509 22.4501 9.93307 21.6949 10.138 20.9517C10.4631 20.8663 10.6129 20.8171 11.6663 20.6246C12.3119 22.1383 14.9989 23.9195 15.9922 24.5274V31.9902C10.1527 31.751 3.72804 30.5566 3.7232 27.494ZM29.2556 27.494C29.254 30.5505 22.8309 31.7525 16.9842 31.9902V24.5274C17.9934 23.9037 20.7168 22.0957 21.3259 20.5808C21.8185 20.6742 22.2945 20.7964 22.7643 20.9212C23.0499 21.9658 23.2435 23.0333 23.343 24.1116C21.0178 24.9485 22.2036 28.4272 24.5556 27.67C26.3339 27.1254 26.1651 24.3884 24.3449 24.0532C24.2563 23.1115 24.1023 22.1771 23.8841 21.2568C27.3315 22.3699 29.6406 23.3878 29.2556 27.494ZM23.951 25.0028C25.0933 25.0141 25.0962 26.7474 23.9501 26.7528C22.8034 26.7449 22.8111 25.0121 23.9534 25.0028H23.951Z" fill="#BD120A"/>
</svg>
