<svg width="28" height="28" viewBox="0 0 28 28" fill="none" xmlns="http://www.w3.org/2000/svg">
<path d="M23.4961 0H3.80859C1.70854 0 0 1.70854 0 3.80859V23.4961C0 25.5962 1.70854 27.3047 3.80859 27.3047H23.4961C25.5962 27.3047 27.3047 25.5962 27.3047 23.4961V3.80859C27.3047 1.70854 25.5962 0 23.4961 0ZM26.3672 23.4961C26.3672 25.0792 25.0792 26.3672 23.4961 26.3672H3.80859C2.22545 26.3672 0.9375 25.0792 0.9375 23.4961V3.80859C0.9375 2.22545 2.22545 0.9375 3.80859 0.9375H23.4961C25.0792 0.9375 26.3672 2.22545 26.3672 3.80859V23.4961ZM11.1472 6.82605H16.1575C16.8035 6.82605 17.329 6.30047 17.329 5.65447V3.91811C17.329 3.27211 16.8035 2.74652 16.1575 2.74652H11.1472C10.5012 2.74652 9.97565 3.27211 9.97565 3.91811V5.65447C9.97565 6.30047 10.5012 6.82605 11.1472 6.82605ZM10.9131 3.91811C10.9131 3.79119 11.0203 3.68402 11.1472 3.68402H16.1575C16.2844 3.68402 16.3915 3.79119 16.3915 3.91811V5.65447C16.3915 5.78139 16.2844 5.88855 16.1575 5.88855H11.1472C11.0203 5.88855 10.9131 5.78139 10.9131 5.65447V3.91811ZM20.9097 8.82709C19.2272 8.09162 17.4941 8.40768 16.3865 9.6515C15.6702 10.4559 15.3861 11.2663 15.4921 12.2019C15.5894 13.0609 16.0028 14.0295 16.8744 15.4409C17.8538 17.0268 17.8082 18.3878 17.3501 20.6612C17.1053 21.877 17.4634 22.9987 18.3327 23.7386C18.8841 24.2079 19.5793 24.4587 20.2559 24.4587C20.5639 24.4587 20.8681 24.4068 21.153 24.2998C22.0421 23.9658 22.6221 23.1725 22.7861 22.0658C23.0341 20.3913 23.1585 19.053 23.3845 16.6235C23.4752 15.6476 23.5781 14.5416 23.7125 13.1554C23.8014 12.2391 23.5523 11.3286 22.9922 10.5224C22.4871 9.79535 21.7475 9.1933 20.9097 8.82709ZM22.7793 13.0648C22.6447 14.4529 22.5418 15.5599 22.451 16.5366C22.2266 18.9497 22.103 20.2791 21.8587 21.9284C21.7452 22.6938 21.3872 23.2103 20.8235 23.4221C20.2264 23.6463 19.4873 23.4902 18.9403 23.0246C18.5865 22.7235 18.0288 22.04 18.2692 20.8464C18.755 18.4349 18.8037 16.7808 17.6721 14.9483C16.0191 12.2716 16.1663 11.3087 17.0867 10.2749C17.9278 9.33029 19.2166 9.1101 20.5343 9.68613C21.7229 10.2057 22.9325 11.4846 22.7793 13.0648ZM6.39498 8.82709C5.55721 9.1933 4.81764 9.79535 4.31256 10.5224C3.75246 11.3285 3.50338 12.239 3.59227 13.1554C3.72668 14.5416 3.82957 15.6476 3.92027 16.6235C4.14615 19.0529 4.27061 20.3913 4.51875 22.0658C4.6827 23.1725 5.26266 23.9658 6.1517 24.2997C6.4367 24.4068 6.74074 24.4587 7.04883 24.4587C7.72541 24.4587 8.42074 24.2078 8.97211 23.7385C9.84141 22.9986 10.1995 21.877 9.95461 20.6612C9.49664 18.3879 9.451 17.0269 10.4304 15.4409C11.3019 14.0296 11.7154 13.0609 11.8127 12.2019C11.9187 11.2663 11.6346 10.4559 10.9182 9.6515C9.81059 8.40756 8.07738 8.09168 6.39498 8.82709ZM9.63264 14.9483C8.50102 16.7808 8.54971 18.435 9.03545 20.8464C9.27592 22.04 8.71822 22.7235 8.36443 23.0246C7.81734 23.4904 7.07818 23.6463 6.48129 23.4221C5.91744 23.2103 5.55949 22.6938 5.446 21.9284C5.20166 20.2791 5.07809 18.9498 4.85373 16.5367C4.76291 15.56 4.65996 14.4529 4.52537 13.0649C4.37215 11.4847 5.5817 10.2057 6.77039 9.68613C7.25508 9.47426 7.73578 9.37014 8.19182 9.37014C8.97551 9.37014 9.68625 9.67781 10.218 10.2749C11.1384 11.3086 11.2856 12.2716 9.63264 14.9483Z" fill="#BD120A"/>
</svg>
