<svg width="80" height="80" viewBox="0 0 120 120" fill="none" xmlns="http://www.w3.org/2000/svg">
<g id="Group 108960">
<g id="Ellipse 2" filter="url(#filter0_d_694_3102)">
<circle cx="60" cy="52" r="40" fill="white"/>
<circle cx="60" cy="52" r="39.5" stroke="#A1A4AC" stroke-opacity="0.3"/>
</g>
<g id="_x37_2">
<path id="Vector" d="M65.7617 38.0555L65.6885 38.0705V38.1452V38.536C65.6885 39.8057 66.3137 40.9917 67.3614 41.7085C68.8299 42.7138 69.7066 44.3764 69.7066 46.1559V65.6812C69.7066 68.0119 67.8101 69.9084 65.4794 69.9084H55.3188C52.9881 69.9084 51.0916 68.0119 51.0916 65.6812V46.1559C51.0916 44.3764 51.9682 42.7138 53.4367 41.7085C54.4845 40.9918 55.1096 39.8057 55.1096 38.536V38.1452V38.0705L55.0364 38.0555C54.2108 37.8866 53.5879 37.1544 53.5879 36.2796V34.9042C53.5879 33.9046 54.401 33.0916 55.4002 33.0916H65.398C66.3972 33.0916 67.2102 33.9046 67.2102 34.9042V36.2796C67.2102 37.1544 66.5873 37.8866 65.7617 38.0555ZM56.7456 38.0944H56.6541V38.1859V38.536C56.6541 40.316 55.7774 41.9781 54.3093 42.983L54.361 43.0585L54.3093 42.983C53.2616 43.7001 52.636 44.8861 52.636 46.1559V65.6812C52.636 67.1607 53.8393 68.364 55.3188 68.364H65.4794C66.9589 68.364 68.1622 67.1607 68.1622 65.6812V46.1559C68.1622 44.8861 67.5366 43.7001 66.4889 42.983L66.4372 43.0585L66.4889 42.983C65.0208 41.9781 64.1441 40.316 64.1441 38.536V38.1859V38.0944H64.0526H56.7456ZM55.4002 34.636C55.2525 34.636 55.1323 34.7564 55.1323 34.9042V36.2796C55.1323 36.4274 55.2525 36.5479 55.4002 36.5479H65.398C65.5457 36.5479 65.6658 36.4274 65.6658 36.2796V34.9042C65.6658 34.7564 65.5457 34.636 65.398 34.636H55.4002Z" fill="#A1A4AC" stroke="white" stroke-width="0.183117"/>
<path id="Vector_2" d="M56.688 50.5807C56.5598 50.7089 56.4877 50.8829 56.4877 51.0642V58.9358C56.4877 59.1172 56.5598 59.2912 56.688 59.4194C57.742 60.4734 59.1262 61 60.5105 61C61.8947 61 63.2789 60.473 64.3326 59.4194C64.4608 59.2912 64.5329 59.1172 64.5329 58.9358V51.0642C64.5329 50.8829 64.4608 50.7089 64.3326 50.5807C62.2246 48.4728 58.7953 48.4734 56.688 50.5807Z" fill="#BD120A"/>
</g>
</g>
<defs>
<filter id="filter0_d_694_3102" x="0" y="0" width="120" height="120" filterUnits="userSpaceOnUse" color-interpolation-filters="sRGB">
<feFlood flood-opacity="0" result="BackgroundImageFix"/>
<feColorMatrix in="SourceAlpha" type="matrix" values="0 0 0 0 0 0 0 0 0 0 0 0 0 0 0 0 0 0 127 0" result="hardAlpha"/>
<feOffset dy="8"/>
<feGaussianBlur stdDeviation="10"/>
<feComposite in2="hardAlpha" operator="out"/>
<feColorMatrix type="matrix" values="0 0 0 0 0.203922 0 0 0 0 0.215686 0 0 0 0 0.247059 0 0 0 0.2 0"/>
<feBlend mode="normal" in2="BackgroundImageFix" result="effect1_dropShadow_694_3102"/>
<feBlend mode="normal" in="SourceGraphic" in2="effect1_dropShadow_694_3102" result="shape"/>
</filter>
</defs>
</svg>
